<mxfile host="65bd71144e">
    <diagram id="Lu83tjWo-Wz-DkkKe9Yt" name="第 1 页">
        <mxGraphModel dx="1751" dy="986" grid="0" gridSize="10" guides="1" tooltips="1" connect="1" arrows="1" fold="1" page="0" pageScale="1" pageWidth="850" pageHeight="1100" math="0" shadow="0">
            <root>
                <mxCell id="0"/>
                <mxCell id="1" parent="0"/>
                <mxCell id="2" value="" style="shape=image;verticalLabelPosition=bottom;labelBackgroundColor=default;verticalAlign=top;aspect=fixed;imageAspect=0;image=data:image/png,iVBORw0KGgoAAAANSUhEUgAAAIsAAABBCAIAAABuCMB6AAAAAXNSR0IArs4c6QAACY1JREFUeJztnF9MU1kex7+z2QeSnQT0OlzpjdbqsAmYNingTsTEqEmdgMu/ODPKPBglAmY16gNuV50ESEaxq8kCkbWFhDA+WFzFQh1LoAlrTOw8lN7GskCii0w1bbmVZiFxEt+6D/e2FG5bL7TKAe8nTbj39JzzO+V3z5/+vj3ns3A4DBmC+d1qN0DmPcgeIp0UPeTupZp7R9PTFOlwfW2GGhv3sc2uDtI8NHrbQDUbqGZj30ya7Lp7qduehdsZe02b3S/ccH1tKRtaUn/qNXOWejPDmBnG3M5G0lg7n8LUO4ILOcfb+UTG7lqRpSX8XlKuomP6ELi+NsvSN7RHQ9p0NGN50IfP6Q9/VIuu1hFbyQGfiQbG2xm7y6crDDhqy2D1VRcCwX7L5X6uq5J/9/mW0WpfTtpMx/XQjL3GxA4AQGZn/anDm+OW5PraeurmACiHGo8WRVJHbxu+ngaAil3Hu0tpgOtr+zdy5+qc8wAulusbtJ4bzYMtAOClmgeFxEQfaKElESvuXsrqjal/STYIFQotNNTNAVkFY+d0sBnVznkAMBnqICQq+NL3aoovffmvF5eKkADu1WRG6RHe2s49FzxPWRTiN9sFRRcAIPsrGk1TwUoa/c/HOorPps89iOshzw3T1KF6fXd8x0ThH2TPjeaJaJLfZvznpuOhY7xjem649Q1aAN662ZJQowbuXuqJ/XutrqFR0+DupcbyQ8c0QskZYI5VN0fHj8xOoSWhvzTquwG4e6k2+9g5nUJ7NKSF32b8YaElXN9dNr9c362F32ZUzxY3aAE3MM1Ol+tDWq6vreeOW9dQeipUyvW1WXAk0TOXlHevA0AOEHAYr0O9FwAwOR8EsgHXXa8NyivA61/fqbdN1TIjNgAXNL7zO5dvaCliD7knWlTFoRV8BnC/vJgfmOuhnML9ReFvZudBDQDkUBVJSi881JHh1D3RAm9LsyGSgVpec1QlDVoAtHIDppNm3Pxt98tvk+agq5qUtUVmBsCflTcv4DWAAp01z6xlvAD0HcrSSQDcq0kYJuH2VXeBs9SPtLM7zxYsr9FipM1DkkkyKq4IVclCP0sIrdyAOquhxQpAOdT43vwrIae4y1cMAOAs9dyWIwBQeL7adx4AwNqZPEUX6K150O8tzgYAek9JxuVXHAroRFVKRLyWy6Eqph0rWvDQu3NRNyxeQSXgf5w/eQZt/kVJLfE8nlYONepDjfpQzIyYgPnpwNKkmXs123OvSvvOEOx3nMn7Y9WimWa8veztzSM7AWzZlmF4Mg4A4J4OvlNvTdU9iNeHNuu6y0MUP50KfSK6KOCnWX7Sjk74aGk2CGNUaVVnWw8//y9ZQSxFu7/zSQ8/8SReKWgayiciLRGWBv7ohI8eyskvPTT7VINfRwfDZHbpw3uVFN/bYlYKUmDtTNksEDu7cJb6kTM/A8i4OVrF+yy7ssraamYYD4DSjgNdKQ9xAD5b+3G5GXvNXfy4MIf1TO/lVyjrgzTPQ6vBZs0h9ETXgRW7jnevH/dgXfShdY4cOSUd2UOkI3uIdGQPkc6a1Ic+KQjRhwC/zShdlPPbjFSzgWo2RCpJQfiJyjkWiyjaQAJrUh/y3HFmDTWeel+ARwrB/ud4WO0rQLDfom1y7DHxUTWCIEQfSuRmsT4EYIabyKK+j2TxJxR+3tyv/dNfd/S9/FuS4Et2ZdVZ/uIrunQwcb5VJCzi2fWmW/cD4vSZ+63i9GfXm8zOyI3v0a0Tj2Yima9dZ4WLjT89C4fDYda8sXXYx2dlzUJinLLxKhfKPrvedG3jwivanrhtC947uU3V4hJ/knhwlgeKf/xHWt6PCjn6kJg4+pCmoVHTsCgQl4Qvvuma/kaaKdauPf251ZcGwS3trAd9KFVYO1P29uZoVeGHNrQi1oM+xCMWft7cr1Vtv8bGzR0l4KgtexuVDwiEEH1ICwADzugIyZeNow8lqG6lwg9nafLaAFuR+QwAQP+wOnXdOr3IsW3SkaM+pCN7iHRkD5GO7CHSkT1EOrKHSEfWh0hHWtQnErFOX1BnyS/rIzsaIqQ7esQT/Q0iid9MEyI9yBo3frxSRLHtcDgcDgyfiImUpx3X8EnLDH+hUAyPfjA76YVwfWihbwlW/DbjHeyYcLIDWBxXdV/d/t1//+7o/uaLhA9jgU74mW6BQo/3xAQJQuy01dGHwmFRH4q9jZT1Pbq1UUiMmuAzXFF9eeJeUMpTGXYNK+qecpKyrj4k60OB0IAqv5u/1uZftE74AQVQsWt/EQDQu3MzHwU4aGkA0F56+UJarXwwW0ea2p0IwvWhpPhn57FpeUUCjtoir/phNbFagxiS9aEcqmJ6gl/K+22OlixqsabgeTydeSi6gcp9dXtuzf03SSscby/yqtfQKg4AWfqQuCU/7jKqBRVcOdSoUwD+GBnpYrl+Of3V1eoxACgz8xWWdhzoqkzDDqwPzVrTh/w24w+oSizlrT/kqA/prLU+9Okh9yHSkT1EOrKHSEf2EOmQrw996hIUGfuHlmwekraXKHbPkGj/UPzz5aQScNTGPSCOtTOMubafi71dfL5cdDeSmWkdX7H9WEjdP5SfE/lO+tG3KLF2xvQH96gSRb8tfmO8veyt/kLGmHDLWUz8+XKcpX7kcv+Orkra1eoZ6zjgq6QBzlLvsAR2ph4AJEQfyskaGOMAelkm+EPOEu8fWnS+nBDTkyQj+UxAwLEkmf/vX4Ej4iG6yqTjL/aUZNgAAFu2ZdgGp4KVdHZgyvbz56dMCY0sA7EgsRr6kHAr1Ob8KUb4EZmIFIxtj6htrHlj00IDViAj+Z+ejNVhI5ISZ3kgCLUx/5gHdXfaXDE5FXfSqD8RpQ+5J6DCYzf2IVMVf3TgfnmBziPS9qvEPV9Osoy0iPH2iKQUFL3nah05k6fx8fFy1s6Uweqr3tJv0TJ2q0+X+o4XQvShHKriCTcaoPYdxGOWuEOAWb8B7xDZHwGMMINKt6k4G3C1mssnlW5T5LQs06z+YXUhgMoq669mo3D4aUoQpA+FHs9CsVmjmvV4kaWM72ZauWH+EcsB8NssgiAiEOfguDhIkZFEFOh8vmr+5e7IKO044DMVZwPBfkv5pOAqvnVb8zD2in/AuFeTWE/ny2np/Dl2Ine/AvTuTVNqZ9YQgHgmig4WwNRDOVGxq6QzKzqbr/zgODEBR22Rl5/5bYw54XGlAcfl0+8AL3+QJrDJ6tMVnteomRHmNCCfL/fpIEd9SEf2EOnIHiId2UOk839RxvKxmXKTdAAAAABJRU5ErkJggg==;movable=0;resizable=0;rotatable=0;deletable=0;editable=0;connectable=0;" parent="1" vertex="1">
                    <mxGeometry x="-359.0033740234375" y="7.003312988281252" width="139" height="65" as="geometry"/>
                </mxCell>
                <mxCell id="3" value="" style="shape=image;verticalLabelPosition=bottom;labelBackgroundColor=default;verticalAlign=top;aspect=fixed;imageAspect=0;image=data:image/png,iVBORw0KGgoAAAANSUhEUgAAAIoAAABTCAIAAADP1AjUAAAAAXNSR0IArs4c6QAADEtJREFUeJztnV9MG0cex7893QNSKkFqGv9ZpY6TplJBtmRjripIURKJRDgJBKW9hD7cJaj8URIleYDz0avkIKUhPiIdoHDFREI0DzG9BhlIMCKWUhQprk6GtWoEkZprCUH+s9RWQWok3nwPu7bX9hq8MSFDsh/xYI9n5ze7v52dYb77m3krGo1CglT+8KorILEWknuIRnIP0Ww99zBDXdY6J/Oqq7E5ZOseZqjLKmuzytqs173xRN/1Njaxdygkxqh3UHbLl/gactV1uQIJQyJLW7f8DSh5adhBUXaqczaRFHTXU3aKslON7qVY2nSnnaLsFGXvphNmHY1sosMRFG33j9ll837fsL0yclHHTws43XOlpyMmuWijOSE/cdF8YlMtTnfae3cd9Pa49U/jabPdRsY0VXtTiaVhh75z1n+peGnYUQWd318MzHZTDsdUTY0S050PnJUH/TY5gu56o+s9f0WJGNNp7pm6ZT08DwDQVEb+wvkjEFyuLkx1QyC8UqTlJzJDXQMNyynH+q63jbcDQH5fY9MJRfzrgqxtHEBrlblZmaFuIVedjR4BAPWE5ZQRgHdQNroAoLr0dH/8tkhkA1cgVxlrwzJQYJi5WAFnr9azAgA2awO4RBV79Hd1ZV+8/58nXxgzXqOSS7U3gaVhXhIdsLZ84FcCwOLTVXQEpi8VPhvHjcvFABBcmcHqzH+ZmuPhRx2FTX45AASfOxHW0igxZDSUTrJ7As7ew6iMWHQApm5Z65zyfuX37BUBBmSetLOdt7aPxpwh0MKYoS63ptEcUbAXcVBtOdVs0TV7B2UzRXHfIwQs09q2+PMgvw8AfNdtkbMWcz8A76CsyzVzsUKlPxXRI+Ds/ZJv4lu6qMrcr0fA2asNlzXrAS8wT89XmSN6Zqhr4La3otnUFDExQ10OnGw6oRBxeTKw9Ox3065CgHE0PnBWqs14DoQX771dbgNoF3UMN3rynACCKzNHt50CloYd+nH5jZbwokhDKe4Jr7Rquatm1KpHZhiY4lekJnHDmpoiJkzdsk5qzc362MFKWfXouKyLid+YCPnGlldG2BsWANRnM1UjcTszQ10OAPDOtWOhvc0ayyATd16aymY9ALl6O+bXzKj4tP+XT8WVzRF2NPoWG2tvGma7zz3n0mgXZdvm9Zdh2OGM5VscdlQ9/cBvK57uXMjNPTmhqOi3VCDkqmuzjsQvN+8xIhre0zUzcvV2NIxa20cBqCcs6+bfEHa897bzmE97t/aCgX2UoRyFO4/6qmxqr61sBzD9dBW7AGW+9p6v6kOd/1IxwDx7DOwTZyh55KYqzG+fYcc8zNDDhfT+Zn0UFf2WytblSACAQncE9G2vULbfmIBQcgJ9Ueu8O4uBlm9yXj1hMUcs5gjbP63Fynza4Cn0Xd3uvVen1rWTjEFlRmG5AQCmv11wtqhKIC+vzDNV7tkBIOju7cgzfSQHistbYN5XDAC07/w97pDsSW49KlNNX9cA22lDUylqVBaId0hAdenpZgCQnzhpqLNZZaPgCmRbg/5A38MBtrPJPDTQNVfNyWIPRnYswDMxIPOgtcrcrNft14wfjj8D44MIAeQn9qllbDsT16aXhh36c6sAAB/V4TPfrb1gKL5wN0BRdgA4qvbaigHsOF5manxAnQMA893aGiUAlFzSPaLsFADk3ZiqETVsA/DWFp8SDbnqvsWVRL81ML+P1x1ueTaw73klKHRHMBAf9VWXnu5/fXyDrd96XnO23pzbG4XkHqKR3EM0knuIRnIP0ZCg9wABZ2/2ClvA2cvWJFZIDkJOTmLMJrD19B7fbU/BhKVpvfmbbMhRjNkESNB7Mv0jma73AAgxcwWyz+J1yCjk/Hqn/k9/2zP0y98zz3LN5ijGbAIk6D3CpOs98tucazHSRnP+zkHIyVmM2QQI0XvSEdB7dM0WXXPSJNsavPvJzflP1jeTixizCWx5vefFyVmM2QS2vN7Dki7k/HqnXrP7Gi2YmyNXMWYTIEHv0QPAiGdA5mGPZgcCAnpPBssvLOTkKMZsAtKMNdFIswZEI7mHaCT3EI3kHqKR3EM0knuIRnIP0RCh9yQKTy5/Y3lhWUj8gUkRS7lAit7Dyg1siMjgfv26r+O+IZCm9+iLWkfdCyEYFbya8ON7ZmR9v9ENy7zEVBOAd7AuKCvy0O3YkPgeAAA9KPMs8CssdKHiNQEKDFfAxbRwv4ZcdbbI2fVfBE8iysc/9vU73/zIfvZ8c+3MWChK29+5fC3x13nfz2bjJ7KH0Pb4sTFCdzq/vhOMRqPRaPD+mct2D5ucmpOXjbazJpKI56ft71zmcvrHvj4zFhI2kcgWutN5rYNOs8Ij+J8zmve/8qQmp5xF7BxjJgQuFN9W8P4Z7ix+7IiddazCoiBF71lp4LKpJyzc4fw5VmiKYh/KWNlNZWrqBxByCZvgsm1UfE9+3yEdACh0RwocCyEg/UKFmDEYrqQqv7r9mvFJL4x65ocnBWcviu0ISNF7Ys+lOCHXlx70NZq5Dmkm86G5SEqiYeaXC/aLkWWNhwz/vu+Dkpnfe0B8SCyxeg8AFKgVXE0ym8tsQoCc43u8c+0FMpXghVLIi5Z//iEENp4yHusKhe7Ib3NDdERjeIExFDF6TyqKirMa6+E2K5DfV6pGOJPZDCYEc76gLASBZ6/AhZJ/VurW2qwNyO+rMlQ/TNj9eO+y9smeGZMIezEkveflk9pJi2Crx/eQDTv4ziHqSGo9RCPNuRGN5B6ikdxDNJJ7iEZyD9FkO7BOzEbz/pFMmyrOkpRX4GPrTMUQWVqWMI7GB+fvAYCZXWwlKTHvxlQNu1AEaBd1LAwALez7va+U7GZOBWajX2wKNmNpSVPaL4Hp+587QuwHler+VDQajUan/nWbSww8+pxNjH/g//rqIE3v4ZNoVZy0E3D23saeOQ89klw9eK/u/vP//unu/+TdjLehoeIm22IMKjPY+T6B+J6dzxj0lJUA7Evxzsc/4/gmh5clQWx8T8hVN4oJi5lT4bpcMxcrALR7IhMWcz+Yoa6B617dC8yU0AHr0W1eCMf3LD5d1e6TA7PdlA89atO46OI3FlL0njSCkRFNUT/7WV/UOjoXAFRAdekBIwDIP96bPxZkoJcDgP6LX55kV6q7/tjvN6YqdsQShOJ7Zrupn3ZO1dbAXU+We3Jiw+N71iQQXkGhuEOC7nrjgja2VpRgfM/OXXnWYz9xwwT6uRPbXkLVRUCs3qOUVc/PsTJMwOlmVRYevsn5/CNxBcV7dffeuju/rlngbLdxQZsYs0EwvmfHR3LTUXm5EgDjsIVNlXvWruXLhmC950ppr5YLXuRUlgAvDKi1yixm8D3d6bMCOGZnCzT1HLx5XC4Q36Ms+6rSoWcXamvR+V/puABbbMY6tQt8/ZFmDYhmS7WeNw+p9RCN5B6ikdxDNJJ7iIZw93gHZW2DYtcAf40gIL4nZTG37NZ248fcpMXfCO/fky3cxjyu6ZR02kVR9vphftXY5eDiOeOrw/H378kJUuJ7kihSxsrUn4ps7rrU7B4VU2oYnyf/MNt97HdzSx7/Xe+lYff5DwvN97ividXhMNtNuaY3YnU4EvQeZcHIDAOklB8vLWndfV7QT37fWuu5Je3fw83XZSUL+W1A0J2SPN3pm+k5+BXcCfcE3f849/aoX/Wog509ZJ49zjOdZE+iuLzF92gjVocjQe/hnpa+621z+y2nEF6BErFdrnzX2+aEqsftI6PKtJ5byv49uTVB2lX1WO29JEdihyXGcXlBe7e2BLOPEvlWF4OAkt3iAtqNWN+KHL3HOwcNJr3Yj3yN8KYXzA9P0HcyuyXEBPfvyVoWSmK2OyYRxfeIWxp2n/9Q509qHPKay+p6o50CcFR9owUbsjocCXqPUlb9kJkKyvYfwiRN3JaKdMCKVRjt57nvD6hx+VWs4p6P6oiNPyi7+W7tBUPZTX8ZAIBxNDI7T26AcVL0nshkGCqFThP2LXBhPenI1dtXxmgGQMDp4Do5DoHAHQGykYXSMFT4/bXsn7cnz9Rz0G87+FdbbSxRZ0bhqJ8vI7Ft64OaTFviiYEIvUdetEzP7T2ggvzjwp+1noIJgB9G295mZVuh8ZABtgGZB9WllX0F8e47l8CdVILueuMCu6+Yk7KLe5fqJbyBJc1YEw3hswZvOpJ7iEZyD9FI7iEayT1E83+QMxrjYZ+kJwAAAABJRU5ErkJggg==;movable=0;resizable=0;rotatable=0;deletable=0;editable=0;connectable=0;" parent="1" vertex="1">
                    <mxGeometry x="-365.00337402343746" y="122.00331298828124" width="138" height="83" as="geometry"/>
                </mxCell>
                <mxCell id="4" value="" style="shape=image;verticalLabelPosition=bottom;labelBackgroundColor=default;verticalAlign=top;aspect=fixed;imageAspect=0;image=data:image/png,iVBORw0KGgoAAAANSUhEUgAAAI4AAABCCAIAAAAOtXmQAAAAAXNSR0IArs4c6QAAChJJREFUeJztnG9ME2kex797uRckbkK9sgwwwYoemwhpk0I9syUxLkk1rVAgerdwLwxHApjTrL4o19PdpDZZ5XqSHBC4o5gQzhfWvRWLqCVsE883dnMpTHPtAomeYiXTMtpGSHYT3nEvZvqHdvqHv3Z0PuEFffqbeZ6ZX59nfv19+/w+Wltbg4gQ+MW7HoBItoiuEgxCdRUz1mdpczDvehi7ya64avqmRWq2SM1DY0uRpiVnm9kiNVukN72xlj5ngHvBjPXFGW8Oz+3YyWNs4cyMvdNGkjaStPVT0cbZftJGknZ7MGY305tsFj02zpJysmZk72w23e+Kq1RnjGFT67AkrqlIM2IyhvWyzZ6SOHXBOKIjtmFwWUN5Hdpamm6h7xdY6p0zAIKudjJQQyuMcVavx+16KGi6haYVqOccM9P7iDt2mnCoIsfWY4JuoemWCXjbxzMvEL/kb56+aTmxAACQVPkuaEoSGsu04TMKgBnrs6Nc0uH2A2g43DqiIwBmrG+0YxlxLVtjydlmpe4BgGzK1KwC4LktnYjvMcEMAC7pjQaAXSc7lrmrgGNI7l4BAKulY/2lLX3Xpr786389u6xKPZAqzY0q9p8SIwIAUKy+QQOYfRIzYp5MYuBKJQAEV3xY9f2HaWoMPblecJYmACD4swMhOYXSVwwG1dUAwLyah2P+ORoz3CpeVy05//62ymfiLoMl4Bg6AW3YpFhvutIRUodNzYC3x/zvaV0zbo4+LG8NR3zW4zEalOlHEMcyJTdH14z8YQDw9ljDfzQZRwB4bkv7nL4LmhJlc1iJgGPo69iRzNi3VIXeOKJEwDEkD6kNSsADLFALemNYyYz1jd7yaAy6s2EdM9ZnxxdnTxVlPaokqIClbo+H/73Q4oOPa6wA5STrMTCY5wAQXPHV7WkGXo/blZPEQFdoEVh8uSo/SgCz/aQXgzLdZOZueRfAIqJimZKbb0/HmpgfnmH4uCLJND/SqDCYmlVg/G/zT1axHw/is/L8ueBGnvySKp/JGDbFrZaeuW74T7BPtQn/Bk7FUqY1KAEQsr0ZDIt+O/Ii7ZSKEnS11/80cEVdmMaGcpLWPR5aUxPXtjhuV778lLaq98XaZvvJp6XTLV8eyaLfVAugwmBSGODtMVtORJeddwW32KaHkO1Fx4SlewKAbCpx6m8bQVe7yi+/39JUnMqioLTOq7fKPFZ1ITDzchX7geJ8+QOv/pCCvljJLnc4itL9eZb6pwPTTU3FAPWzA3sydp4urFAYTK3DkmX/EgBCtnel4/vkgCoBQrZ35SHFziTvLfdKRfHWnlXKiksLriwCNu/jBdkUNyMzfrBWFoKJTUvftR0ovzbNZx1jtl/ll99v+bIqjQ1Ro83TaQ8WAgi6hq7n6Y4QQGVNF4xHKwGA8p5/UFBThcIjhK6OqCkGwNitIZ32YIZBp5hVkec2AJRpw0UAoDrTOtw3KjVPco0pPumqM9oK86jUDbCPfSXiAw1YLR3sNI114ZeaJxsOt47w3wCFQT8nZaOASBwRiEYHGJW6cUlvNCgVx8omT5gtkaPSrATEqaMyKTv/4sKKLJjp9VoA1NvYXnSDtTcaQ/2kl+tUZTtfJ/NY1YWNal3nI/IcABgj86/6ouIJaSMBIG9guqkaQLH6qtauJG0A0KWgM8UUAD56L3KAS862b/ENd9+Zsb7RhaMbCWeEQYpgXWAUKU5iNBo9Rmbze8b7Mas+CISaA/wAEV0lGERXCQbRVYJBdJVg2JVgPZKSzx/ujORJo4nwuG/TAcfQ12jKMhkf+yIcn+bfXB6WsXc+Ov8A7PfT1Emjd8yuuEp1xhhmb2WUIs2ISQPPbalvc6f03nJLpkxntyM5yYlJVgJBV7vKuY/WVG/DWbcfIepVAJaYOYn09xGTQEoh6s2d9t/86eDYiz+nztvNJotJ1emyfO+MnNKreEjWq4hb5sluAMA9M8UtqlsQovjEpNyE11VFRMXypNwcjkt6Mj88w/AX6fUqBcCMvc0/eTymVz0MMlBuYWJ55rrh747mYSVSTqBZl/RLwyenbyycztzN4rhd//JT2lo50+sXlquEp1dtHj4xKTd5T/QqlmQh6s2d9rIDf6F4rTl4xKTcJHf0Kh0B4J6bOzYSRPDoVSmuZNNCFI+YlJOImXXBIGYrBIPoKsEgukowiK4SDKKrBIPoKsEgukow5I5eFf+9G+uNt5OZXpv+OgAYM/xONvdY2y2W7vT+405wfRtl+9U//7uuJfj9H67Y3Ds1BsZ+t+RvP66tra2t/dhXcvduYKc62glyX6+KzTYucRxwDN3CwTl3oogMz7UDv/vfX10jpz9JcSrezU+7up1uK+S4XrXkbJvAlMnI7YDrc/ouaAB0u8NTJuMI14Ui2y74Nj8Jh5zaX5VMMHyvrIKTYJQVl5bD7GbhhsOfq5K7UF5+8Sz1lIrAt/lJEPBHgAqDyRg2VTw2W6TrHJZzBEIrG7AuKK0L6a172M1Piy9Xd2xYO0KO61XF0oaFOfazEnC4uiXS9dKG9/FCdBIDnmsHytvuvEkzOr7NT4Ihx/SqRIo03xweknOCvWzKpCkBAnGy1iW9cSMBPe/mJ6EgQL1qQz8XfI8QsxWCQYCz6kNFnFWCQXSVYBBdJRhEVwkGQbjKczvHkya7Qs7UAww4huJLMSa8TEF8cb+kQn/89QCzJehqJ20k6ZxJaKecJGmL1YSL1vTrdL3mmtgKgRso9JclOVwPMJaUUjZnUY5nO6Gc5BVcnZbpEt+Y7a//ydiVF3nJ2K1sTb/aAfi/GmcAzPR6fYO1NNs4/9SeVCNo0+SMXlVSLLnnY4AE++jZ1u1yiI0E+cPp9letqwfI5Q8zylpAlYa2AkFXQjPrhqtwRfbvEU1WDftPjZaTVEr35zkmn79uJAqDzx0PPj5rzfL6M5NzepW3xzx3zNSM0AqKwVbTPAVvj3mObyTcTsiSVPurEuoBbq1EDOXUz8s8FwmMJ7/HPJlclXcSAAobm+h9TpK0oU7moTXpatFtkFzTqzxzKMNjD4D8Mv5kaqqR8MFbDzA7WSuR2f7UZQBneh+dP6TgfqlBOcl6TNAtHi2jTH7UbYHc0auKpQ1vmemg9NhxKbYoSO4AVMCC1fMqG0nalOdWHeceReOImV6bfl7muVgJgK0YZ7yvqQYKG5smukJDWRSlzZLc0qvCj0MoKVKUhbx+SGT86kasi4DDzmkrHDyF/njIKGvxUaWh6Rb2zzOYpxuspa3qQrao8DxXqJEd3b5D8L1ibwDzah7yfdsmAOSSXlWxTM2Vf14C4rOC53K3ZAoAvD2Rnb/dZgsbHaiOV8E6KnWj4bB2WBJ99G96fxUPQVe7ys+GCQ7Shi52TyOP2VfnVgG/kmQvpWCC1lRfVMhJThLTDdbe2L7fr4mZdcEgiGyFCCC6SkCIrhIMoqsEg+gqwfB/9Ea+4zhFAfAAAAAASUVORK5CYII=;movable=0;resizable=0;rotatable=0;deletable=0;editable=0;connectable=0;" parent="1" vertex="1">
                    <mxGeometry x="-351.0033740234375" y="460.00331298828127" width="142" height="66" as="geometry"/>
                </mxCell>
                <mxCell id="6" value="" style="shape=image;verticalLabelPosition=bottom;labelBackgroundColor=default;verticalAlign=top;aspect=fixed;imageAspect=0;image=data:image/png,iVBORw0KGgoAAAANSUhEUgAAAxsAAAAkCAYAAADhGicsAAAX7klEQVR4nO2dPbKqSteAH796Z3FTMLAcAYwATIxMzSDExMzQzARCyUyNTKRHICOwDKTDMw++AHSr/Aj+7O3Zp58qq+7dh6Z/6V6re/VanT9//qRU8N9//1X9k0KhUCgUCoVCoVDU8n8/XQCFQqFQKBQKhULxO1HKhkKhUCgUCoVCoXgLStlQKBQKhUKhUCgUb0EpGwqFQqFQKBQKheItKGVDoVAoFAqFQqFQvAWlbCh+HSJwcYVE/mgpJIHZwTQDxFsLInA7HUz3VflIAtclEBIpG/6ES6dj4jYogJQC+WQ5pRDt6ipcTPNe+QRuXodXdpcMXNxAvHYsntq77L0iwA1+duS/CuF26Jgm31Ud4ZqY7ml8SgI3b+Nn85cC18y+KYVCofh03jH3KmVD8euwvCm9uY5uusWPRQaYpouoFJ4Frmm2E9ikQBQkEo1uH+J+F0t7tkYN6A1elI9Gl5DJJmlfBP1+ATRNZzuuEJSRJYJd1icicHFNk06ng27bzMcBomG55HFPHN8pn9gQEhPOtw3f2gzNm9Jb2+gdt3F57yE2IQC9gUWhRpbH8KDTMYPnFJymiuaN0ml2OpnA/kzel/RneBXdJgPztXkRE4dzshGg4S1XDA82ut7BfabzNCAOWR+rHsg3Jl6tlCoUir+PXzr3/u8lhVIoPgoNb+Wz1iest1O8yy9G69KPJ2ySKVO9JGlyZB/H9EfNcxMLGzsEw0/YVX2dfyGa1rAurfQSDW81wtRt9LVPsvMuBOaEha6zNxxGox6HwwF6Q4ZdYDBlOoBl0zKdkWzXMU6UVk6ccBLgHaKr8jTNQiI1rSKdhjdzmNh7jpIahVAiqXrHVUnJilq9EFhTH0OfoLtd0qXVqApFErZb6HbbpBkyi4ZZainvjB9J4C44AL3hkLJsjnuAI6JK0O/OmHUhERLtZRp9n+75VRrWMsHfjzkA8m6d7rz59GIZ4C66LPO+Ea7OJAaj/1TBFQrFr+B3zr1K2VD8TjSPmd9F97QKIUGj+ns06A2aChUn4S9qpWhIIUh063tOPXhAUNrPcd1Nw2f37QqjecycCXbpNAf92RLvURkZAIkUgKWhyS2HfsSlzC2DgMTzsL7+wDwEJ1pSzFYiBFg1HSUWC44Vk3ZGD98f0k0EokIx28xtwtghSpb1Y0JsCDHwpzUNpHXpA/TKtOmGSo1m4Xn3HnoGDW+5rH9kA9DFsm7qKgUi0Wv7BLIx34qecUp4tWM3WK3oLkz0MMZwIlbLkhMlQIqA8Xxd+uoYYG6yn3/9zXRh1ptjh+BECcvvmgwUCsXn8gvm3jK+UdmQBO6YSRhf/M3AMEasKncTH0mj+CeRAe7iUPy7OycMYww/YvecBFtOLvw5PRA32wCVuwObOXYYAwZ+sqvdcZeByfgwYjasEmWP7AEOW4SoeOa4wZ6EGI7Patnwu+nPzjuvdxEuod1O4bCWKWmrFO3YznUmcwd/BPQgCHIblsM6m0/WnE9VxGJCjEH/GBDcmLoc1hPCmGohUwbMwz2jaZ2SYHE7Z18j2NhgOD1AQmUPSYJ5iOEn+ZgpMzsD0JkmmVZzLXBvGesTYsMhWt1Rar4JKVzG84qxk0nomJcS+gXz44yVVy74ZyQk6JSpXHUcoZBGn65IpvXpNMtjZ5VJCQK3Y8Nsd6P0muiT+4pG9lyz+eKdBGaHSQzgEKVlivm/yVP9IwNMfcKXhPOzffxJ/HXj7bIvneiJU+Xv4b1zb5FvUzYCU2eCT5LuGhfwkTRvR7h05j3SXRPVM1tkwqp//qBF/+20arcH0DyKyrokMHUwfFbvUDQQuHYm/E0HJf/ch9LdAcsivbOxcEkcHmA6qBSa+sC+10XXq57oYQD9YQsFfb/5EtDvcWh5svFNGKMbEzoACesQRqu8LWTAPKxe4CVrwrjPrELRyBYXh9kT37BwN/SSlOW9d4gFk9jAX10YniUJoFPZ9VcMWCVlA/Xn0Kwlu4pPU7gdbGbs7i7aEimLJ5Wa1m4x1Lp9YE/9qecrkAh3jB1SOu6klHBhlqd5O1JP4HbKF/7vwtuleDLA1Es2dT6dN64/T/WP5rFL8zLJAFMvPxn7q3hRW3/MeGtan7wvZWDy00Vuwjvn3jK+R9mQAevYwE9aCDuPpPk4LJZpyjQw0Q+zgqYrhctYNzmqnYy3IIMxk9ghSotjaH8U5Rd2j81nCRnMCZ2ItKLz2l+xrqHyTsApF/0pe/IvJEcMnDJBvQoBh16XgQZIQbCFQe2uRyZszXurUtOzyr655LhhPgkz87WHd5AkwXhNP3r0+xswi7qgW0/suknoDblvtZcptgCTccBg56GhNTzOzmx0GU7xvmNnQwrcsc2+X3IaJKtNyW65azcM53EQV+0IS4G7gGnZBa3tmPFhVmkWdX5F4LLoTitOH6pOl0rfhJSwHeuZ0hitGNykT7Zj7EkMxu19JoVCobjDJ829N6g7Gz+IZi3ZRS6dcYD3rh3/fxUZMJ7EONGuVBDsdytMW/Qj80mDnXoZsChRIP86Siag7nBGlwTRdGaiy7ALiXAZ2yExMLm5/C1FwOIIw24XODIPY3CSm/sDemY23y3ZqU+2jO01o2jFQAf0KavBHbuWO8hgzOHGtKUVmoaebFksNjS83VJkHxLGwLr+lDNTbH38/YT1aHC9iIgAF6+mHgmHMCQM91CzKGTH6tAvu6i8DwljA8Ppc/7n/Z4wjjEMp5im79BnwyLQWV45aLDQc1OxMt1Y5mMIx2e1S7k7K1oWlld3THhkH04Y9yJmN1aGx3VMHG9IplZWFr2HQcgh4cKSTbJdh4RxyN6PSk0HkiQBvc5c62TWtmWhT9g7Psmq/IRJH6z4sMMnhULxZn7n3HvDnz9/0qpfgSRKHcNIgfPPMJw0SoqPpmmaRg5XzxZ+hv+SNFnR/OuyGUbq+FEaOUZq+GUFTNLIMW7eb6SG46dJyeOJf/vs7c9Jo/JmyNI6Ff8aOaVpC/WBrGwVefjGRVnyvJLITw3jq27FIrRpgyh1LvsgiVLnMk/DScua+Zl2e5wkaw/DSf1CRbJ6VHVHmvipgVFal8v3R1WD/jInh+p+P78qSv2azLL2q2ujrD7lY/z8ktSorXNy57k7bdaaqvfV5NOoX84Pp75R0San9/j++V2R76R+RX/eb//7NBoHdSR+ahh+mlTWK0l9o6aMeb/WjpE7ZPPyTR6Rk/KqcZFEqeMYqeP4JetJ/j1jpE6D7+46afXYj5xsLvt6Y8m3lKd/qv/SNE0iJzUeKf9V2bLxn60Nl3OvUTl+88xbrdtZksu14yKPxE+Nm3FwPcfffKOn9jvl+8QYfISn1u1Wa/AT/fNV2IZzXDvZ5bt4tq2bjrfv4tH6nOS94jio/+aq+Gvn3hsax9mQwsUcH5mudqRpev7tVkM2Y7PUD7m1zJ9LfAwM/CS9SltmA/dIGoSLbq/pzVYXz62YsmEexsSH4g6tcHXsfZ8oSb7SJCtmvQPjsVkIGqZ5eb0jBwz/ukxpSvrgBSZ53IPRu0orAxPdXsNoRnJ+f8KMNXqF/3xvlz2X+AZwJDBNxpsuq1WePhrB8bqT2rVBZhKWRg6wxhzPYfaVLhntmejFIDDvarc6hDvOLpb1hwy24zwA2ou8T0tB4C7YbBa4rlv7m+/JvTpVP2PqNpOJ/uJ4AS0pbHPc+vG++LsQiKpf4NLpdDA/JqhcUvRHfpoKBt55h9/ypjDXS8udHOLC36po7f2o2VsJFgdmtSY1GoPRHrsiGITcrrN7JQ/basrsWN3otb5sfRcRZP7hFxuy20cHNgsXNwgIggDXNel0dNZ9nyjZvdljU3aydrlenJwH1Hr/KuMUe0eKfC7uMasov3CbB/w7LEzG8wO9y7l3NeMw1+mU9P8j67ZwO+hzvtaOizzMEiccmrfL1h0ju195Ncw0j12a4PAzrsEfXX8eWYOhff88QlvZ5bt4tK3bjrfv4inZJbTR5zDdfT0fjfbYJTJSPb9n7m1mRiUDxjbMSmzf0SyWO3A7JsGP3j3o071qDA3NWzI7hMxvXUAKF3tfYhOraVjeEqubmTa97TIzkAluC8YT8JPrfLILZ7fPa1jLGU5nzlZ69e0crjlEK3aX7WHdmFk80wYx9KNr8xPN2xEdOsy3srmt/xsQrsm8tyJydOy8XAkm+mRMb/CC8alZeDV2N8LtXLRrdsSYeSvpl3vUuOeCDoA9x0rjySbeqF41YWtoFmgkBAF4N5fu5XEOOMwauw2+QWwIcYhepX0ejiS3TVLaFqdYGDpuN33YrCpZ6OihgeOvro+vn0AEC7rT+wq5NhhhTGzcYbH8ySEGZ/aEUp9wiAGn+/o7BJbHzFmz6Q0ZDnT0/G6SFAGL+Zp9f0SU7LC0zGWxGAyw3nZ7OwvESbhBLC2s3CWy4a8emDeOzHUbGwPH6TPqwXEbUHS5cGAdhsT7HgPr3h2NmDAseubRNIvlLqFn6pjBhUD/wLotAxN77xfm/VMemdMWp1AyzVvhTHQWomjOJ4MxIQ7JX3Qx8bE1uGX/PMJHyC6v49Hx9vGU3LmyHpKRfs/c20jZkNs1ce1iZTF07J8TNK0lSRSwME3s+LQTaWAYfWarlN1NkcQmxBgl1Z1nTXHsMcE9ob4NoU3nxi2V4fiskmWJ/Vx+gTaMuXL6a2R+4Hv38nJmd7XQp9rAGFUKZPG1wfO3IlyXzTBTsoT79XfNW+GvFxfBul5zQbxIvgvRf/XE0KdrVV9C3gD73qD6srB+ZD5pk9+tTWdy9W+g0T24BNK6GBuCxSTG8FcPe1eTx/2TQvENZW1SdSfHGuIQsi+LvNdoV+m0AzVi2nTSkAHmeE1/tqr8XhvbxGoDRsaEyTxgeiW0CjahgZ880aoyU2id4XvuJ1nL070qiQhcxus9/dGM6e7aC6HmeRCYdNZ9/Fm7y+77TYlb49Jh4EAYshFT2GSexqKWi4C8uLvkRPfuBAkOk5D+rNll8PJYMJCdbhlM1ltOTvofWbe36xhntqt4/qSUl//b1DfQC+NPnueFv0fVgEfX4Db98wg/Iru8kcfH24dTIwO0kpF+wdx7opGykRxijNIAUdf8pKCpWR5Ly+NqaZYCd2xyXF3vaB/3EIc6nTsCmPPK6jT2uyxwTTvb4U1WV5qklAGLF7nG+5E2eBsSEWxhuqxwH6rh7a6FtqcviJcWY8s6Bmf2womhOyNKnvF2BGgDVonX2J1nUTA7sAcu76FZ0x7zhTif8gjXJjT8J3YvBYsJzwnFT2Ex9KPmikKBbAfK8Afln8u+zLNHl9lsRmbu9ay71dOu/Pp611VsCI0RyTObqYvcvW/rrrkfEFFKSbJdMF+HxDj4syGzWR4JVwiS45HNId8A6PXgAA57JrbOuoUnsv7QKwSKFBzodW/6y5riGyETWyeL1dnczFMKl8UcmE1ZJT3GeisN/2ky171ftF+3BXetBvUeBuUbMqfTjXEwOO/e/42nGu9ag2/75xF+17r93Hj7F/gNc++JRsqG3jMaKRJNJrZvRbNYzjZ0dJdBujyXvtsHY/T99qNNkMGckOKxIoCmtYpfX8snt0F7NKz3htxsxNk2vu3EIAWC8mjimtUuVkA57QTZomCW7b5ev9JjhokrdKYssMPn3FQLdw51LmiTAzEwevD9TbAKsVjy04omiA0hYBy2SEraoV8Sb+XF6KcI2BfI4x5jNH1iDAk2IeAMH1B4E45HvSagoczdwGb/Zxhw2Bxh2KWLDhsdm4h0efltZ/89dDvY+yOSO9+HNmBVZkZEdmpULFq+Ax3H4ETFU4nCtyoRwYLNocdwumS5O/8ZKD9RuaaoyD+KPO653HNvv25b9AzqRbv8OywnP92YLJDeEu0vPdV41xp82z+P8LvW7WfH22/nL597b2h0QVwbjDDCTY3v++yofvSorfZTCNxOp/SiWxXW1IfJ4r4v/x8gOcTQL5/QsknwNXxyG/ydnMyIpq0nBrndlNhyfwhSIvOj3P3cxXUDApFdZreWM7B1dDvEaROr4vS+YyaRySAzf/tYL8INzOLE5hTzo8vCrb5A+k60bv/mfoFku+4/cTE8P7HCIXqkc+SRdYlzji80vFVCkmQOQfr9IdOlh2dZxR05KRDBlxMFa5k5C7lfs5v4NFIipUCI4MJRw9eYPkf1dgwIbdyb27bFbzWzlV8uvdLNgv7Qw/PqfsNWikZouxVztsxNUr6Eg0fW7cHIIJwHFc9nEezr0LwVvhEyDuT5VGN1Z/zJwKTT6dBpuY6/i2fW4Db98wjPrtuf1tbPjrdPq88r+fvn3muaeaPSPFYRzE0387BxWQ4pcM07u5LfQGibuEJeL/LyFOH5ZmdP81j5e+Zm5gXkpkaZB49OhdcAvYcRT64WISkFgWvSqUrTgsxmeF54v2ua6Gso7l0+yDNt8AhvbrefRZ7NiO4trOXsqZ0X3ow8CWDbbI8ptE3MToeOaeIutmzzsvVnmVDlnU5b5JG9YWAA+00Tb1oS4ZqYiy6rNGU3SHBdl2SwbOTpwjBGV/du3k9y/5gfskub4cljkcVy2mVhNvcw9DKs5fWOp9yy7j+yK5YnD8z8xOpBj3FNdiU1DRIXU58Q7ucsqtpMs7A8nSRwMU0TNxD1wfTOyoSJaX4JJOZ4wWIL6AOWy2X+8/B02Jom40N2KXK53BE5BqF96SlOsl3zzWPwEgPH2WPfjK1sfdBZ929OYh5YtzVvR9Sf0DGDq/Y954FxZw3K7OzjyTiPc7S8K5Rs16ftVZ+2Tr8a02L9eXwNbtk/j/Dkuv1pbf3sePu0+ryKv3rureJ9cTaS69gPZb+Ck+BH0uT+raMkjXznxldztf/8qvqc4nPU+qtObvwnU5XmIjbFza/OP3KZz2nHj67fd/mC3Ody9a/Gd3fjNijW5VyEG1/qlfk1brfnqY5t0DzORhI52fiuyyiJstgHNTFQ7sVqyMpanb6eBnE2GqQ/fcu+H6VJg9gk57ZJ0ouYK5kv7tKuj5yKeAWZz3jjFBcnStIkaf6LojzNzTtPcVYc5/ZnVIzPJI38KI2i6Ov9fhNf5tn3UxbDxneMFMPIvmXnFeO8Jn5I2dN+RT0dIzWcqGa8ndqvzO/6VQbnPi1mE53n8mr/7Hm8gIp5uvIbTqKsbet815/KdhpXtctANpbLypD4ztd7Iv8cS+Eu5/ge98bw/Rg2X/7+PyXOxr2YGV/j537IiK/3vS6OT3VeTdefNmvww/1TWDdbrN2PyC4f2tZp+uB4+7T61MlBTWWk3zD3VtD58+dPWqWI/Pfff1X/pFB8NJcuaKmLztmE3pBpIXJwZqs9X8PonncGGWDqE2LAcJwbs4k9YRgDBv5DrqMFbsdm/4wPeymRmlazA5nlQZSytCTCXbAZTm9OI/L2mGReeDAcnNnFMzLAXcB0WXX8mtu+r/fs47ihna6BE5V5cpIEps66zLZZBpj6mlG0K1wYhmzHajG2s6jeUOrC8DqfMaxq+k0KgsWcdVis08mzTXzhQc/xZyVjraxeEJhj1v3+4/b+vWnBRe8pku3dMZ0jXBM7rO4tw3CYlURGlyJgsTnQG37lI0XAdrNmnd+TifN7E1WONTKTp/pn6shcPB7o3f1+sz6c5PV0ogbukfNvHr8YufyaI3N7Aj8Qg+J9SNyOns8Xdx4VLh07fLgPFS34bW39y+rz2+depWwofiXCNdn0Xhfv4IvLC6HldtqVKaUgKTGX0nUd7VFXRDLAHTcQmJ5C4Hbm4I/o0WVQKQxDEy8YDyFvTQag+uK7RIgE/YnL9cJ1OQ6nDKwqJUwQuEcGlcpTOVngv+RiHBzZbDLzteG0uDDcpCZwFzB8Q1/nyuBw+s44FnD2HDeo+XakwB3n9soli+X1owFbip6mni5DRToptmwZ3G///Lsc3ik/SIJgS7d1WT4XGZjo61GNkv6FcDu5ucjPmmH/C/y2tv419flH5l6lbCgUCoVCoXgBLU418pO6Sf937Ex/Nr+trX9bfX4/StlQKBQKhULxEGeTigLFaNoKheLfRCkbCoVCoVAoFAqF4i00c32rUCgUCoVCoVAoFC1RyoZCoVAoFAqFQqF4C0rZUCgUCoVCoVAoFG9BKRsKhUKhUCgUCoXiLShlQ6FQKBQKhUKhULwFpWwoFAqFQqFQKBSKt6CUDYVCoVAoFAqFQvEWlLKhUCgUCoVCoVAo3sL/A6uIiGJuJLgyAAAAAElFTkSuQmCC;movable=0;resizable=0;rotatable=0;deletable=0;editable=0;connectable=0;" parent="1" vertex="1">
                    <mxGeometry x="-379.996748046875" y="227.00331298828127" width="795" height="36" as="geometry"/>
                </mxCell>
                <mxCell id="7" value="" style="shape=image;verticalLabelPosition=bottom;labelBackgroundColor=default;verticalAlign=top;aspect=fixed;imageAspect=0;image=data:image/png,iVBORw0KGgoAAAANSUhEUgAAALIAAAA0CAYAAAAuY2KtAAANAUlEQVR4nO2cvWvbXPvHP354/ocncC+hSIbbZMwQpC3DD2SH4slDoXiThhYsCtpMh+JNECRoB2szhQ6eTIkleIZsNh0yChesQ/HQoc9fod8gO/GL/CI7SdPc+oAhsaRzjqTvuc71cpLCz58/Y9bw119/rTuUk/Ok+NfvHkBOzn2QCznnWZALOedZ8LSFLALcQGw7CddQUQ2Xraeua8FVKRRUjJUGBGJjo4LADdiz21sC19jhPu8DgasWKKgP2V/Sh6oae7+Pffj343U1h3BRZRN0n05bQ1pzWmCXMT0F/A4Nbd1ZEo12B1SZch2iQWNte2sGQ787BMXBSumj35IxWzpOrbR66aiL6Q1RiBg0svU6j9ao0ivIqLrPoK3t3U4Wimuf54EENuYQFMfiobpIo7BT1kK4GPYIKFGtFvfradyibILjN1loQZbRpJQ7nor9xI+Zf7cicOlToSIvnR/1V77v23VG1Q7tTU90TT/Tg7iqTLe2RqiBQaEMftzmUPkJV0U2wYkGHDAnthIYBcqhs8eEz9C+p+/0TIRr0K+07+V+d7PIUoN2+9CuegAUNW2nlx7YJjjRqrjGXcwuFDsVFrQsV6gsnBgx8oaEJVjuUAQB0e2wugxROCEgCIBxj7LpoTgRg8au93Y4UqWGPipufKkiMKi3oNlpP7C1EwRCSulDELg2vdG660JCD1CgZxjTN77u1BBvOAQzZORvMTY78Htci20EBi38OSsYYBhjqlbjVryyJG2xKIlUT4qrZ0maTOLYRtjhEMWJsG4btogq1sL5w66NS5prEQInG8YgcI063XDjQBdQ1dbWc1p1g3Fn0ZItTM4NjEOAEf0gIH1tHdMqmwxhOpnnn5+E1lhvaQOjgKcsWXshEGve1cG2cY7sQhYBhg2Wtby2J0R2nV6pidVY7/tubt9FbZXoDO4eV2CU8TyFUnXJCu+NhCQBgY031PEHEgQBaMtjTqIVpWbRSHUtRnTDFIHP9dNoD1g17ALX6FNpr1/es7oad5NzHRH9ehlzCCglGPcYV6ylVQxAphOtfruVwKDsKTjR0j1FNrLspUyK+yW7kCXAK1Mv+TRXpvSYXjjEC8dYjT28RuGiyiNqkUU0szDjHi1PuX2hYgybLcrdWEIUThDTQa90httKHrAGBL0y5fLMtxOIqSgqnYgKIESKSmSLTgcQgsCu06K5MXi9Q6LIiL5gjUjvAtDKzu9+OjnXMQ3CZlQaVWyX9AmaFeGilj10P15zPzrNh3T8OcC1OClqaCtalRm3TDgpHhBIhHTtPrVqkYo8xi6HnPjLVqlEZcV6LqOhxRuc3MDGnFnjGXp1umxG9PtQLMK4VcbEwV+dtYsBbLVJE4iEQNqoqOnoqtDqi3QhiT6Jjiv3FJAFGGUPdB+fMuUQQKM6UnHFocFlgCGviWcekaflI0sNBrfiE7hqC/zBwgOKRkPgZGfBpEXGInCxW8mLlYVYWJGFCLDrLWgOaGhMY9Qi2uqsJWsAu4BW5aRlE6T4nKLfZYiOf09WLDDKeOj4bQ2MuSG0m/RUg2CwX9YlyVCAovvZ3QYR4Pbl+1kReGpCniMw6oyanTWzPKQl1+k5TarFMb2WSVhLXJ1xr4UZ1qYWdEyv6xGOqlTmlnxJq1DtjShV0zxuGavTWfzKa6GGaUHYEND3vEMNq9ai7gq0hZcZYJtD0JsHp/Qg8bUT3zURa7A0hnazR0F1s6fjREDPAxSHTltjPqNRKs3FDaMk0u25LuO7L+lOI+AuTTr7xlPz/Pz5M173ScePdYh1P+1YFDsKMWkHfT0GPU69bKkNX1di3Y/Wtq/oeqygxE50992sy8hR5vpfPLYJX08f97rvs93T2l5j/fY+EiJHObDN+eb1mKX2fZ0YxYmjePN3G4mcWFGUWNeV7dcd/Ix242mVqEWAocqUQwhbdVRVRTUMDNclCAQQMRoq1KqbMgX3OJy5AE8Isfo5uAeNtn+CWXeTtoRL3RwmVbFDmw4MCuVwp6yH1o5wMJFVA3fLTYnAQLWLdAYDrMd5DTuxt2sRjoOlZQpgzNpc+S5IGlZNJxxV6VjaahQe2Hic4M88gkggbrOnSabh9jeRCD8TYQ/X6DGiRKlaofIYNVatjd8rIBvghCZD3Sc+0G+cFU78aLBj4USi0YmgLmPKHl3doWk1lq4VBG4fKm0G7dk3T4cHyFp00Uv7Z3ulRptB2gEhCHpJgKYxpgWMxhHF6eQJxxERME5+IUpyd+kTSwQE0Zhxb0Q39BgOFRQAvUpjySmfTYXUwHJhnohpKjq7CDXLQZFNTHT8ziG2WBAY0zRgR4a5NOIy0e2BaX4ZHb8T4dt1yp5J2TNB0XGa1nSfi4TWeMRSZ0b2KIgAukNqnIREY5AqwwztJ1Y26o/pjbqE4QkntRLVItN8sgbTsKFU0dCkacpvOrHkcQvzNsuQHFsRc9SjXPZQdIdmJ0aTphH4xmEtKiKKolmZjJ5r0Ot6eEPQnYh2Fot6u4HKQQ9NynXmxJMBEWDYPUrVDgNNYpOIF5Fvc+UgIbUHRFUXuwfVFav8dNmjIKLRfqCEYVLNGgIKutPEsga37kVgFMCJEn/v0DVNaxPH6wqkSVl5RC3ZIFX18ZkKV5bvSuSyzKw8XW200RrtjCXXxHqWwxOcaFZIqFB1bVplGXNqDSvatlI8CNelX6zQXtgQk14gmS0im0r8ktZ4pJxw4q7IjcM3MD1Y+i3ZpVa8rb6Nex7bUlVSY0BUSckPBwat0KHT3uF2iyfoxUMK2UlZeScyuuAJSZqq1YVas0O8cE/TvQwVi8CuUy7LmACKjl4rUS1WkOVVN0dqNFLK4I+ICHDtXrobFyarVittE1GYrGJ0R/iHboTKnn7LQhT7jh4rEMOGNNZG/FjXl1I8kTOXfovjaPFg7DtO7Oh6rOtJ3zun37KkoJKLdk4tRZEf67oSK7oTp2YW06+KI1+PFWX6/CAGJdadLG0stucoe9znutacHdJvj8QDF0RmFqaEG1Wy+30EuMYYa2VzTZGa07zdh7BooJKgRJsu3aHuY+20TCooteyldUVZn4MSQUB/PAaKVCr7uGQSktZmoLVJ/lqlTyQ/Jb/1BL15X2X0w9htY31OzhPnaRVEcnL2JBdyzrMgF3LOs2BrsPe//z3GMA7k2uDoMuT1uw5vziWOf/d4ch6d/bIWExfrU5E3b7LmayM+vW3Buw72+T3HujdDEHB8fr/N5vwZ7J1++/65zFsc3mkZ/j2A6PH9ZggiYvIQlnOHjfY5z5PD8shyhfMslvXFmMv38Lek5ct/zr3y7IO9yeQpbTbMeSie3J86HSY8wWRy99uPTzKvPsPpa5+P9j2tAtcGR5clfl098O6Gx+rnmfDEhCzgR8QPZF68OLy1F28ivr1Jfs5dmefNYUKO+lxfLwd7PYKghJYWBIptfz8icbxPEPhj7vpcsf9IDhLy31qD85V0l4y47PMibSl/AUFUQstgba8tlUB7gHRdRiaeytn7u/9wcnRkLp2h8+VXm/O11yh8+DZAPyZxG155t+edfoi40qW9+8l5kGBPQvq7y6frlEPHGrbd4DyD1Ty3O8iXMkcXBteT7ec/FMf6gF+/Yn590eHUSX5e+KyK61gf8Oubw+mpwpeZiAHO2/z65nN6qvD6S3wr4n37ydlXyD9G3KAgr7Gs529qfL90uR/dSegfHU5vPF6dGaTNjyfNcYOrj00u36p4swcycbk4a/Hy4wA7V+W9cIBFPkFaZ1mPG7z720y3yvtw3ODjBwXwuPT+wHTascbVxybRWxXLMrh4O+LdvIXOOZi9hHwdeHBaYpOre/7G4furOSt0IMd6k9enOi//7w+t3h1rvHkJnz978NLK5F7lbGcPIQvEdzh9WdmcXThu8PEDvD+7L99Ww75q/7FWbOKpnH2t8e1XxMuvdS7+xJXlCZNdyNc272903unbLeOx3uHLa49XZyre9VN9cQLvosDRUYGjC/dBfPBrS+Vt1OTbVYNjJPSrAe+iOhfW6r+4ydmPjEIWeJcepx+sHSNniXM74sPpkPevZC6sYKHy9iSY9Pl6M/35xiTYpuQXJU5vTKy5iTmZBHiWytHRsisl8C5ULmlytZSOPLcHfJRbXFysCYoz9ZOTScjXVp2vL6OFdNF2JPSrmG8fFG4+lzk7K3BhuQe4G4LJZPrZt4l5jiu8PJ3+fOqgbZuhxw2uvjlwKSdW/KjA2VmLSG7ybSGAC7COZN7fDLn5XOboqIA1myTXRnLd+yE3NyZnacLcuZ8c2OGPT2cb6yeeyls6GUW8xMTFemvyeWYBUXj9ockbPeM+iIng+r82l189buba+pC/4H8sOwn52jMQkoV+T9W1ybXBJ1HNLuC0tjyVs/fw+svvr/7l/D52tsg5OU+ZZ78fOeefQS7knGdBLuScZ8HWbZz/+c9jDCMn5zByi5zzLPh/8Eh2PvuQ52gAAAAASUVORK5CYII=;movable=0;resizable=0;rotatable=0;deletable=0;editable=0;connectable=0;" parent="1" vertex="1">
                    <mxGeometry x="-284.9988745117188" y="-99" width="178" height="52" as="geometry"/>
                </mxCell>
                <mxCell id="8" value="" style="shape=image;verticalLabelPosition=bottom;labelBackgroundColor=default;verticalAlign=top;aspect=fixed;imageAspect=0;image=data:image/png,iVBORw0KGgoAAAANSUhEUgAAAwMAAABNCAYAAAD6mLiiAAAgAElEQVR4nO2dO7KqTNSwH//65vAFbwoGliNoRoAmRqZmEGpiZmhmAqFkpkYmwghkBJaBdHiSbxT8Aej2ws3b3ueynlPU2SXddNP0bXWvXqv169evlAr+++8//u//qkIIgiAIgiAIgvAn8j9NAv3v/346G4IgCIIgCIIgfDf/76czIAiCIAiCIAjCzyDCgCAIgiAIgiD8o4gwIAiCIAiCIAj/KN8sDGh816LVal1cFpblo98aRxAEQRAEQRCEOr5VGPAtk8l+SJKmpOdrx243xnhjnI8TubQsv1FQ32rdCDLFl+WLaCMIgiAIgiB8L98nDGifdazwVg9M4p+J8xvihBeCTOgADuGFcOOpn86hIAiCIAiC8C8iZwYEQRAEQRAE4R/lcWFAR7jWtQ6/ZblEJVoukZuHMyfExEzMGxWZAnWbZ+JkWfOv82ZZuH5E5FolajiaqOg8guujC4JrPw/bCyCeFKj7uEQPFGUtDcv6nK+Wha9BRy7WVXlZ+GUfSBAEQRAEQfhneUgY0JGLNToyXe0u9PdTdqsBm5GFWzATtpd5uMRDofCS9Cpuuhu/JQ6Ri9lb05mtLsKtmLJhHsTEh6Qgiklv3yVMkq84yYpZ58BoZN1Nuo3x7kvVR3nXeUpT0nSJ/UiB5rS70G1fK0I9UtZZvkIc4LCwMOcwu3yn3Yr2ZoRV9IEEQRAEQRCEf5ZGHogB0D6jHszSAv19w2a5A7dl4Sc7xj+m4N+lbV8mbmCMl8wOAfOOeR00cuntPZLbg8iGgT1eYrddWiO/WPB4gPEurQ1jL9NrIeLpso4Jit4JAzuLhBulLJ+RWARBEARBEIS/jsY7A3q7JnYGFSvfNgMnZr39IXUUe0kSdthcqdVYWJYL05TdjYQSbQLUsF9+MNme4sRrfsLIzytl7czKD1vbA4dg3swKkiAIgiAIgvD301gYSA4x6nZ1vYAidZzvwrDHLHeXajW7s1rN7aT+uId4YlaY+zQJiPmJ13m+rBUNogmCIAiCIAgC8IAwYHZUo4l+k0nst2LYLGddJqZ75aSs3QXlJQV6/9fXT6jUPF/WPyO8CIIgCIIgCH8mjYUBoz9EBZsKazkRm0Ax7P/EgYEIt9UqPMBchj31YLJ4r/WfN/FKWQfzcs/M0SbAmb12BkIQBEEQBEH4e2huTcgYswphbrlEN3Y3tY5wrTmEP3l4GIKehRvp68mwjnB7Acqb3hwUHrPy9swtF/82Djo3z3mvXgSA2UHFE9wLc0NaR/iudTbv+RJPl7XCGx4Y3cXLTKjOCeXwsCAIgiAIgvDFr1+/0qrrjiRMHaVS4Hwp5aRhch80TZPUU1yFvbuc8A1xwtRBpV6YpKHnpOoyvnJSrzhzpe+DUqnjhWlSES1NvNS5ymdFnMRLVdm7KO+hvJWXdV4GSZom4U3elKouA0EQBEEQBOGfpPXr169K25f//fffe6QO4cNEuK05nR817SoIgiAIgiD8STzugVgQBEEQBEEQhL8CEQYEQRAEQRAE4R9FhIG/AO1btFo9AmIm5slPgvtbWkoSBEEQBEEQfh/kzIAgCIIgCIIg/KPIzoAgCIIgCIIg/KO8LAxEvoXrR6WOrrRvYbk+0au29++fjO9Wp/0UkYvrRuiqh2ofK/dP8CcSuS1a1hv8IXw9EMuyrvwuFATCbRX4gRC+hahBW4ncT7XVJmgi38J6W6UsSaWyYV8G9LFaTfoXjW+1Xii3zGFiy3Jr4mftx3p3f/cUGt96b13Rvltb1tp335CmJvIbPiPK0vv58haeReu68SbCLfQ1JAg/zDfPq/7nxfhwiAmCOZ2+XWrSMg4mzDt97HfbvNzHBPsNg76NcfNoHUVg2zycor1kerQwzTlOuGJp3z5B448mxDgMn8lzbedUQLJg1AvACVktn3inIrqz0u+lfYvRYdY4LX3cE8cwNCtCRxsCYphvmdriBfl7idgEMQFzOn2T8W1jyTE7EE8OHKdQ55tO+y6j9f79WWWExYzd+DoHjSfxFWxHJpMYVJN2lByIiem2zepw0SJ75rDPXVfRAO3PCVB4q+V1fO3jJ33G+Y+R2yNQHsn4Pt86ikhsu/abvQ+DdjcmZvbUOxc+cTylY5mYa49kNy4sc6Od1U+WABG+D/2C8qjjuJ4wWUM4a1eH2+yJgz2LQb9gHBB+Cq0jkqRBwM2cXhCDcghv29clccDhOGUsDjmF34jvnle9LgwAqCH9yr5SMawOUIiOfBbzA53Z9Dwo3tEd3DfyyMXsBfWdQAnGeIW3Npn0FgzS5fUgGy1YUzxgaa0xSiZaXyRst9CuHoduGDALB1ns2jQ0vrvgAHQGA4qSOe4BjkRlJ4zbM2ZtSCKNUVt4mu06xgnTSv8G0SYAHMKSgV74IPrIHlDeqlQQOKM6NW05wxgv2dX2PRFuq0egHLzV8jX/F0lCgolpXvy0HdGbdAmTKeZ9BLajHhM8wlUfE+ivEvqn/Nckp497wGFQU/+jTQDKY/XUy0UsJjEoxXpksb67v+ZwXLHsb5kHCseBre/D4cCh06EDcDiw3u9hvoEn+rpKdESEiV3bp70Dg/HMYdI7kHDxfbTmbqUHAJtx38dqzel6K5aPln+3jW1Xz/7M45yJGjIVQeC3wjDM0x8X9cTHMtd0wxVTO//dtkmX13FLq1NbvrHwO/H986oXhQGdTyw/g2GPWZoRrmnSajyxj3AbCQK6UhWoP3Q4zKaYVyv5WxabAauVebfCn01M4vpVR8Nm/NGFcYPxclkdZANQMBjqiCgxsRsIADoCbANDbzl0Q5YXj9K+TzIefwlR2mcegBMuC1YvNdkmjnTGnyJaZDtZ4Xd7o4s2BDiEu6Lv/hhG1S7f5aSgALPm/j1ZR4wzq8639pkHCi8ZX01edcP0IrfH3ktIT98lcmnNuRGcIlzrwCzZXfRlGt8asabLbLVk96nPmmzo9YJmOylXRLjWpmIRRxNFRUu7AzwPiKLMEtpxXt2nGmNW3hpzMqLTf9zZYt1uU5PFZ+EnMG4m9Pluvcp268urgc52B3lukVAQPsvPzqveszPQbdcMFDGHq+WeBzBslonH3pzQG3VKt5AzNL7VY++EJA0Gr+12S7tsib49YEBysx3ZZjCApGiPsj0jDLM/61fvP4+OXEbzEkktBphj7eeFt+fHGaua7fft3GQyd/CGQAd8/5jdOKyZBDGsOX+rbDKq6B59TsFOHNYTghvVDe1bmJMYUHh/mEdl32oxiQEcwttdpR8hYhOAcgY3gm3Cwuyx98Lab11JxeQ32uzxkl2jMmi2q/ZN6C2ZLHDVE+Nu20zPZZVNQPCS6/ppwNayOMwuViiLkvAt5p2E3dj4Wq20Bzi9HodkmfeVGt89Mt0t757TX804mD3m2+nj6pf5Kuqwrm2ZHRSK4bRh/dCaaLtgs94TxDGqVPXCwLZBc18+V+sTtk1as3BijGd4bfOP6iP+NLL+uPuh/izbPSRMryY+Dz3BNZlc7tZHPu7xsq1eo4bTbxIENL47ysbDr9RRasiqdB7zTBzhb+GT86o6XhQGEg4xqOH9Jv05xCEuvdeYfAVodKgSOjSRO+IwS9g1aukG49oleo3Wt6sQt0F83AUMpuPfaqXBsJfsSjrXyG3RY8autvetfn81nDK+HYU1rAMYrvKO67x6Wjzx0KwJ4i6ziwprjHek4wi3VSys/M6Mdylj7WOZh5/OCnChkz69aaNJpjoUTzZsK8771JIsMM09St3fimNQ+yL1l6KwMTgh6bMzglfRPu7ikKnWbdbEKIZEZ1W642ZCEChomyxtA+2PWHdDdncFZzDerfAtE3NevAKpfZdFe5X3UxELs0egFApAKZhbWBdVf23dlmBMHCucsGlfd5V6torqhG/ZUdA6YrvY5GqJU/rjJcu+z96M6VaqXhgYlbsoTVe2bMb2qUynD+n2NxI+4xu1JeHN2Ew9hdlzmab3Qm8dJ6E6XV7EtMcscbGsDcNX1RNfwLdyISXdNX6vZ+J8nMilNe+Q1uuFclYNLbv9pOr2H8lD5fbFp+ZVdbxnZ6AOpeCoeaUGGOMdu6oAOoHpjuVtElpnK1AV6kK+ZbLuOnRvb+0DgljhhbvzCpeOfBLzeuK/DybsaWO+63BvaVYj3FGPfbdA2tMRhTvvBdSeGQA4bphPAuKXVuc1/mhNN/yzVvf/HjKddOUld2cF9HZNTLbF+Pq36TK7UQXSvoXJ7WpWySqg9rHMmO7gB/dRjDEn7bpo0wMnZHxeptYc54AzywUBi9F6yKpQ2s7UD/srj7U5oWfub9qPhv7yop8y6ShQw1WBYFHMqWyf0mWPFkxihbd6sqx1hL/dsM77kIR+iVqiolO+RpSRC5KON8zOP1ySr4QpL2R22LChQ4dsp3Pj+2zWa/Z0GQ47wIHDATgs8M3m9VnUhJqRLc588vkznEmPkT9t3gZ0xHYx5zBYkWnt3nxLc8pquMA0W6y9pPFz34b2Wcc3KoSfiPPbYbNMU6a+hXmY3S3u6MhlZFoc/7Ad/9+Lz8yrXhMG8oOJ5StA+ZmC7pDOYYumeSXXkc9ik6+ung7LXXHggELtN19bKRw53oRZ105oDdpdiBncrZRrf0/AkP7Fz8lmQi84ECaX0m31VnqmsgPdO2mDs8ChnO6XMLLPt9mVcx+n69Blw8I3rw/NGTYmmnt9yos89AJwPFa7lNq+3baxxzVnD2rQ/ojDbPf09q/wGtqf5xZo7iTkXCc+vP828ZqF32bQt//S1ZtM355VWX+QqVU54WXBXOyAap/RJCYmxmxNyLbwodvtQqfDIFc7NM1+rs9+qyJZ3D7j9Yi7DYBSYnjKlpnGz5RMHxpEDlsf93AAOgymfcbjJe1DQI928eHi5NAsh2YHBQwu9WBPRAcmQZfZ2Cb7d/otC89hQlBgdertqPuRR3g3NgMHgskCPW6yO6Az4wAxsB+x72Zj536/pzucMWiDaZrQn+KtAyYTE7f9vBqS8D4Me8kudGmNfMYPrpgLGR+bV/369SutuqpIPJUCqeMlJSHC1IFUeUkaOk4aVj7tEySpp0hxqlMOneIwiadSlJcmVb8lXqpQaWkR1BA6pHBTNqGTles7CiwJU8dRqeN4aXiXx7x8UKlzf7Pqoamnsu96fysvD887l0noOalX8vysDhXVjTB18nJNQi91FCnkl1Klz8seGqaOUl/hIVXKKXj/DO/y2XmhJ6GXqvPvqvBbXIe5yFfiparwnZI0dK7zBSpVjpcmb87b6Ts4npMqlZX/dZ29r19fdfuUzyxvlVUjdAq/3+lZYZKkyfnK+oO7/Jbk5/SujuOkjuNlderick5117u/53lOqri/7yiVqvwqrPNF73PbxkMndS7Ls7xwUs+ra8QVbaksRkG/1DBiaTlf5uerzLM6UJS1sj4zv1nSpovyUxKu6BkXv1WmX5dsWWOrixc612NdXp5Z2/RS79y2T/2Wc76vnOLvlfVtN31VSdg0faWv+srLZX+YjT8FY9Dlu128UzFZu876QC/vfy/7Rad+fHx0zEtu21+eh9t2kXipUl7+bkVtraRPOsd/bCz5Ks+SS3lviZNl7abuKJU6XpiGjirpTx4bf07zu/KrvI0nnnq4f/ietvBIGTxXr58vt++YV5Xz0s5AcohBeQzaCyy3w2p5s/IfbQgAp21gsmcR3RwQ+53Y36vNHD+u9p3vnKhOgWnEF4l8rN4EHIds3eTAZuGyyXdZDoc1QRCjHI9w9ex5h+TeItNpb70/Pq8+2uMpR8vEOt5v12ZnSoq2TDIOC4v1vstwlpDmmdQ6YjEyaW3udcyzXZgOq9WNypiOcEcWmwKJepzvlGjfwjwc8a056+6M1SrNVnEjH/d4XXkjt0Vv75Gcwlzky+o6he8SuSa9vUOYrL5WVPNDl6ORxWy1u/sOz+QNIFpk24hLG+j7WGZuRSNdwmJCrDzKNUUM7OWOdJqppfXMCcoJG5wxueXAMbk8oJ/vJD7wBMMel66ARIcJQdwtXlnOlSxjhkzHF/1SzTmhKNsWuFZ52q6J1ZDV6SH2kmZ7Zs0th33HzkCmGuYwK/2MmsjfQj9XmdI++6Bxpr6ecmz4lZMDMXuORfqKBc/Qxz2oISZNVXg0kb9gc4BOp2aF/3DIzj2UhTusc9WozA/GamxjGGN26TjrC4IJayckSW3wLUyzxQSFFybszATX7DHq9K/6v+xgLjjejGT3dTA9ckeYFoXGMl7qq5KLviryGZkWKFBFajT5u+UZxTKr6kGmGrKMXFrzNdYIupf9tW9hZi9UviNlD3AICDYRyyaThJKzJmrYv/7dGLOr1C8u55mxxF6mmTnTpof0n4yTmU/f44WrczmDRvsLRkFM7NyfdHl0/Dmrhz2p+17GqR3fqZV+S1t4pAyeq9evl9vn51VFvCAM5FZKvD62PYZNC7O1vlLH+bLVDYY5ZD/y0fZvqg/XbWdbi5d0gA+aTj2pH+DUWWN6AnvMzFmz6QwY9M2zecXMd8OafXdImJsr1L5P1O8/bk/8cCS5NcZUKEGdbIg/ul0bEwT3VnkMw2a5S+hYJpZ/0RC0z6gHs7Sgjhk2yx24LQu/qrMN1hzC1fXBzJsJqfYtenvvrpGf8pUdArsRCCI3G5BvOzXDwB4vsdvZ1mllx9Egb1n+XDaD1dfvxphdQnaoOTqZI2vQDi/KeRLM8aePHjTu0L8xCbp5JHoT3ipIR2wChZdcDVNs1zFquLp4j0zV6JCrJBSxmfcys6oND8s9fGbg8Tl6vngzrCgvA/sNdo/r07lADWmbZjbB347oHWYkUxPooopUdHLLdc2EgbxtXf1W7KxM+xaTSZcwLRIsAcbVqpWXwnJ/iJpwMakzMjWYG5N6xbr4BvZyhtOas9Xj6vbWpD8o6XcM+9QnxM9pnJUR87UIcUprvCM8tJhv9f3ByK+M01HA/ki9y8OmvGC2+h1jycfp0r56NwNjvGR2CJjfHth5x/jzMhodLciMsN2MnT/YFhqVwdP1+gk+Pq8q5nlhINpkVkpyD0X2MsQJekxMl3a6xD451DnZ6jb6DDFZROUrfT/Nt5s2zM9cOB86OGkvT2YdNVHuMbY7nDHdXVsqMMZj8C1a6y5elYO3Wzr9+47WPDKfFEhQ+crPvuggecWErtiGLoBBf6iYrLfn1V69XRNX2oa3GTi96sabHxKtYruOcWZly02nBnr9a7QJUMOkfAJuT3F6I/yqTq9B3tAR2/byvo0ZY3Zpdli+elfgFoPxLqHtJ1Q5Qvx+TueR3ihIRxsCNSS5fOD5wO1tKjHBAZZlOusbCPadxmUWrxe4TXci9zHE3Yet3Jx8wrz3M2oid8F8n5+J2geZSTuvX5+OvSQtKD7DMMC4t4aWHGJU7ankGqINk0nApMLTcRGfMX2brXzOg5grQ5K5aa7a0woN+oPKfscYM1STRta+GqOGpeN7XGNfvN2l0eJbdp4QrjdxDpl1tPUCPy+5w3rNHphvZg/6yXjTWPJJ7CVJ6LOwLHrxqfYolOoyW6V3lsLeMv48StCjdWNWSDkeq2RZcG7qh9sCVJfBC/X6Yb5hXlXEk8JA0UG0zERYMAnYREtschWh80Q3myS15j7TxrsDF950O4MHvfYCHHlE0+fWIsGnrUmcnEGVb9uXUb/iobUm2S6YrwNiHLzZgNks92IcRSTHI5vD1wFtDuCwZ9IzWT+lElKHzcALmb6x4zTa19tgTScLrzXeiFpruWYHdVPzjnuIA5PWpDpqwe7uYxjlq/faH2UT24etVRiP27IH4MA2ii68YD+uJlRKkS+AVzEHeN0NC9fNzGTaBknuYfgJB+oP4cwys5hnlY6bieqlrXczAo6D96sWPoWBvVxio7Mt+FjhXHoErjEfejaleLUal/X7DC4XJrKd6G742oeo9thZrLJ03Mwzy0YPO1+rzAmule8eXaosAFr7LJ7Z+inguIfuoGYC/odRrDoYcZgEcGmW8YVdru8ZS14jK4fxtcpirsJ0vDGQ8G3jz9XDmpqK/r628O1l8HHeN696ThjQW9axQ3izdGOMV3iHLX1T44+Ce2sl9hRvbjLy+w23xBt4063E5Div+fIn9kdufYl99sxANrjhDJ7YFE04Hs2K8xe5p8V80qoUHDZHGLRpY8LGpEdIurzsLLO/B26L3v6I5v1mUu27VdTXPFhnamhfawZmRzXqnF9bXcy2syurRm5N5ZJ2F9TwB0zcncit4NS5N38vnbMKyIl3zT2i2nMPT2DYjPMOS0c+Cyt33OI9vArxSKKMd2n+d7PdDsO+2fnRERH11p9OK6+ZzbE3cNVPGF+6z5dZ225JxiXCZ7RgEjuEuSrG11KMwXjawTLNL7OQ0SazjPXS98773NIVs+5dfQUwpyv601PO3kPm/+Ne1RDAMN5X39pdWFeY9b7pQn+UV8aCd/M9Y8kHMGyWsw0t06V/4bfhx8efCr6zLfyuZfAK75pX/b/Ho2ROa7qF6hsG4+UYtqOsk7/XVWA8c4gnI/xqE8/fT7eNbdtXV7+gk3yLEzUgcnNJ+JkVeH1kfajatzAYrxKSJCVNPLrdAdPlmLFt3+8m6IjIj84Dsb1MSb/b02HF5CfouRS7Q9C5us5XB2L0h6hgUxIeTjrhwxeXeftDRTD3S+7mu2Y32FMPJouKvH0Q7WON1nRf8PL5LKZhYJyvNz305HBl9bl6atj9bI7kOHTXPcyWhRu93mlpHRFFZdc233U63t3bHgD2zF0X9+qyaJk9eqaFW1O5zI46O9F68S0Ah3BVrwqUHNYcC4stwp3v8ZISNUBjzMyBeL1F523KmVV97wi/ZlA5m9pdtVlYLoWf86q+3l/vIjnE0C2e6GSTo/dgD5y8DAsTYv2e4ewN5DuuJWXyLtqzhFWDyeB3jSXPEeG2WrXt/ZIfHX9q+La28BuXwUd4UIX2YWFA+yPWw6R0UnHezi7r5O0pnoqZmNbvJxA0oePgzRrow1agfYteoMoHwjoKVp7vMAxIXCxzQrCfsyibyBg29tgk8V0sy8L1o/uT7B8jqVG5UTjOnp7l4l/kX+sI1zJZd292nowxqxDmlkt08xJZnDm8wVGHMd4Rdie0LP+qrM75Ivcmex2Jlbdnnr/LTe7QkYvV+kCbyAWB4epv8fcQ4ZqTDzuyy1ReJngkyyXLXYKnYoLe6wOJYdjYpnm38GDbNjaH3Fv0uGRhostsuWR5de1I05Q0rf++mVpdwObl0TBXDaqdHJevUEXuHGbV39CeJpn6UO7tue79DlULJJGLOSETIA2b5W7KcWFhuX6xUPBh7IEDwfxKwMz6j+xweIFD7ycTWhJ2J5i3fVXkZhaC3pbQi0S3asVPckiIogj/QmD2z2OagW2Xqazd8E1jySsEvWyB4ip3OsLtBShvemdV6enxx+yg4sldXfVdi9YbxqxvawvfPQZ/uNzKqZtXlfCQn4FbO8sFtk1VI/vXX/ZblRcW21++sk/+7BW+3c/AXd7CR/wM5Hb9VY3t9pONZ6egbE7vBBW+AXJbuqrYDm2pje4k/LKVXWFL+es9nNwe+eVVZps8SUMvTMMw/Co7r9i29Jed3m/wM5Dbty6/yr9ttZ+BU/1ObiPd5e1kH/rOzvELecvKW1Xaab6L8Yz9+pPN6Ju2F1b6GUgK2lADG+N52T3a1h6zKp+1HXXX9pLUU86VvXKUKqj/2aUeTTuvM2X+Bp6xG13wlEb94W2eqvr8JvHv+rvQS0/uF5IwPNeR0CmwTR46hWPKXR9W5bOgwhfMdd+iUu+ifyp9rZON+zJb/Ff+B8Kv/N602aL+w/HC9Mq++eU7vtRXlfsZuO+jbt+rLq2L/HIam8qeVeG3AqdRe0nCMA1DL/Xy8Ubl/alSTup4eZ/T4DmXeX+Pn4Hk2vZ90XXvZOWJOLkPnjBJQ8+5qUPltufL3qd0/LmKdzMGUxbnvi7c1YnCbH1fW2heBq/X6+bllqafnlfV0VwYCL2KQSFJPedBx1XJyUmIkxXO7W3PS70we8nnr/xDVJbK7QCZOUg7dTCFQsLlpBkaDdJJ+OX8qQn3jjGur7IO6eQw6DKdJMwc4pycLZW91zm8VxemgXOMkqjJneOOJ5wnCZVkdaBG4CyK98yEs0QYeOhqIAwkoZM6RcJxeYzHhYF8kKjvx+on1aHTMO2kWnA/B3uLMJDm36u5QFXXDzW56gTSywn5ZZ+ShE6BUJbfO/VRl30a6n6MSrxKJ1Ff4U4Tq/r3LVvA+hMpFAa+Pxdn56T1XEyeT3OHh7Kf5POCy+/8vNNQQXgfPzuveskDcZrmHflv2zkmqefUTcBLwiTZhKryvUKn3kNrcpqYfbqEkjT06vKSV5gGg2NysXpXmFb42jcPnRuvuMJ7SJIHB8cvQofSyVdpcl75hO2Bh5QLL0mYenX1uvih5zrWKHTopV7jfixra17V6nFYNUm58PLbcDLztNfhgrQf2h34LpLwqo9MKrxrXkU7C5XFz2z6/auefb3A9Hf1WI96v/4EJ0H3EUH/LTk+eWn/y76p8Kfys/Oq1q9fv1Iq+O+//6puC4IgCH8SkUurR3au6+8yrCE0RhP5I3rrLslu+YOWFCPcVg9+wLiBIAhfiDAgCIIgCH8zkUurd22XRTkeq+U3W44TBOG3RIQBQRAEQRAEQfhHecLPgCAIgiAIgiAIfwMiDPxRZLZ33QsnYd+WbquF5frfnK4gCIIgCILwSUQY+IPQ/pwgjtljfqOep8a3egQo4LPeIQVBEARBEITvRYSBP4aIxSQGJ2TX2O2hftGbsMa3TCaxwkt27KZHFrI7IAiCIAiC8NcgB4j/ECK3RS9QqId8c8fEscIJVywftSGoI9xRjwCPZHdhcUJHuKM5zJ54piAIgiAIgvBb8T8/nYHfBe1bmJMuYbrk28wdax/LXDNMdlQt9mvfohdkq/ONNwXIBQiGTB+ctOvIZdTb0/US0rGBjnzcY5vp2KKluHYAAAadSURBVMYwbJY7k8gd0eqB482y3x9K4e/is3VH7HALgiAIgvA5RE3ox9D4owmxM6ue4Guf0YSHBYHnshThuxbmHGbJjmWeoGGPGRx6mJaLrwEM7OWONJnBuofZatGyLFzXJ4o0WmtRJXobNlNPEfRcKVNBEARBEN6OqAn9FJFLq7evmeRHuNYcZkPYwGDaxywMl7AYzenMVowvdgEit0Vvf6PmU4gm8hfM1zBbTbGNotDZCnXghKS3S9RaEy1GzIOYGFBOyGpqU/gY4Qmyst97yQPnRQRBEARBEOqRnYEfQePPA6jcFcgEgc5qx9JuQzBhk1Q8Mo45FP3ebVcIAprId3HdLfSX7HbLEkEAwGYahiRnQUDjn0ycGtlOwS5NSZOE3VIEgfdiM3Agnixkd0AQBEEQhLdSLwxoH6vVotVq0XJ9fNfK/m5Z+DrTLz/dL7NDryMf1zrFqw4L4Ftf4VpudH6Gdf7dIv/5Jp2vvLRaLSzLJdLZCnn2m8tVtMt3u3inYjJb+61Wi5blZwdpL/N5VqFpgN6yjsEZlCmBR7jWhsHqdtfAwDCKLgBFx3xkBq7REdjjJcvlmNOGgo5cXMvF9X38m2t7PLLN/3Ytk8mkh+ne+Dy4lAKk7uS8XnfsgQMELAryLgiCIAiC8DS/fv1Kq64ToUMKpMoJ0yRN08RTKZCCSr0wSdMkTB1IlZekl2ThVOp4Wbz81zR0VIry0uvQ6X1cx0s9pbJ0T4FDL3W88Cps6JA97+KBSeilCpUqdZ+vgsRShUrrgqWhk6JUqpRKnfDijfL3rI1/DuukYfHdNLwqqzRN06xsneII+f3btJPUU6SUR3qexEtVwbcuzZ3UnVNCL9SdrIw+8j0FQRAEQfhneUwYuJyIFEyA7sJUUjSBveY8GQxrZlmhUz45bDpxfWRChyqcmIdOswnyefJZG/Ico4EwcHv/U8LA45NSqTsXab1QdzyV1RtBEARBEIR38Q2mRTWR+3W49ITKDeZ36qI7s1p79tEmQA2TYt14Y8xQTVg/kONa1LDUzGN8SKDmuO5xn2ftwWT3cxd3U3iHPdC9+i3hEIMaFh85fg5N5PYIlHc+O6C1xvjYAQGpO5e0u8D+nZkRBEEQBOFf58PCQIRr9QhwCJPV1eFUrX0W5numWcc9dAc1k6i/gO5sWTKR1Ohp/v9J9zw5ZgJC+3QYQKMNo1YA0b6Fue7iDUum2h0PrwNb34fDmkkQZ9aDlu/2NSB1RxAEQRAE4dN8VBjQ/pwAj3Q3vrtnGO23pdPuwvqooWQV+LinwTLy93Fa4dU8vjtQjHE+t6sjn8V8QhADymN1Eh6SLVvGzXwVxNDejesdaGlYBzCcvt/pmNSde46yKyAIgiAIwpv5qGnR5BBDt3jilk323oM9cIjX22ILM9pnHRfd+DnMjoL4QJWl0Gcx7DHLVYgXJqQX/gX0cc3hEwl+CKk7t0QcYkrLRBAEQRAE4Rk+KgzYAweCOW70NdXSOsK1LMw1qLcltCTsTjAt/0tNhtxc5FsTeg9GuwsEbD5lJtKwr5yPndgf/xwr9VJ3bog2BFSZoxUEQRAEQXiCWmtCuUUVzlduNeXy99w8ysmE5KWZxCT0UqUu4iuVm3bMrdLcWqYJnYu0iq5yqy1J6FzlVSknDZMSSy1371WX1kV+8+uc7bIyKuVRSz/Fpjebk6fXwOLN2expkqRJ3RXWWNGRunPK2Mt1Jysf5wELVIIgCIIgCPW0fv36lVYJC//999+j8sVvR+S2mHcSdo0U5r+JyKXV2+Mlt47FitGRy6gXEPNlTedMt3tlSWi/v1Yuj+Nc10U5hKtlmXp8lo5vYU7AC2fUKqQcN8wne4YN3+FP5PeoOxFuq8fe++l8CIIgCILwt/ENpkV/nt/pEOgZe4qnTCaLiHGZrckLDHvJLl0CmTnPexKS/EzAYDDI/jBNzoZFG1gSOqOG9O0Gh4LNI/PJ332q9XeoO9kZCYdEBAFBEARBEN7MX74zoIn8Eb11l2S3fLvFm5eJXFo9CJPq1XrhJ/hd6k62K0CYlvonEARBEARBeJa/a2cgcmn1ru3MKMcjubCq81thL0krRTHh2/ht647NUiqJIAiCIAgf4i/fGRAEQRAEQRAEoYyPmhYVBEEQBEEQBOH3RYQBQRAEQRAEQfhHEWFAEARBEARBEP5RRBgQBEEQBEEQhH8UEQYEQRAEQRAE4R9FhAFBEARBEARB+EcRYUAQBEEQBEEQ/lFEGBAEQRAEQRCEf5T/D3soHVhPeikAAAAAAElFTkSuQmCC;movable=0;resizable=0;rotatable=0;deletable=0;editable=0;connectable=0;" parent="1" vertex="1">
                    <mxGeometry x="-379.9988745117188" y="284.9966259765625" width="771" height="77" as="geometry"/>
                </mxCell>
                <mxCell id="9" value="" style="shape=image;verticalLabelPosition=bottom;labelBackgroundColor=default;verticalAlign=top;aspect=fixed;imageAspect=0;image=data:image/png,iVBORw0KGgoAAAANSUhEUgAAAcoAAAA+CAYAAACr6FtnAAAZx0lEQVR4nO2dObK6zvewH9/67+KXgoHlCmAFeBMjUzMIMTEzNDOBUDJTIxPpFcgKKAO7w+8+eAP0ijKI050+/VRRdctL081wejh9hs5///2X0cD//ve/pn9rNBqNRvOn+X/f3QCNRqPRaH4yeqDUaDQajaYBPVBqNBqNRtOAHig1Go1Go2lAD5QajUaj0TSgB0qNRqPRaBrQA6VGo9FoNA3ogVLzy1GEno0XCtQrLys8PE+gmi6qQmzbIxQvrfnLEF6Hjm0T/qjmv+l9ah5DeNi2jdf4jQu8Tn7Ow+9MeNi2R101KrS/Vdb0QKn5/aQJ0XqDrJAhJR7scJ0l094c06zrJBTheELyyLUBlELdewgPu9PB9l44iPRn+EZNE0P7tXW1peF9ar4WdUhJEuiZNR8JgNgQkRDNtw/XIzYRyQ1hShLoOg3teCP/9y21ajR3oETIYr6nN5vi1wlKf0jpX8LDHERgucSrZfn/NzD8FcHaZDJYMMyWOBfXXrAmQO58ri+rlMIwblUm2W6h272nRUNm8TAvfbMORegt2AO94ZCqag4pwAEhai7RnTHrghQK46s7qKr3qfliFNt1ghtntZMpyAc5cIkrZKFdNSHzCNz4hoxaPcyKNob2mP1sxfKNH4weKDU/HsPxWZoCzzTptB70BF6rQVI1qlc/Ri772RRTFdVKWxabIauVma8MC+fL7ZjBJMFyY1ZLp77jMBx8/9Y9PIOBv1w2n7IB6OI4zuXvSiCkiaNHqn8QhRKAY2CoLft+zLLweagwRPr+edJYHOQqriUEN78jtV2TWAErB1ToMV5Dv395TpomkMDC25cv0O/DZkFIw0T6STpvj/WqQmyzqKKyCOSucYZyWdzGnPSJr2f0mn+P07dkFVdyitA2mfRjsk+Jzn9b928MVqdzwy3d+5Z27TBNnJsry/eihMd4nlb/M0lIsLCsmsKjGSv/1vN7NVXv847SoY05Sbi3n/kJhHaHSQLgfmN/d3z+uAQj2NOjd/rXfs0kSqAgf8LrMIgs3GB0Pu/z9AlRwo1Jo8DrDCDOaHrdwuswSKs1OF/Cf//9lzUdL0UGmYWVBfKeIlYGbha/tiXPEbsZVtDq1MAig9uHdc9D+YeRgZVZbvFrkPkz/vxNZrFrZW78yucpM3nrcjLIXDfIXlrtm4nd4nNrosX9v4zr9/kIcebe2c/8GGSQWd/a3+XPv7I/uu6/b/TnbfruunNkfClLsUuGFWTysnDmule/vYkfr3o1/B3ZW1VU78ctzpaERz6BOs8YQ7vD+rsa98sw/B27phOUhOmOZXnjEIVB/QLvtAp16V//K42IEosg3uEfX5oSIdL0L1S6aTQhpYt5cxX7JErgjQekVStmJRCy3WVu7lECHDbMJxHJD1qhqdDGXPcf2nfWvApFOF7Tj5/4JlTIeJIACfNwilO4kNxMGKQQz46anmFMPAQpBKfP+7BZE0XQm/pv/y5//ECp+bdRImSxOe5L9Hol9Q7s2WNhpRvC8HD87cDh6pz1zc7eoNuHhCG7Kx2QClMiRnwUfpabCYNoTyyLnbXFaFo/SOZq0PL+C/A5GFtu/zxQpylRkmBZbrlM36XPhkVosizekOFgoqBmUqCEx3gQgRuw2mXcnIM6Do5/Y6/zHVy8zyJ79vs+bh82ixBz+U2quH8cFY7Zz3aN6tJbiMUEXBcrShl9VLzFfsX+eQHzMGdijagq+nLuVr3KXLVlFVWHlpUFcb5kb9SYtFW9yuDy+q3UKHm7uCpnuUGF2ijO3M+2B1km48wtqkgtt7K+XE3QpEItqxBKzyR2S+fVqzrizLUu67Qst6TeO7crf04ydivfz79LO3VenSpSBlZJ7VP67YFthVLd199P7GZwQ6baIuPMda0a9fDx+fBqlfUjvFb1KuPgSrZvyEJLmTtxsbVybLOMg8z6/N2qfH+X5xTaVat6vad/e6ZtLVSvQfD5nceBW/s8G1WvsZtvodTIzUkWpZS1R1whl+/iPj9KFWKbYza9FassIzsecjWDuXnciH4Bhs/udH0ZUGdrUER4JoO0TyzlZ7syuWLW2zMe21eOrA7LLCOLXWCNPZ7D7FxOjlImZtkR2/B3+TmxC1ZwrufzeGwDvtuHfvdyWqSEhz0+MF3tLurYrYZsxjZeQV2WtyvGBfYLG3MOs+Jz2K3obsbYXpOOTQNAekAIcXFsKwztXovK1aCV5u9PIsLc93KxAfrAns3CwwtDwjDE82w6HZN1PyCWu7ea2H81+4XNeL6nV5Tt1Yz93KRTIQv3yNwJf3e8bmABB0LbZrzpslody8cjOFwWFF4Hc875nEK77EX1x3Zf//Z4287Ish/vSef5cVZ1Ov4U5iZ2RdQKua8bEATepsfq1nI0PSClrD0Ob5fLM3eoXnMH636FdZJhOPg7CbbJF7b9jPCqLaIMA8df4nQ9OuOQbFehaEqgH1+qEAx/R7zvMN8q/CeV3/6u0agYAGeZXQ6wKmQ8gFlWoVYyHJY78Do2YUmNmBBVWoYZOHkhPNFsXfbP0+9imlfDVQ+oMRx9DZJ9Arjd16sRHZ+Zu2bTGzL8MDENA4OTb+qatD8iljscIzf9Fx8f326p+xoSoqhsPWoYDsudpGeb2KFkdxKgh2WuQLRmH6/YFScbjn/lXmEzSINSX3Rq18ni9IJn+rc72nbB/oC8NgSvHJkM/JnLZGDiddv0LQoRHpi2UZm3Ub2+VS7PtF9Rqi3rxGVY224Df/c9nbDYRFijj/oH70xxk3V1qC5rVNvmZN/SKuLFqO2axB02rE4dhm7Celu+IXdW/wE6Q5doHr6olX8XwzAujpev8q5RB1LArReup3CWO5a+g2OADPOQZItDl+lux255NkgyfB9zO6bzi8PyFan27QMw+BhZJOtzJJlnZO5c4ezminy7TnBndQNaPuhc81T/dkfbLuh94DjO5fFRthDI6x/iAumhogElLYmB47ffV26KVPWVvXP7FaXck1i9H+nLeEghiUw6k+bzXAm/Yedf7hOs3u3uOR/Iizdk0aLYL6QQZaY3vDOaDcDhLk2HuopA8G6BFIsJCS6zu4XrtkO3Ugq5XTBfRyS4BLMhs9kxuo8QyMOBzf5sLMUeXFImA5O1G5cMm/4KRvfSOupxmbsHQa028oTZw7r6Wn9+/+YwDGKmrzY9TQ/IBuH7oapXINkj4McNlt0+WKOCGuWXY/asVgJZFuyEp+T4x9IiykwjJof5jV7mRIVwvlcgBXkEsKbVTB2Sw8GkXjul2I7PtgOWBfvNAYZdupiwMRkQky2LK5z876HXYZAeUHx1wIGvQR1SKNhQPy5z9+DQs2ietMl9KX7wb+jfHP/6Izzuuz/Dr1S9OlNcIjYN9iAqtOnY4ZcHUXamAUwW/BVTFeNjhBVtGu5HsImsSpPqaF7//MUmalD7aIBP4SweVRqnekOF+xDegAiX+JGVmzqwbtweMPBXEilzo7h+f8h06eM7TnkVqgSikLHDWWZk3xUF5UVEA69GhlRJBfqMzN3Dx8hq2P5QhPOo9Ouv7t/6z+27/xTV6x1WrwZLGZAOytkUlAjx7A7mBILVNwiX4bMKUubHvZWr1h2zLrwwnZDZw0omF89BKUHo2XReUY/hs4phbnuIKzWgUgLPnkOlo69FMNozLpVTCM9mTqwNeV5FzyWYNewbtUCFNoPIIpAPhiurWH2UMAyQHrY5IUrnLOr2Hg0Hxzc/9zC98EaKsZ9CbSMtXDdlcLXfmstPHt7wQhYelrn7MPwdcX+SLygK1Xy2C6ts5f/V/dtLkLfVzL+JR/wogwo/SjeIy/4sJX/IquPKh+aRMp9lyz5Qn227OL/gR3k8zhHQWvpwyiv/LKrqaXFPTaHw7vLpesJ37AfT5EfV/ohf7kdZalt8jx/l0VfQuhHy7vTduFWyFX/6ydX7Ph5976xqX7faEHYyzoKTz16DD+F7aO9H+ek/XHg3ZZ/iN/pRHv1c7+6nslt+lDVhLVv3b8+07fRtupnrXh9WTTmZxUGcxXHB7zFo6QN8w4+yuWhRLuVb/SnfHxRd80UIvM6c3g8JM/YqVBiy7XYr00S158BmPiFqDLR9HYxbIbwF8zQlSRJwy2WVEmwX8zxQNNAmmPUpOs+oKWVYAeHZDKL6qbllucwqQrmdIhr1hud6lAjZbtasj/s6dff1eY1TgPGGc+5CCcLFaY/01ehsJ6/hGMqxak9UhdjmmlEhlOPFv5VgMR7w+blaLYKYn64pd3wU1spyke+fy2n9nrDcjhmsR8SrLpvxgChxryJlvQ49UP4Z/uZA+Rpyq1mGTYNTzTkqxFvQ7PclPOxNj9nUrxfS43WG03f7KSpEuIWPprbksWIjbqcsUyJki1/ZMWr+IgohJKbzuBGX8DwOwykfjnH7GseMQP04Y4pAYnLtxnwfTfGcH0cPlH8GPVBqNBrNO7gvhJ3mR6JCm05nQETCxOzQ6XTodOos/jQajUZzD3pFqdFoNBpNA3pFqdFoNBpNA3qg1PxyFKF39Pt75WWFh+fd8CVUIfYvjosqvA4d+yf53ylC28a+9dw1X4c4+tU2fuMCr5Of8/BrEx627VVmQYF8e+k7ZU0PlJrfT5oQrTfIChlS4sEB1Fky7c0xzbpOIs+m87BPdUPEkdpDeHnKLO+Fk4L+rNb4S4X2a+u6iWSfJPkz1QZpPwJ1SEkS6JkNL0RsiEiI5tv6c24gNhHJDWFKEuh+kwvQfbFeNZpvIE8JtafX5HvYH5bdHISHOYjAuu0GUYXhrwjWJpPBguG1f6RYsKbaT0wphXHTRl2y3XJngPchs/gY0PxmHYVA8sNhpd9iHovzgKiz+urOmHVBCoXxFR1UIYvK7dpuB4TXPMsx1F+cNVrSizxYMfGjIQ9VyDw6ZntpukBlvlZFaI/Zz1ZvzaWqB0rNj8dwfJamwDNNOq0HPYHXapBUjWq+j5HLfjbFVEW10pbFZshqZeYrw8L5cjtmMEmw3JjVsqHDNxz8t4bdbRFIfgNQEXhaCYR8lwN/w/Pe7kmwGN14JyA/HdtvPmfNnSiUABwDQ23ZX4X6U2GI9P3zpLE4yFVcq81kRm3XJFbAygEVeozX0L9M7kKaJpDAwqsIKd/vw2ZBSLsgHo/wfqvXo0PpeVVtEdzh65dHB+nfjHiiuUYReuNC1BgAC8sasfqtwa5P39JFxI/riDrn39b9Np2oIgy3dO/P3XUb0/z2JMh5JKCaFAtJQoKFVQouemQ0Y+W/ehDKHdqBUoJsuTAZpC7xanpXDtDiyvozmtCd/cxPILQ7x0wvtyM8vQ/1mTw6GMGe3jnHyn6d9ycF+RNeh0Fk4QYjrnMH7NeTFpMZgdcZQNycy1h4nerk1V/F3bFen6Emrl9zESsDN7sd+fELid3mGK0FAqsm1mLL8o9yiiXa6lHfcT/fjQyszLqIAXkdGzSPb1of//ShWqtj+F42LHPdG7Fbfxht4mnmtLj/51uTuVXxTR++1n39zI9BBpn1rf1dLk+V7+G6/77Rn7fpu+vOkfGlLMVuRX92lLmveM0/XvVq+DuyX5wZyt9leYa/QkzDt89yVcg6sQjkL105NmD4O3ZNJygJ0x3L8sYhqjG81WkV6tK//lcaESUWQSHGpRIh0rwME5dGE1K6mO9WBR5D0KVVK2YlEC3zD93cowQ4bJhPIpJ3r9DEhgiL4Mk0VpqvQhGO1/SfyaiiQsaTBEiYh1OcwoXkZsIghXh21PQMY+LhMdn48ZzDZk0UQW/qv71P/fEDpebf5hTcG4Ber6TegT17LKx0Qxgejr8dOFyds77Z2Rt0+5AwZHcd/DxMiRjxUfhZbiYMov1VEGaL0bR+kDwFRL/efwE+B2PL7Z8H6jQlShIsyy2X6bv02bAITZbFGzIcTBR1MS+V8BgPInADVqdJXBOOg+M/kzS7HWITgRWgx8nfgQrH7Ge7p9L2icUEXBcrSqvzfLZJ3GyNvuabeSTNVlyRZiuI8yV7oyanreq1baqry0J5SqGrcpYbVKiNCmm2rOCYvqZ4P25lfecUPnVHg5rhbrXzPfdzvCv3RnqyK/XqU/fzq2iXuumeNFul3x7YVijVff2845apitog48x1rRr18PH58GqVddu25fL+kvvMsuyplHN3pba72lo53sBlCi2r8r6a02xVyd39/cFjbWuheg2Cz+88DqpTuOWnN6heYzffQrmRZqspfV5ck/7uHdznR6lCbHPMprdilWVkx0OuZjA3jxvRL8Dw2Z2uL4NyItMKhGcySPvEUn62K5MrZr0947F95cjqsMwystgF1tjjOczO5eQoZWKWHbENf5efE7tgBed6Po/XbcDfdz/Hu1oWn5lFIK/at7tcP3zl/fwa0gNCiItjW2Fo91pUrgatNH9/EhHmvpeLDdAH9mwWHl4YEoYhnmfT6Zis+wGx3L3VxL62iYvcQGtqvtaXdL+wGc/39IqyvZqxn5t0vLK+WQkPe3xgutpdyMFuNWQztqkogr87XjewgAOhbTPedFmtjuXjERwuCwqvgznnfE6hXfai+mN7pD94pG1nZPnZn3SeH2dVp+NPYW5iV0StkLWZmwXepsfq1nI0PSClrD0Ob5fLM3eoXnMH636FdZJhOPg7CbbJF7b9jPCqLaIMA8df4nQ9OuOwNFAAkEA/vlQhGP6OeN9hvlX432E298z9aJ6j3y1ZY9IDagxHX8MxG7zbff3epuMzc9dsekOGHyamkac+yn1T16T9EbHc4Ri56b/4eHcasCtUyDzK99ORAmma58mC3DIerBnFKz5OP5pTVnLa4sIJUVS2HjUMh+VO0rNN7LCQc1GFjAcwyyr29Q2H5Q68jk3YtE8brdnHK3bFyYbjX7lX2AzSoDxpPbbrZHF6wSv6gxZtu2B/QF4bgleOTAb+zGUyMPG6zZarOQoRHprT1p1oo3p9q1yeaT9Qqi3rxGVW224Df9foafI2xCbCGsn6B+9McQdjQlWx6WuNal9uspd8R4iQp+5H8zS3gwW8mIKj/TtwlrvjYKEQocd4ndIfzZjudhffmOH7ENp01n2ClomlnyOffBPI/Ds2avZ3zcdyDFb79gEYfIwsJustJ2dWtV2TuLMGDYrD0B00T57d2c0V+Xad4M7qzNFOg87lry/pD1q07YLeR9n/0TwwrxqZnCEuEelBUXJYLmlJDJw7HIhVg0NtS5u1l9B+oJR7Eqv3I1VxhxSSyKQzaT7P/Z5x7zYqxB7z6d/46+/n5RSizPSGd0azATjcpem4Fs53C6RYTEhomoTWcduhWymF3C6YryMSXILZkNnsGN1HCOThwGZ/NpZiDy4pk4HJ2o1Lhk2vRIVj1v34vKr7QozupXWU3CdYvduK7+cmz4JabeQJs4d19bX+/P7AYRjETF/9HtMDskH4fqjqFUj2CPhxg2W3D9ZIfovAvQS5J0nyDtngD9zPy2kRZaYRk8P8Ri9zokI43yuQgjwC2PABuZIcDib12inFdny2HbAs2G8OMOzSxYSNyYCYbFmc4ed/D70Og/SA4k2uLsJjvB6x2n2TW/0hhYINtdmzWg2CbQbTehx6Fs2TNrkvxQ/+Df2B41+/x+O++zP8INVre2MeZ4pLxKbB50qFNh07/MIgyjnONIDJ4s8kKv5r9/OrOApn8fgo+6Q0GCrch/AGRLjEj6zc1IH1vmm9a+CvJFLmBl79/pDp0sd3nPIqVAlEIQOLs8yNv97SNasQe957e4SoaFCXvPwYw3R2niAYHyOsaNMgc4JNZFW7MdzBx8gimoc1/1WE86j066/uD/rP7bs3GXZ9per1DqtXg6UMSAflbApKhHh2B3MCweobnNwNn1WQMj+mYblq3dFS7oXphMweVjK5eA5KCULPpvOKev7a/fxFei7B7OO5TiC0GUQWgXzQurhi9VHCMEB62OaEKJ2zqEtTZDg4vokMj2mVwjelulIh3oIvCKNo4bopg6vUTEoJvGN4w4u5ieGzimFue4irG8/LzOEZ5/rPanbE/Um+oChU89kurLKV/1f3By9B3lYz/yYe8aMMKvwo3SAu+7OU/CGrjisfmkfKfJYt+0B9tu3i/IIf5fE4R0Br6cMpr/yzqKqnIYRdG5/F1veTZWdfuIajyVGt5f18NU1+VO2P+OV+lKW2xff4UcrPEIONbounb9Gtkq34833X+z4efe+sal+32hB2Ms6Ck89egw/h3cggC+6LX9nwTKv9/c6+wV/gR3n0c727n8pu+VEe670ufE9/8HDbTt+mm7nu9WHVlJNZHMRZHBf8HoOWPsA3/CibixblUr7Vn/L9QdE1midQYci2261ME9WeA5v5hOgicHqppqvg6grhLZinKUmSgFsuq5Rgu5gXAs/fDmZ9is4zamlVKjybQVQ/Nbcsl1lFdpRTRKPe8FyPEiHbzZr1cV+n7r4+r3EKMN5wzjOokwVuf0SvQr0Ne/a5BVc5ItN+/7nXV7xHzbMcQzlW7YmewnAWQjle/FuJz6wuwEXw9PrqzqE9PwprZbnI98/ltH5PWG7HDNYj4lWXzXhAlLhXkbJehx4oNf8AudUsjR1qzTlHVWGj35fwsDc9ZlO/XkiP1xlO3+2nqBDhFj6a2pLHio24nbJMiZAtfmXHqPmL5NldTOdxIy7heRyGUz4c4/Y1jhmB+nHGFIHE5NqN+T4ecyW6hR4oNRqNRqNp4L4QdhqNRqPR/GPogVKj0Wg0mgb0QKnRaDQaTQN6oNRoNBqNpgE9UGo0Go1G04AeKDUajUajaUAPlBqNRqPRNKAHSo1Go9FoGtADpUaj0Wg0DeiBUqPRaDSaBvRAqdFoNBpNA/8fU8kaGjwkSuUAAAAASUVORK5CYII=;movable=0;resizable=0;rotatable=0;deletable=0;editable=0;connectable=0;" parent="1" vertex="1">
                    <mxGeometry x="-194.99887451171875" y="7.006625976562503" width="458" height="62" as="geometry"/>
                </mxCell>
                <mxCell id="10" value="" style="shape=image;verticalLabelPosition=bottom;labelBackgroundColor=default;verticalAlign=top;aspect=fixed;imageAspect=0;image=data:image/png,iVBORw0KGgoAAAANSUhEUgAAAd4AAAAoCAYAAABQIptzAAAWaklEQVR4nO2dPWvjWNuArzy8/+EJbCOMFXBI6cI4nQqDEmOmSmEw0ymFDQkBdcGFSScwMdhF1A0GF6mCSSJwoS4hhcsQQySMii2yv2LeQrIj27L8EScz8+y5YNnd6OjT55z73J9n6++///5JDH/99VfcYYFAIBAIBCvwn1/9AAKBQCAQ/JsQglcgEAgEgi9ECF6BQCAQCL4QIXgFAoFAIPhChOAVCAQCgeALEYJXIBAIBIIvRAhegUAgEAi+kP9bptE//4T+x3OxSaJIH721i22DoiQ/eqHPxWuQz5xC+pKz5skG3vtPxMXMy3TRKDR1NGkTv5mFqd+QLF/9tt/Us49poWOs1Uct9O0DBmmNs+Ynv+Ooj5YuaRon/KafUxDC81yGvTus7imD1D1NQ13td/Ms7OFyTV3rgi7n3Brq6g9qH5OvP5M6+xEzDiz07Qvo/KCsJFd4D18GJJY8x7Mb9DhEW1tm+GOyndboxI5J/30GtXOa2oq/y5IsJXgnGBoUiybpdPaDt36k34dSx1lzYvsa7NYpfSCd2vltBcRX0U/t0tyI0AVQ0dQbtjNbpGsOt1r0dW3bIqFEdH7Pwh7KMws3z27Qsl4+/niDZ9r9R8BkULpfb9ICKOjR/WbjwjJLoTznOp6F2YPcJ00ighCeixf853DoAK+41gsOzwwG781SqT0A5LN7VGDouUirjC1JJYELOAyHkEjIs+d7FmbrguoASgXwYOXf33Of6fehkIh5NvuGNo9Qv6OsnKxw9SRKwkLPf2eQOl+4+JB4oVo8pRszX8ThmRe0yVKbFrpeA3P4LtBt/YB2+pKniPHi2RZDRUVZ+e6TrC54AchSaD6gfWAUe+Y+GY4o/8ZCF/uYYhtfMCQNdFPGWOMH/99hZ7MTt6JTS5tUHQcYfVcX03TQtEDQWQdk6hq1wu7EqU73lHYfSp2fGKFRICknE/8fxjP3yXSPeLoNCyh/FczUdQCMj73dFGELj4WeOaVPlto8Ybkyj3Qr+3RjWnSdV6ERfxYhgTsikZABFcXwLUaDwnoCYx6+oE0iSb4GbdsNXOua7mCPFCbtvkat84M3Y917uvS6j5Q6P2PnetsyAY3O7Rp9S1IxbkHfPiAzuJwam1FkKeTWs0C1qo+Qzs4ZJ9c47g+M3B31dpZSCXpmA5wXHHkXGcB5oTt4hvoNfNCKtbrgTeyS5nn9O/4peA3yRRNK98FguaLs7pM3f2x08Pxb8OwGlfp1xJEs6cEF+fzFxF+7DjRHWmbq27sgBsBCr/oLonlC9sPPu6wG4lmYlYtIgdcH6H4nHzpYt45IDU6XMHdNPw9IsW2XWQy7eOuoPYLFSKuYWCPwLPTKBYPC6vOL57kMh3dY1jWwR+FMJ5fQUXsG9aJMNa1Ra14tqSi5eDagJJG8O5zU/cQY88wGQ+3kXePzGtTbUOpcRWiBy7oTVcq1LO0uDPmc7mnrBwxqDm+jb2sfs11n6rtY6PkXzp4eQuPSxcx/p8seZ80rbjf0cGtqvO94nrtEqzsqmVP66WVWNL8DgUaSvuQpZGKUtAfO9H3y+mKzyJ+F37mcwjlq5Bh5xQEYvGLb0cetYrwwkZQTbpUTXzOInKRcbPMOcpN+9Eg3ln0TmILizF/HbBefKdWO/NUq4HQfoQ8tk/Hf4IUBgNXAHHVl55pq+5H0MiZmSUW7VdFmDgQ+3omJ1ELPH9Bm1XFg0cocMChdUpAjDjsvkAan1cCMOj5q1j2l3c9S6sT56/738Mx9MtU9Om9RwuGjF2+gV14gFd9s0Ic+BroT0yi1R8oxMG091o/p2Q16QV9NJncgIZNIHFIun0wsziTtCkXTsU2DessiZ6hIuHheMnYR16vLVOsatQIgg2m++geCcUGXcf/1XXFZUm5o/ASMrFLp0mIftqQ98DY7iDaCZ+5Tl31rw3gBq3yjVDzAGV4Fkt7F1F8p317NPGeueY6TOaDe01E2pHR9WPAydBgik0jENTqk+XT44Vt9DcHkGFokhLUNxfgBukwmv4zGEjjz5x7PUqr9iDBfLzrvnWlTK56L2fpOt/3oa1xAOgjwobU17oCzPNJ2oJybM3P3IV3aCcxns8hpSKe+LdbgJIdW/jvytHbm3VGvntLvQic2iM3FrJuUzn4uIbj2UEOrc49r2hxR1iZNzU7VBPUE7b0h3TYUymv6daPwLPTKAYPUPU+Rk9DiCRH5EC3qt7OPqQ72KKhxgScWejdLqXZOOc5fJ1gN6QTjdlEjF3NgQkGPdFUttmYE7ewGrfoLFHbHC0fXfQX3hnrVpJ/W6DR16BnUHSjII/fMLgX5lZ55Q7dq+i6Op3jrSLqgz/a10bhoBuPHa1Bvz7+WxzXt/h5nv1BJ8cxjWskf3AYunlbmgHY6SxognYX6Pvn6e/tuftoq90i/n6XUcYJrbIYPC14pKvDlTyVycnTpVWSqjARtEsX4SUffp5jZWrCaUzHeflIOfItvt5OBB57doFKUyTMtDP3zDPuY7fruzHkjzPwWEwtor0G+ck2qcE7zSR0PZs9uUKns+7bPWtSVkiSDFXukedW7YwCkVHWBYIhRt8aoGGc3bGf2ITRgvd71chYR744ulzQ/ycS8GBfbNLDiNBcAnhkA/a6v5QzaJv10lhI3tPSbmdaDtj8hrqWNJnZJ969hRqD6/vKcpjI0X1GbD//KAMHP1KYmGFlZSnszh+ZrvM+024+xAYYjJOUEI2Fh9l5xnBeQd1F5oV59JlW7f4/A1a5QQv1Ulr+RTL5i1X3XWfTCb1VczMo1qc7HYn1G1/pwhovXwByGFs/BdcldYYyfT/YVhBXM+Z8Vi/RxjRf8CFNklDk+MX/VsW5axsfwzGMqXRamdHj2MZXiM6l5K5spbU4xHnhSj6kUD8i0IV265Kx8OPcbRCEpJ9x2XtguGnjarIljMVnksaXBQs9cU4hYffpm3h3f9LnyPYDhC32yFGKtGiugfKOEiTN26Fi0unsTwRnzfKx265pC82H5bxWOMh39O9I9Evg/ww0jSaJoVyRYwhdluNjmd4pVFq+YjatFV4sgeObgeZ1eAz2YkGXnhe4AUilw9FfU8iEMXdhYVLpghiD+RS5P+1NjNF77mPbgiOayJkxJRdPUQPu9pp4CeGTgvAJhC03QTz2LVuWCLqPFwCtDb8ECegk88zvO2cNaMRajzAM50MjHJumaw61GaGG7O7mWd56BR7qtRthXBLzQ7T4D1ziEF67RFqT+VNxFPI/A0SqvtxSbEbzDG4rFZ2qdc2a7zytW16TNLmVlCb9WoLVtmnrlGDcqwCAIuXfkc5pvqwk/Sbni9k3H1r9TbJ9SbJ9CWqNU+Eb5E1I3PHOfjHPOW+B31G4fQscuaJfOeZt7UxW1xFqC17ZMSGdxWg3s8hq5zBE5h3LtniSW7zO2LhgUzlFtCxs/77AaaAFnE2e5uByRW/r+z7jDkIqRPPL9VkNnQraqnXtGaRn+bRanIy3ux771pM0lnaeYbzbX5z2nuXlMxdmloO4EY01mtB6ScydoIc1uUsmz0FtTWkWQ0tQHKF1SI/DhBabI3PCYStH00+nmpD2NBICfeuUzry34VprqyAdSuufNUIPAu1P6fYAspc7shO4vjM1I90mx7b/thA83/G4wfqdo7Szk2klf8tbc8X+78c1WCU76LFw8+46e5UfZqrlDjJElrGxhVg6omIe+JudZmL0bHGcXWT3EGM8TV/53zOzjLjA1x9Jr0Ms9YEhgm8e4yXif9DTTmQe2c0o7dT/WQhVtji/efqHahkL5ZObZtRUsGitrvEsL6eXZjOAFYI9kZH6TjFs/JV04XG5ykU64nWNa3Siei90zcJM6OeMhIjhmWZIoxgNvZRd76KAoy/sFR5NJqbOMvzKeXveRdGTkzTuK8XP14JJx1OIDRsJCr2xRT11ytooAllQUJrUtJfwgU/1GUVS0IJfH1sMXSqIZO+h6g/KitJjENzpP0/l6r9SLp4EvLMYCoqgoa3cI38RXr5pQuqSj7sBwTrGDCd/cchHOknbFjEsx0NSd4WxKy5jeDe32M3JZfZ+0pBNu306w9S2K7VO6pXue3lQw98lktqiSpdZxuE046JkDKvLhxITlBy1BqXbO0+27a8bWv5PJE+k20G5/oo3OdV4x8xd0U+c0mz997cRuoLsWhMaRrW9RHFzy9PRz0n2S2Yc00Wba4N38xg3ymbjFfNi1c02+Aqkzh7dAmHjmPpkp18h8Hum2jpm2KM81NQ+eob9ENK8HUgJQdcrBSus9sFUm13TI4ee9k5DJ5XRyuel2QEKn2bnzXU+xUfDOuwVoxKgP594Fn6LpuHmZvDv7GwydR2DW7P6r+d/ReP9AvMAUszFXoZSMNzP3T9nePp39e+k+3l85fV5pftNUctNmRD+6m3Hajopx62DrMsXM6VLRimOkJIt9Ocv4elSM8iv5fINmnD9Yml0E+hGYGp3b5X533wcfbb6f175VDyoRvV0heb4mUk1d8lSOCC5M6DRzwcpiievP/X2lQ85qL1iWQSvm/FLpKMIiNToYiuDOHZGuEnrvJGoJ2hP51vN8p0kU45zS9gU9b1YzmaB9jdP5MWmCn87Dto99oTv1W0vKCbdPkM88QiHmHqvSh9SUxi1pD3ScLeo9Nzq4bYIshVVNzcUlnktKYuunOOohuZhm84IfJ3CvfevCONI5AueV4UzIQJQlKIl2plEtyujJ2Vz435H/MY33z+KjPo6VSV/OBkl5LnbrO5ntCzpPcwJfQuf5WsLnP6qPi5n3c98mO2kSxXDoIFNsH5DhnjdjmaCq4Kp1mWJEQQyY9vXEDAzphLPU1rtpLcCzj2nVnyF1NBvn5VxTbUO6tItrNpj28jrOtV9ZKHU0TtlxnBdSpb2FJvaRuXWQOqd5G7ZevNLtQ+ns5GP9zXv1g9vmNkiiaDroBpb8OW6OaHztth6KoAfGVe0W9orS+cK4D9sySRec6PeRTiikT2OLhqxM+miu8OhPLTzmMmN5cMb/ntEil8Qz9ym2s9TKI7/lohTAd1zrgupgL7CqWOjOEU9vCyxG8uHsAjjxSr0aUcMhiNkYuC5Mn5PeZVOhIZtiFPC4FINH6O9tPL94g4L3GStiQoMXun3op5bstP8mJN9M/STvk6k05kYvL0tkx18Hz0Kv3CCfzQsISqIY95Tay6U8TROZqsB7us8ygSYJOUu/amCHrBaScjVn0rTQt+MiR/3j/cDnuCzjIBFVpzyjfbuYFV/DLox82TO3vaA4nhAX3S0cSBdgN9DdnUDQJlEM3U912571k3qe+/EiD5MPH+Qka3SefkxYezyvQSvWtLs87gBSMZIluSB/9ksZvtCH1YMQ07OL0Ekses4etY4+pUk/MkBeHLRqHUDqiIQEIFPeeHqPilq7p/yHFBYqnfmBvmMXxtTYDed9J2zA/bbxxcNGfbzhnMl3XOiaEytiwSRScg/6L9gQawKVtAfe5hzLFbJUu3egfUR4v2KbN1h8i0wkn0TF6Fwio0LEcuv3wdfc26X796o1UcfR6CwrdD0LuwcJbX55SkiSO9Nw0MnNGbVDlvOBeb1r+uxxFvwgtn4MxhUKL7Sr15AcTb7vC6LpRZiEg57/DrHF7pfHr3sbYcUBJGnnw9cfkUxBN2ZB6Q5YQrX+IpQr3uYNUAAi6ilLV7wpLrYdt2hW0eb1TecO247/3u4ASI3KvW5y8fWOok0/n+vfdx2C2uLazDU/ShLt9mfw3+7Ud4lmZjHvWdioH07L24zgTXyj8yTPERrJcUCFIBrPfYb00Yf8zZL2g1pXRrcP506s0bWKw+ygRC6e5qCcfNHv+opnh7N8XqlXHyF9tHgl6jkkCxol5wY9f8EgtUcKkNVvJAHXOqDa1/xArGUfR1ou+EpSrmLqPbv0BsykqUUxdB6hdO4/XxDsdja+8B7qxO+tYjzd44UneM/1a+I2X8lnZLZX1OznPlPqPPKYL5TnpIyviKJqFOt3eFpEn/UadPts1se7Dp6F2bqZCagKE1e5ajAw6QcVnlbejEOeX9RmzK+0CiwQbNN45j4VZ82dlKav5VnvmQozvOL0gdRsNT7XAXimrh9jTRzxc67nRd6vwmYEb0Qgi2A5PPuYSvWRUudhceNYkmi39+j57+Tdqe2sRkE+/Sydp9+hZGe0r2t++uyOX6hl/B5AWqPTXOJdJBVFm+6fLp5thNJTTOqVZ6zUEap6uPQ2ZR/Cuwv8v4smGAurnaX2pL6nyJTu48ebNGlKtFuGryFLJzRr12SqF5jh6OY1UFQNihfo6rup0wtyRtvgVwbaBMoVHWvLj5JunoSimv28+83d6ANIMRopsKhyFayTwx0QFQQ1fff4AIFPwgkE27Ltb3zXRVC8aBNIkl8iMzJ33b6hGGxSMr3wTbgXVNnjzJhdjBsb2jlljW0BAz/GSie5eLYDoZVZr/s5Ydq/F+HSj4/RUc1pjVrHmaq4MlkyMnzeTInICVSMWxXbPKaSPwjyIsEvTXkfSvn4KO/FJiQpCV4wyD5b85BUtFuHnDenwtZCAoFbN+njf/exDzvI564Xg9zPdJbShsyyUfjmY42zBSvW9/xsF9t8IVW65GylUpYu7uAZPFAkkHLn1JKyL3Qncl0P2B6V/wPgkWpmi2pYO26H2ihXPHUaVOoy26Oo3HSWUuGcN83fbWbmfPuY7aIZerYDtieCBKJzbRXjJ0/2MZXM1mQe79ODXwZ15qNN5/D69DNbVCPvNTvexuNs3jf6lJWZi6kbMBMVHcOaGu+iTUCiA5Ce58z9LrbpQDIUVd27oQ2U1EV9NTD59k2/TO+m/c+Rlfj8DXDSNeeX5WZ/UVRzEknhfdILRkS6tmRu7+/A4BWPVTtFkB+48s3WPc9H0a5QtFVW0e6Kq2K/7mmvN6r96lNaOp0pwtc1IrXIP7ignnEYz8UbOvSsG387r2DnlmaU/zrQWjQjpLkV5Yio7tXwvOA7dSGV2kVWd0i6N9Srj6RrPxZYiixa3SOebv3Jayb9LbFLmlOKeSjN/e2CfYUrDXK3J0jSbB7vLLN/V4yfvE11yPHGFxFE9l/lire39bQ7v1jN7LmRe3bMfa95xIy3mGutsvfzUpskDEy/aEf7GWeqdOjsZjSrpzeMrjFsfae4oExlOko79xoM2tcRScdJFC0ZjBs5VHjkkvJCU2gSrXlJt/LC2WdvoBNkkRQHe4Gy8+uCwbb+/vvvn3EN/vrrL/75J/QH+5i8tfuBfT39FARLjtoc4HckCNv/RO3n1xNsfbXGlmR+dOvFkkE7blAQfvl72Hrcxg6ThHdtgR2SoxX4mtG8nt2gx3T913Xx92StBtWZ0qXFO1zZ5nFQdzf+up7txFe5TMwv5/qnY+a36G54n9vfDxfbvgM2F7Q2JjEdKORi2w6JD9Tgt/VjXFUnt2GXje//PVqteE9Q8atlvYD8jXJucbnMxbEwH2d1wSsQCAS/nKAOdnePp4UR+ALB78V/fvUDCAQCwULsY7a3t0L/yNSdIyF0BX8kQuMVCAQCgeALERqvQCAQCARfyFJRzf/972c/hkAgEAgE/w6ExisQCAQCwRciBK9AIBAIBF+IELwCgUAgEHwhQvAKBAKBQPCFCMErEAgEAsEXIgSvQCAQCARfiBC8AoFAIBB8IULwCgQCgUDwhfw/b+Ohne/+TzIAAAAASUVORK5CYII=;movable=0;resizable=0;rotatable=0;deletable=0;editable=0;connectable=0;" parent="1" vertex="1">
                    <mxGeometry x="-379.99556152343746" y="374.00331298828127" width="478" height="40" as="geometry"/>
                </mxCell>
                <mxCell id="11" value="" style="shape=image;verticalLabelPosition=bottom;labelBackgroundColor=default;verticalAlign=top;aspect=fixed;imageAspect=0;image=data:image/png,iVBORw0KGgoAAAANSUhEUgAAAqwAAABICAYAAAAziKeNAAAgAElEQVR4nO2du7KqSve3H//13cVOwcDyCuAKwMTI1AxCTMwMyUwglMzUyET6CuQKLALpcN8HX9B4BkSnc6659ttP1ar33VPOh2b0OPxG799//y1p4Z9//mn7WaPRaDQajUaj+Vb+708fgEaj0Wg0Go1G04Y2WDUajUaj0Wg0v5r/bYNVxti9Hr3zP5tYfsM6Go1Go9FoNJq3+d82WI2AfVlSliVlEWF9wzqxfW3cNv+ztdWr0Wg0Go1GU8v/tsH6Q3hpZeCWJWXqAR5peflb1MlS1mg0Go1Go/nfRBusGo1Go9FoNJpfzcsGqxQxvm1fwtm2jR8LhG83h7WlVL9fh8Ftm1hIYruHL24XvwmjVz9KEWPbl7zR+3WqhW6PrdfDtn3E3xpt73g+MrZv8mml8GuvtUaj0Wg0Gs3fyGsGq/Ax3Q2DxfoS4t6vmbMlTDKyvHhcR8bY5pTtYM36KgxerBcQmsyyx1WCfbVMZAFHYttmuu2zXp/C6hM43lqsUvjY0yPz9f5ybGXJfj1mO20wcH8J/SEM+8bN3145HyPYU5YpHpAvbcwQFkVxc4/62yn2b74IGo1Go9FoNA38v9dXGdJ3ro0rAyNYscgTwoF5t6wkns4YpiUr5/YXw3AI9gXYJnnb7pINebpmf71PJ7jdnoyZurAoA4z79Q2H1R78nk1c7AkeFvhegn1rXwYAnFXJzeV5+3wykkNEsb9fz8BRK+GLx3uh0Wg0Go1G85t5zcPqrCjSAdubMLWNbfswL9nfW4NyxybzGDcaSAbB/okB5S1YOe1WptxtyLwxzZtxGHsZm93fERb/yvl4ixoj97TW2CMJ4w8dpUaj0Wg0Gs3P8HIOq+EErPbXYer9OUz9kMJa5GTWoMXw+gxFnmE9eHcfqU1Z+IW8fz4WHVbTaDQajUaj+av4jEqA4bBaDJmZPg8+vyznuzMnzYHVyRjtYgT+Bt4/n4y/xCbXaDQajUaj6cwLBqvA7z1W9LfizPFI2LasI2Obnh0/GrovYIwmWMm2xTAWbBOLyeiHE1jf5Cvnk4TN11JsE7xF8KGj1Gg0Go1Go/kZXvawJq6NL+StUSQFvptgRfOHYp9VEXGo1rldJca3e5gziNbNeZedMALWKYS2j5B3+5EC3w4h/fmCq7d5+3wsoknO9GE9JSsWkuqCK41Go9FoNH8f//77b9n270JaelhllBZlGnmlZVFC9c/yyigtykaKoow8q7S4XscqvSgtH9ZKvcsytf+sMmraVZGWnmXdLG9ZXll7aEV0ezxd9vXOOs/Ws6KW6/bC+ZzuT1GWRRqV3s39sdrvj0aj0Wg0Gs0vpvfvv/+26i79888/X7eKNT+AwO+FDP6AdJdGo9FoNBrNd6Jbs2o0Go1Go9FofjXaYNVoNBqNRqPR/Gq0wfofQMY2vZ5LQsbMPDV08L9dTkyj0Wg0Go3mJ9A5rBqNRqPRaDSaX432sGo0Go1Go9FofjXfYLBKYt/Gj8WXmgH8JoTfo2fXtJ59f4PY9qM27d1C+L0azdsvI4ntHrbtE8vvukNK97Vn+8St5/iDSIHvf6VBhbpuPdv/3HPQgji9Q9W+pIj5iUsppVDv7wd3JmMb2/a/dPxSvvAeyBi799lzaEP4Nrb/gfFO+PR6PewvPaefQhLb1Xn9+YNpQY2Tbddfjd8/895qNDcIv3XsO42N3/WdPNkuPzUWfjf/71u2eshIDlvGIwfjTmJJCgGO071RwCsfqhPFkqmbgJeyXr2wrzaGi0a5KBnbTPNF533J44Esg4nZsrTYkpBBuGPufL47VTYcsL6/OR/DwFntSf0ernuAd6S2pCBebsk/dESHJCEDkkNOul7htF362OfYnxPcLGTQHwKHAT/TMC0jmYXQd1gZYDgjdnaPcBixmAetx/8MKSVQUBRwPG7J8wOHJCO7XigxIS1YfWVHFUWekTGh7XF/Ni4Y7LDtDUwWrIMn75kRsI42mO6ScbnisVeGRErjYWx6n4zscISaPXVHEocJ4DGZj5rHvWLJNITJevUD8nXVeRm/vdtIBgPzydj7U++tRnNBbBOyzGtdJstg8fY4K4j9Lf35HKdpQMtg0Db4/kW8ZbBKEbMMcwaL+4/6FcPx40dV+JhuApb31Gi4ULDbQb//yhGOWaRjtbaUGK1fJknsL8mBwXhM3W6OB4AjoqmKqb9g0YdCSIynJyXZbTK8tGz94Iit+nil+y92AWuk/8XtCnwf5nOzcQlzHuEdoI9s8dLsWC5hvro7T8Mh6NqWS/j03AQrKtg3XdTVqtu2EGxnCQkH8nT9EYPtHcyBBcDgfHkNgn1K3nNxk5y01hC7Qwri5REGADl5Zf2fnvPjNmSWDEmLNfP5GwaclIiieLLQke1B/b9CCOqWVseRgRVRND3vRsB+kdNzXaYU7AMQ8ZJtDjBgMLhfYYjnwTGOOd79km82HIDJYk9wfRHbJsfFkql7YFjzTJgDCw5NK3ZDxlNmGVjRmH5R1F4nOBK6auLFckD/ycRFxDGMRty+oQW75RbGLWM3cJ6gfXmc+IXIGNucQdt4odF8FRkTJuClT2wda8DjV1QS21PyxbNvkEOwAr9nEnoR6/vvKABD+v+Rx/wtg9VwAlamwDdNep2NT9W+9TVjFWW4fN7BeL0DgmfGzBagj+PcmQhSIAoTp4ORKgXgGBhyRz68bZEq45giCC4GyPWDXrMt5Yz6w0+g2JIcBoxb7ZU+4wXQ+AGGYzgjyeBA/01vePVc4bH4xMdHbEkAL93/0Ta2hnLn3v3VYRxZHPIxTpfn4InRbx5DZgCG8Z5RYhg1A20NGVjRCLNhYXO+ZjTvsB1nReodOFauMie4fj8ksb9jdDdgSyEoTPPW+9A4oCivM5iPx2rOWT+zzd9F+KpFdVHQXy4hqJ+MyDgkg/aJ2TX5DHeTEy2uJ+JHNkkCjBk5b973P8bJuTBgPD6d0VG9JfkOIeq9GsrhkLMToroOfRZpChQIaXwpWqHRNCF3GzIrYu2AjH2mGxgOb5c5HDLIYOnXxBKHQ9guiXk2uXRYFRG2OcM8cDXpl+rZrzWI/07eTwkw1EU6mDPc6aDZMwKo2YLLwUspPhWi/zBS+EzDBjdJBhBiH8Lan8Pj8zDlLjSZhR7RBBhAHFd+n3yjvEuby4MmljMyLIbHmPjOPZRvlIFnNaY7VDOzyYJx7fh9VGH2Q5PH+MjWnZG0TiwqI9FLb4x44dtsx3UzQuVhffB0y5iQiLR4P8Qt47AyMDt4HJ9vTYVlvfQtY1XGPtN8/MTwlsS2yWYYsai/QYrjAcjY7MRtdKG/YNE/4tvuk+fgEygDgXlz+PlyT9Wk7CHCIHccsJiMajy4nSd8F5zVvsGYmzJLMjZw42UwHAdDCnx7ymE4aU+nMJyPGi9SPfTt90bG2OGB6JQ2sxrj2z7sb59nGduYswzLS1/0Cg4Y3aVabAHGrz4z6lnoz19wNnyceufCFjgMRs3PkVrg4TpoWqi80Jc0IevyjH5ynf8sguUsw0v36pkLVuxr5snCT3CZPEYYX8UIWHgz3BsTpiDPAO/PREmk8JmeIkJ85lv1tRzWKldsmrddEInwp+SLgv0vnsoazop9g5Ei/B4uC/ZPrZj23DhrMie4f3slbBKYrKsHVsaESfOLLtmQZEMWrTc+I8lhPmqYV2VgeX3MBpfXwAKrLqXjdAzxloPlEc2v/FuxjZtkWOwQpjIKpLJgMDAwEMT+lM1hyGQxZ+QYwIj9/ivJmDHTmXodDkeB/OoHSe7YZGARYts1k5MMYMPU3rRs5MDU5+mLmR3AbFvGPGLNMoZ9h3vHPjg4TkBjXEAK/GnYIUqdARmhfaB+KlYxtWGxfjLLP03KLKz7HyzYTG0erlqWkT35qMnYZ8mY+c2EUBLHBUEVz1fGHESFSrORsY19nVNuOKz2jlrOnCmj7yvu84frq7wk989Flj1Jc5Ax9hQW6/3Vu+awWh+xbZvjen8+H3OWdfesdjuJ8/s4nAx4yKgA8gPAVk2u85wcyJcxfDGHWvMXYATsy8rCkjG22TbmvbdObPeYZa2LAC9EFH4RypHikT4EZWMK88n7I2P8ujS5JzirkhuNUqmiD9bguX+1fpz9AsJnGg5Yl+V5e8K3mfp8aez9ctGVEezZty0gC5jvWT14VySSTxY+1O1b4E9dDsMay14KRMcQ39McVoDjlnCWPP0APzlg4umGYfqVWekp96zGowmVxwuG48eCuBtaHnLjZraoJiTuYUhaXH14ZczUnF1dDxWeDqTAn5rMXLAac266IPDNGZnl4ZGQbI4UIwfDeL+gRixnZF5K2fBCCb+He5iw/ra84iuMPkPgcJQ8jG5SIts8d5WBdrNKbGNuJjfGk4xtzGzI4sqbV7dcxwOunrsuEzvFaSLY9qwbwYqx38O0PaJToZHcQT84H+80n1CU6nhPxqsXQaEcnFfb2lNgY85c/HH5hhddPevhYM1+fxn1ZGxjDu/PW+D3XFjUX0cpfJbHef2EzQjYr8E2eyplAwvvQwVwVzshWO1py7YS+YyE8Xli8JvJNkvqoqoAhy/mF2u+Dy+9eg+FT8/lJj8/tnuPE93fztmRkhHGc5yrAa7YKi9ouqjCZuOUdHyb33/cbkgSGMyD5rFRxvjTDYfhkMljAr8i36gUonxHHLcdcM5mlpBxgL759XFGxtguLMrbsc9Z7TnaPXzxztireNlglSJmuT1Vb9TNzHNyLKzD9hL25nhX+HC6QPXGnQrPP+Z7AHBISDILyxty/vlwIMkyLMt7XGfoMWTLMjZZXe/IcDCR0GA0n9zZeBHrfdk6sAPgODhB18KeemQ8JV98c+5kkZNhMflEUosUxNOQzXBBsb/zgE2Vsep5k9vqXMNhtS8Y+1PcZIZJv9FAbNkxse2qGex+ztFOYNiv7DoDCjVDHb/iCRI+7iGiaHKzf5rhszCNycCCJC/gbkmxNHEPHlFb0eN/CGeV4vVcNjsVoRDLnP5KIvwlx/H67H1RxvaQtLgOWysjcztYKO9BsKcYyZr0BPXMDMb9Ks/xyDZUqgQ3mRvjBYu73Mci7+AmutmXBHPV/J5LQbzcXEKr1ulM7p8EzQlrMr8d368QfnIXKtVovg+xnIHnYSUHJnXSFMOaepgrzGPIzJq0q1oYAau6HIMrZLxhhsdiFTxJl1Nh3my4+MikWO42ZN6idp+jicVsK1i1nH8bLxushhM8N6ieWneXC1Q3xrSH55MqJH6V4yV8EjdjuGj5CNRQ74EU+MsQmLAoyjuDR+UfzjIL79MV5LuY3Uh5outllT6D2CZgWeTLGPGF0J4UPsvtmPn6fsJxuUZqMiLwbZ/xTT6skr0qBjbTl9PBJcI3mWWeMkyQD1Xg56LAaY+wzrtes804PBCtV3/WILgJBZ1ktI5Iro6/KsjDGlRpFd9+ULXFTI0cQnx/22nLhwNQNyl9wGGeppWnWbBlzFwC1RggpWA5DWGyoFibnHKmT5jzBUxdzE0Vnq97743gQUhi62YkWcigNWKiChusV2aAtd5xiRQ7luGMBAtvsqAozGr+tSR0TfWmWBbecMJ4fErpeRJNyB5TWDLgLLQjY+xpzuKVQlhNLUo9Z0OSVVMNS93HcR4qr3xtjpdELKeE17JylkW0WENoki9uvVE3YfQqGiRFzDScoXZr1ReMVmks52MDLMv7e+97x/M5pdOc8mlHxW1e5elaf+xbK3xCUvbzI3bSPEuSLeLGn6ntVGpENBiO93vMMzqOxc8p8qwxDcHoD2HzvgTg9+iwfhvfWPUmYmxXzYyU7zZnu/TZVl7kPN+QJBmWF5Gu3zX0ikd5p9PTObq4/51gztE2sY+PuTvFV56ss/rA/sqge0PXU0pw6iYHlbGKd+XlcljtTWLbZjtZ3OTIPE0nedwxwlfexaeyTpUnV/hTzF7YOsGQ8VJ5tr+WAKtSXLouXlP0dgoFMRixCgycsQfJhp28PBuqIA+8xlDzVQTkZn811agHNWyHvs+2YbmTfu2sg34tAMMFq84pAQlupyVV8ZRaacthML8p9tpNqwI0tizzARw2sFhzUVwzma8jMGcsRYcJNyD8yoNfPDtnNdgPF68/PFIKit2W7eagQnvjMfN9ec5Nvi60WpcrkILdMmSTzNRzcoVleUzqPO7WfQpLlapwwgjYL3x6Zu+vzBU8kW2mNKaWK3vlexE+pnsgSteUl7woZLxkmmRk3mOk5JTnOYzWrMvL2CGlYDc1mWVXE4uKoIr2ydjGzI/EtopwrdelmriIGP+oNI3PuznlE67vxjgp8Kc22++O6n2B/hCGd5pMr5yPEewpA4HfC8mXNrPDkLQorlRDVATG3nZPZWpG4G8HrFcOyHs3yhWHI21qgMdPiI+LpXp+FmpCszz2mdfo4l/TJdf1I2T5+9Gif//9t2z79z0UZWRR4qUvrpeWHjXrpV4JlC9v7n7rnlV6UVqmRVEWpyNNo9KzrNLyojKt/lhEUZkWReN2HlHna3lRmabp7b/IKy2sMrrfXMM5pR4leGXbqaZe3bVV18662VFRbY/S8tLqnKtjfTigZ6eYll51jvVrFmUaWSWoa/zi1svra1jU/L3tWSoiqwRKrJrrVqS3174oyqLhX+pRYql7f/NbGpVW0/YbzqPueE/bPx9OobZ7vhfVf7/+3lTXwLq9duq63B5z3XJdqX/uPre8unY170p5eV9P7w2Wd35fL4sV6v4+3U10+04WURk9bKxh2Zu/P76/RRqVUaTGgeLJGFJU70vtq1gUZVoU1ThSv52H50n9tfQejqt6Ju/29fr9+RPUjWt3S9Reh08fhtc4Lqde3fGpa958edt/Pz0bXtNzeVmwtFq/F2npNT1jN9t4sswn1mm5hrfbffV8Kruh5RlIva/aD0WZRvdj9+P5d3mnvjIGn44lsu6/Jer7jOU9jmUNY9W71D/v5x+f3+MW/i4Pa1X15o2/Zzp4kcyRiNhnujkwnCyY7/c3swEjCCC26W2Gr+UR1kmvmEfCWU3owBnjkdQX3bzsYa5kxR48KAbOqiDFxE1cTFLK1Rsh+nhJOEsYtnpoDJxgT9mPsUMXc8ZVeLPS6GwqJJIx9nTD8E2liUuxTYJr30mwGc5dBsuO3a5f26jipOd4LO5/POk6AqLmft2gPHKdQsjGiIk1Y7bZIYOAopI7u1Zn+HV8S0pAhdyxYcL64fKq50ZWjUmsKGXB8aGzlix2TF1VqJfumzz0Kv96eN3YwwgY7Wzs7WM3O6W1WHdMANZD7aLhBJdmBVIgOlR+5jvBjcToqcDzVU3rRgyChccs/F/qBiURosD8lNSVs6JIY5a2jXsOU1tY1pDFuuShtk7u2GQei8ZX2SDYl00/KrznOYdt+YTVgTP2XMKdfFSw+YV85XyaolIAztjDDWNWb3eVNHBeEIz/1pSAk3c1vf3OrfYFA9tk5ibMrtVLipwPZgR04l1f7psG61V3qMH4xS5UcNYCfREVDm17yZt4LrIupaTYLQk3CRke0WLMYlF1yxKC4nhkm1+KzcjB48DMNdl8VSanFodxlDL/6iAiBf50y6DR2DNUUUviktT82r5plbN1GC5YRAfc2RSY1ErkKKpiO8sjSsfkYUiSzEiSGZanUhMepVp9pvngTvrndYxgTbQxq6rr1gWbdeU/qOd4H+a6+uFq25Uh4c5Y+ipdwPuSgsQP8E0pASdDkklRnwpxJ22FPOLHsirEOSlZgJcWrFsE84U/ZTMpHnLojWDNxDYx7WuZKpUnZk3WbzZecDALQWNHBaUTwaB/18jAnLM+dVr41LPgrCi/NIRVCgqqhRj7jysLtHXLg9p0q/slzgsU7KauygX9mNF/qu+4k5urwtTH+1z/IiezBh/Qjm6nLZ/wmqymuPM38v75PE4e/xjfmRIgY2y3SUtcTYL6fg83uaRHSZVn+XPXxxq8/aS9abB26A7ViskxfGo63CFQ3UrHb7zkBcejWaNneUKec4YALAvy7RHGffqYsDVxSSlX15aM+v9jv4d7XxjzIZyHQb/K4e3EERFvVYHK/lkxkcMqjVDD55NR/1Qcss0ZjOfM9yc5oRAYMg7aKhJPxXZjAscBx2HVKDgv8JdbxvP5h/LqDIJ9wUj+4e4+8qiE9B8Gh4biHWdOZCWquUTtICSIhXnj5a+bvZ/Gx+Lqt/OYedWS9Ha5guXUJaFFS/RbOT1rGw5Jpdl678qspOuSDPDSG6/oOLfx4wnkMJ6vKZ9oncnYZ3sqjjldk1OXtuORfGhBMsP0K2ULsVTFf3XSVJXXYvLkDM+5uVVu6eFaXPt0M8xKx3gHoyd5aH8MscRNqgE0C4lHzmcnVhKKoqjRjjaZFwVFiwVgzu877ZmM1gWj039+5/U0HFaLLT3TZ1TejcNZjuDd8pNumAOrkzH6Y/mLX+T988n4NTZ5F5WAt1QtBP50RmZFFC1OA2dVELGjXy2i6mK8j7VvNQcW2WZX21FQHg8wHL+97b8mJeBcBPFWC6IjmxyaP7kGwbpghIFBjL/sM78K/YnrCKcUiB2YVfHQg1jvT/BUEgmgj9NqPN7hBM/FHSo6KUV0xsCo25bhdPbUvbSvPz1gFfk5hCylAEyVCiEbineqZgYAJCHx/M4QEFvy+xYCxY6Cu7BHf0F61yZXzeQPHK8/9nfLjRcpY6AQ8nFSUcdHUwKMs9dKoDRwLyHrKhUlH7BYl4yXvQdvrbNasO2pVJjVU2P1VE2ckMxUEdNwMmDcH2GaBobj4BAw5jRBhaWb4KVlyzvWtYf3SabNwhub9e+24RAEUolvH4Ys1vPbdrNNZJu7to8HXs3E6IQzJ/IObJKM7Dt6lxtG4/nK2MadZfXeUhnjT3NYzJl/WyvaqpAtfUFf0pnjYbIVq0ZHyvuayBeM0QRrtkWsnIbnVLBNLCbFnx4Yu/GV80nCmLlTfy3FNsFb/NyX/PMpAacxpItzwSA4O99ecYJ1wwgWeLOQWN7ryMqq+9cfbBzwE6guShZR8Wb7zSInu/+A32MYIHxsNyGzLBANArqGgxPc5bj+mNfjs/IT7/F3DGy/ldPAaAAYVQXnVLXbBYvoyjGgtIAPDNOCvVPg2y4zs8cmSs+tgMX2wGB+uw+jYVC+xzyGzBjSd5oG/zf4tpSAExIR79jSZz66NLC47+khRcyOUdVj28TO2+XNjGBNlC/pz9sNQafy1u3saauBosJsHV7Uk4e4U4tiJQdnCp+paeJaHbR4rfu2jwI/Cfm8qqtqRNCnh8s7UbB3qFI9KvWWWrUTI2C1V8uZbstyHyBxbUjXt4axVG2sreg+lcWonk0b/07BRKVazUgyi6j4esvOdeoztX24m+Sc5eB+e5rRNW+fj0U0yZna/t1kr0plIW2U0vz1XDVIKl5ufVrZFB9VXnJYpVvsaczoyngW/pSD98Xr/KpKQFMF9Wv/0o4qAZdqt9ZiyKvq6ccC4mpf0FJRWZSpZ9VX0JUtlX1FWkae1VyV/HAeXul59/+aKoGLMo3SczVxURRlEXVTQ3ituvdyX07n9KzqtnYrNRXndft6Tx3ip7dZT6dq4yItPauhereISqt2/bT0vOvn5/I83m6muDxvWKUXPauYbafLPXtWyX7Nl1QCqve0/rnrVuWLl55VPW6VH6oK2aqq+mvV4jVKBYWq1L9cq27jm1KXaK70blcJqMa8lvEg9erHs8bjuR4H3nivitRreL4/j7rPz8bdx3VO16xZzeQdqsr0tFCqL9X35vRdaL0HhXqnT8el1mlQUjkpYDT+a6nKr8al6+Wtpmt39Wx13tc76zxbz4partsL53OlHHB+bq6u9SvvSGc+phLwZLwq2seQy3LFRd3m8sdKuecNVaAOFKl3dW+t0oq+/o3u/fvvv61+8H/++efmv2Ucs+v3n/krn3BkG85Ihs1tME/drmq1BWsQvn3JoaqhSST5pFs5GF/2I0XMbrthU7nKsyw7izTXHuspnNi4jNIn3UxqqugrLb5JuqeuTkHNGqscPWjvTX61r1nLta3bx263rbqPKbxXwltcil68qEPRVcu1fJ2T9ut7eZbqOfueNjjDxbXnRBUq9lftUQLlXckZtDz3Fw8M0NgK+FmRChS7Ke5sSFrMa2fXp7xuy3v0Tp7fm+u2gHlOzoCmToEPXC9f9aoHbt5FtbMY21QFl/X6u6dmFbS8HxdvHLwnmq7Oub6D2sm7k1xViDe3aD55de5VByrv8WbDgWrcaTxnqlaWycvvavMJSmSxu3q2uvdxV73Im7tNfQwpiJeh0tPsmhZxt/4p5/lv1p3VvILSYW1vAPJhTt/1Ys/oqi6kWKp6mGLe7M8sdlPczYR03Wc7dUmyOj3opjGk7ZgkYrdju7m830AHm+L38LLB+hnUx5v7DxNw6vYzno9eH4xePAYR72DUEh46h+ueV5KqEGRQa3R+QkJF+D7H8ZzR0zwsSWxP2UwaOqu07wXfDmHxehcv1dP92csjif0p+fiTXcLUfTz2R7+6TamIfRg9f4YK85XnXiJFQWGaNeuoZw7T/Eiop7Y71I+iDPDG4xA+9nb8fPCWgrgwX3xWJHG8oz96fm/UezBpCTtLRFycc+DbtmNuIFrUT2TPywlB8cmUjgrh22wH6+83QDujcpa3jG+aj7y7rdh+7CKl+a/ypwxWJY83R1BgNouBdOJSfyFFzO7Y/1IB5ml88d741v9J/pDBqtFoNBqNRvPd/AGDVfMt/N+fPgCNRqPRaDSaTyNjm17PJSFjZvbo9Xr0ev5Dkabm70B7WDUajUaj0Wg0vxrtYdVoNBqNRqPR/Gq+bLCK2MaPRWN/JBnb2H6MeNZA6Rcj/B492yb+1DkIH9u28VsvisDvqWVe261EdF1H+PR6NnbL/Xu2r9juYdv39/d5hfrN0kL8zudDCnw/fuHaCHy7/X34HgR+r4f90rFq/gu0CZDfLhhj97o8m9U7/faYrZ7Fnu0/WRGbBuoAABQNSURBVF+Nb++PPRqN5n+NrzcOyDOSJGTQ0oovS2aEgxHOOxnP8lWDDSiWTKt+up0lH54xXDSeX7cK+avljweyDCZmy9JiS0IG4Y6507UHFYCBY8bYvQ3DtFsF4GT0tWuUDft33WV2TJXGFZNnEkd5zuZwAMLHftuvIgXxcstXWjFfc0iUzFdyyDv1G5exkjWyJg3dir6FS5ck64tic5qfo7Oh2UKb7NgDRU5GxrD/5NkUS7XNyegtcX0ZhyRYRDUdp+LiouQhfJfEiihqKv6/S/lAo9H83Xym05V13TKxdgEm7Qu0ULDbQf+lb/GYRar61RZSPpHkURJbOTAYj2s/+ap12RHRlKndX7Dod21fKdltMry0bDXOxDYBPNJ39NGMgHW0wXTN19oFfgqjr3r8jJtkvm55xRxv369D0PVkKw3LVi3G1ar+7/UbZFlp8XaXE5NI+ZV2sSf90UrzkxjfP951NtL8SoriQeqmXRe3YDd1mRGRrkeYwGhdMKp+fTrqHA+Ax/jJ+CS2CVgR67dmjtU7YFlspjabh9835Mc1q9GOMLHwPNjFsdLgHQyUfvNpAhtu4UWdXI1G89/miwbr5/vQPmA4BB+zaGp3QPDMMNkC9HHumz5LgShMnA5GqhSAY2DIHfkwvTEiZRxTBMHFoyBjwgS8tF4kXQie7lP183U5HCV61L9HtUsEj8WHdE6EX3k5DyG2HXZcKyPLLLyOnvAbrlp6FuXJQA1YzVVawjtaupqfw2jTZDbatZbNJ78/oibJeIt2r6WMCZO7dqBSIjvuT/guh6igPL1TwqcXQrReXU3OBb6dsyj2V8NSpR3NkMV6xV4/thqNpobPeFiH/ScDWkZe8Kvb0Ld2PMoAQuxDvSESHhfn3u5N7EKTWegRTYABxPFR/ZBvmCUZbDh3mxDLGRkWw2PMabETedWl4nkY0GFVlqeTQxQ1i5xmG8X976oT2WFYs4+bFI3i6s+SYnnqvHG1uBDU7VrtZks4eyN146qLyFtZJnFIQtOE4J3t2bhJW2ejeoTfw2XC/NUmDcJn6h4YVsaBFDH+sa8E1Q2H1d5E+FN6LnjRolVo/dylrbUz0+8ktnuqu1VbN6hvR+D33D8TyeiK3KHs1ZtZMv6uf/VsSOLpDKLi9hkwYGfb5Is185amJTK2CQcqWqEaPADOGM91yYtVNfZLYv/IfL962M5ovSA3XcLd/L3UMY1G85/niwZrQZ6BNWlpM5Y3t0v9TRjOin3DB0cZFgv2T79I7SFeazIneGjNCpsEJuvKq3H2ctQbD5INSTZk8YqBZziYheCh1cYRYEi/rhtSBtmwbmMFxdkCPbLJ1P8WBTBesAAKebGyDcfhugKrWJq4hyqsac5Zj+Zqua7nUn1YMy99zxMjY6bKyuFwFMgvdB+7bI+fMfau21JeeagMJ2C87WHaXuXNMnBWe8q58sKaM8Cy8IYTxuORegwqr5kR7CkDJaz9txHsSwIZY5ufylp+B4d5ZGG6PvPy0RD7Y8gYf5mrNKfthgyLCeKc1nTczkgSC/omK8dAxlM2w7p0FoNgvya2TcywvuOfjH2W/TV7xwAES9MlsSwsAMuC0OY66LCx75MFTpGGotqGRqPRPPIZD+szLAv+RGi6CpvWewobvI41PM1hhbO3MPuSp0oSTzcM0zfWvytOK5ZTwsOEdeW1Ne7TGUAtbw0eQ4xyxwGwBjUFGoZzuY3ySAgwfEyX2F6vcmXBny7562HNCrFUOZvrd9xZAt+ckVkeHgnJ5kgxcjCMd3NJBf50wzCdkC9jxHzU0Aa1YDkNGSzWb7aPVW0pww0s1mvKmgN1Vilez2W2HF/yeA2H1b5kJSViOSVMZiTJTHnn58avjnj8TZzSb6bx/Pf0pjeCcwq22LrgpQTnd1RyDAFvURmrNtPNhHXtjF0pfozWERtzhmse7sY3CaMVq/N/mwwssF5oDS1jG/ONSINGo/nf4msGqzxyAIb9xkCRMvaGEwb5Dkm3YhAVnodhnYfvkJBkFpY35Pzz4aCqsy3vcZ2hx5Aty9i87YttOJhIrnv0PhyDm4AXsd6XzwuDHAcneKVIp2af8ZR8sX8ztFiwK6iKxo5sDxkZE4pTeO5xbyqvbbhovCfN97Xawm6jsiUOW4R0fmA+IolVcu8bE4JTNb1Hup9ztBNlaBsABhQx/hLGjT3g7xH4dshgvScwBL7rsh2PmDcFG7KsXr2gNZ2m6p+eDxjPV+xbH0KHeZoyvzJK4rhgFDgYlcfVWcElXqv5HA5jD5LZEhn8tJdV5X/SqLAh2CbgpdeDylVkrIo4ZGSYvRlgYVkwHA5hMGBcVbua5kgVcs7u07vqx89sM+XBkdpIBky6LqzRaP5H+ZLBejJYho3e09PAOKKfL+maxtoenk+qkPhVzprwSdyM4WL1krFXqx4gBf4yBCYsivLutC5V2W8VyrSxi9mN9qwMELHPsT9/zRtnXMuKmRzDWbs0TV1e24kiVyHE5kwPzgYvwHDAcdrDpSFkWCPhU0gJxY6p211+q/WY21dE+CazzCMtVjhI7lKDMZyAlSnwpz3COo/8DQLf3jJe7+/OtclLWwAWgzYZs5pjlgKc4DY3Uwof9XhWVdX3HNWZnXKdZ3lKcX0uT4xVKWKWoVoXAMsiavMMS4E/VXJenFfxWDRUeF/yTgEvpVw5SBEzDWeoTVh46eOk7XaZq+NqfEYlwp/iJtcpSRaWN2E9D2ovw7vHBuCMPUgSlqJ9DJIiZrnNgQGDuxuYV+/TNo4fnk/Iq/SbDcuY873PNxsOAFOVZ/rwHomtmqTdPERHDiflFiNgn+b4zFtzVAEIFkTQSfnjZQ9rZ+NWo9H8r/Ilg7XIM7Aixv0ltj9gfS+nI7aquKVvYHJgKaAmMv0ClcfWGjSEXr+AiLHdGXgeynebs136bCu5lTzfkCQZlheRrrt64e4pHgX1TzHyUXA2OJ1gztE2sY+PkksqJ7g2ufQl5G5DZkXURdaVBM6QVger3LHJLCwrI6NPsE/Jey7uckzZ1dFsjlgXI7rGptUEyeM1e1UZq+6hQ2GO4bDaFwh/itkLGyYlEhFTWzjyGqfoQ+PBYNQcrOF0mJTJGHtGu2RXDfnSZnMYMlkUlNV5SylYTk16W2XA3exG+EzDAev1/iokTGXE2mxrogVBFa2QsY2ZH4ntkM1wwXpdKiNSxPjH24FC+D3cQ0RxWubquOyhV3su53terHEuKyF2S6ZTm8XDZOO9YzvjjFWayVawahnkDCdovH8in5FkQ8bXiiFnVLJ7xoR5cDXOPpFQEcq9ejvp2W3IrAnr00acFd1e2e6KLdrDqtFoPs0XDFYVarKiEY4TwLaH2dvc5DddtP/AMCccpjHS+YpGpPLY4j1TJXgDJ2DhbdgOxoxH5jnHUnmcNhyGk3Ohi4xjxGh0+RB2JT9S3Au9HusCxQbBwmPmmvj976g+VnqJXrqvvY5qIjJpnRSI5QyilMnGVWkBOKxSD44m3OkCfCqHtctx3aI84pthdFZgeI4KnxcDG9M1SSyPdH9t6BpvVjH/lFJGlafrpRd5oU5kJMmjUW9URvzANrHjKwNYxkxdWJQ119VwWO3B79nEbfncyYY8Xd8W2twZdDK2cQ8R5V0+xOm4Yttkxp3RKnxl4N7fc8NQHuu+T28aP2zz1WO7xWFgAYcjfEWv4KOTccE2sYiKG3OV3SbDmqyvro1KK8gnC8YNetfbsEqn6aiNqj2sGo3m07xvsIqt6mhSNQRwVile4jIzffrlCucspF5p/xkjJpgsRdug/4QqZ9Ybf49+jLPaV58aiYh9ppsDw8mC+f7WsDOCAGKb3mZItHghdD8YPeqnmkfCWY2cVuWxqdVR/eJH7aSXWJ92cfL8tUwKZEx4iFivTHbXH5qz969jNduLnFS4Ol1tGWNPNwwX71UeG8GeAhtzluDag04G7yH08be1v/DoTH2usPE68tJBqHrJ5NPGGReaZb4MRhOL2WZ39ujJ3YasVdfTYey5hDv5qIxx3uHiaSrIbpPhLfYNv54mdrd/FdsEa1I03y9njudOiWXQbEx3OLZ7+kPgbV3qDu/dq4gtiTWhuN7guWjxfi8ZSQ6rpnj/FpLDgK5ZLdlmid9VvOGgJEl+ufKhRqP5w7xpsNYVvyh5l2SWsBUrHKp0gLNxqT4uvTBm/qaXVemTvhoSVsf7TGxfSkmxWxJuEjI8osWYxaLqliUExfHINq9G4MEAcvA4MHNNNl7aQfLqVRzGUcr8w1XHMrYJaevG9MyQUkoGk/Ue40NdwF8xqjptL/aZ5oPasO8rGMGaaGMy67h8cw61RM6r/z1dsuKuYLGjQLvyRg2JmnreDiKiwamDkNL47dS68wlG/87czjOswXNjO/uSW1nwVBXPHGDdlbMdD5AlJr0nN877TRbS2/nZLZhjouGWpe8zGM8ZOQZF1cnq7caDHfEWc1aOcUnnuJvwKf3fIWm5whTAcfz5NC+NRvOf4j2DVe7YZB7pnYvOCNZE+Y6RKYmnyqC9+YA7c6LQZBqP3pB/USkIeOM3Am4Fx6PZkj8rz325Qalw5dsjjPv0MWFr4pJSrq5DiOr/j/0e7uGI5It6njU4D96Or3UWE77NdrBmv2o50qu84zpkvGypSK5Z/q5xgDr+nJ0Q9IFj6Kre5R3yLU8eLKXtULsz/OWW8fxT8kIGwb5gJN+U4LrazjmN8rqo6TqHuNixo8Xjd00G/X1dnuMdJ43f+defTZXeczGSzYHVyRjtYtQ2o8LsrY66Iufepu0PwZq8lr/7Cb70bi5njTnlb3PVqliKmKVdNR2JXupz/epOCfZVw5KOXuOHvGwpEPyE6ohGo/mbeMNgVcLtw7Ss+WAaBKsAGduqIvsh5nwK4U2JR692BapyqN7xZMojm5wWUS2DYF0wwsAgxl/2mV95pMR1mFcKxA7MqkOMsyopa7b4rXSQQtpgwWaHDAIMKYiXW/rzu+KYs2wSwIDBGPJQeWDmTZd5tHrpvp30X8/1Hc6tRNj9f7dhDixI8ubQoeGw+rin+x191patOQErs8+gMG9SSeRxQ07wRz1+ieszri1Mkw+heWM0wZptESunwXBW+ZOT4msnNJpYzMKYlVP3lFSRnrscVmceEZpLRPCT3a/EOb/+Zepaon4YwxkxCKui0o2LOfuM0omU4qqRyD1HdU2GjxrWKnX/QOj73GbRHEjUbK5RkUGj0fxv8rLBKuMpm0lT/uNVqKdo+Fg4cyLLZGba0FFg/9L68s0PUJGT8eRDYhggfGw3IbMsEGb9YG44OMFdjuvI+SFpy6rorLayvBKXnx0Ypmv2ewNVTGGTTxbMV3VV7VURChIRT3HdDCyPdN1i2r9xnp+6NCosXaWc/M0fshsJsgu1+co/hoXnHXBt/yYvW1Xjq+YbN++8EbBOfaa2D+v5TQGiWieEdxpg3GEEe9K8R8+GYh3cqQS4HKg6Kt2uxDqymdo+x4UKhV8XGEmxZOoe3m7tW4u4T4HqvCK+qRwA3+cQrmTdiChWAQZzBrbJzF02TFC6YxiOSg2qGxjEFheLqEbb2DyGzLiTJ6xYfU3OWqPR/Ed5zWAVPkuaqz9PHVOKusrhM8ZZAmlm9thEKevGXueV7ikRadEiJWUOsIBkK5jft9qUQnlhsgR/XDR4FCrNxsOQqFN7wMrQG6lWmebMrQy99gra+kKEQ4Ooi0TEqhOAeWqpumv+KMrKWL39CKu2isKfMu2F4E2YjPu1rVjN0ZpidNn3g/zWu52pnqKu/XVXrkacOZGVMHsiHfSneN/gVB7MLHsh8nDX2ayWDrVvaoKpPFrRfE9RxCxDk96pkMmyiBb1743hrNibAn86xX3QYa3JHxY+PTe5+oNL7/o/G7rEOauSQsRMp707HdaClbnDNme4veQmrcQI9uxH6thm7lXSgGXhTRasi9WtjfXmsZ1XV/lKzZGJOioN20Hx3cbqlJCUYn8aG1WqC/bydtFDiF9fNcihLd2hVs86xnbVPfktzb80Gs3fTXeDVcT4x/ltt6gzktifko9Pnr1nOKyKFEyXZLNlCczvjNZTt6trTchGDCVJ5SYuZlK/iGV5jGtKXE9C3oPxmrKKl0sRs9tu2FSDdJZxH3Ws9qtyxEaDqpp8OX7Qqrw5hknN9ZMxh2TDY5xbySed9CYvQu714XojaOqEdOpyJJFix3IbsjlkZM+KWU67e6dgR6iCIraCtm62Z8YLFmMohMRovdenlJKQeF7vpXyJj+UeO8xTj6mrCn0s687nNxzeOMUPd1//7HQzrOGzOMBpCxyb47AXaiXTbjGCPWVw8wdWTtBRl5NKwsrptryzouws0nu/m4B9bVpAwL5sSCr5oWO7SPzNOz9LUvgst+MHBZKPUhnELNY1k3CDYH93vsNFY0qN8BPcLjm6VRvg0+T/vVbEGo1G80jv33//bU3B/Oeff1o3IEXM8th/MDjfRp5aZL6hc/rajhDxDkYtnlsp8Kfd9AeliFXRTEOVuBAF5r339wWE73Mc34c3P0Crp+5Z/malczpJ2Xdpf/MRKq/78FHI/pVtiHjHsT/6lg9qXWcvKB5z/a493R092EolYNJNV1bG2Obms6FvzQOnNKii7NBMQgri3ZF+27hTvyLCX3Icd5PRkyJmd+yr1rxdth3vOI5GBA0vvBQCzKbUp9NkOIfBuFOK1EvPsUaj0fABg1Wj+XGET89F5Unrr53mjyLwey6k39HgQ6PRaDQntMGq0Wg0Go1Go/nV/N+fPgCNRqPRaDQajaYNbbBqNBqNRqPRaH412mDVaDQajUaj0fxqtMGq0Wg0Go1Go/nVaINVo9FoNBqNRvOr0QarRqPRaDQajeZX8/8BpGj72acloXMAAAAASUVORK5CYII=;movable=0;resizable=0;rotatable=0;deletable=0;editable=0;connectable=0;" parent="1" vertex="1">
                    <mxGeometry x="-372.9955615234375" y="549" width="684" height="72" as="geometry"/>
                </mxCell>
                <mxCell id="12" value="" style="shape=image;verticalLabelPosition=bottom;labelBackgroundColor=default;verticalAlign=top;aspect=fixed;imageAspect=0;image=data:image/png,iVBORw0KGgoAAAANSUhEUgAAAkEAAAEUCAYAAAAsr+J0AAAb+klEQVR4nO3deZwU5Z3H8e9TXX3MDCA3DqKICkK8gy5m47F4IBFjvPAMMfFYV4kao6sZNSYRAhqvJIpHvOMFQY0axOiuy7q6boxiJIZgRJGAKBFEBpiZPuvZP3qYmZ6p4uyegarP+/Xi9WKqq6t/XS/g96Wep54y1lorAACAiHG6ugAAAICuQAgCAACRRAgCAACRRAgCAACRRAgCAACRRAgCAACRRAgCAACRRAgCAACR5JbzYHPnzi3n4QAAQBcaOXJkV5dQUWUNQVLITlihoNx/vypZq/jow6RYrKsrAgBgo9asWbPVx1i4cGEZKtm2lT0EhUahoPqvnaDCgvckSbERw7XDC88QhAAACAnmBAXIzfmflgAkSYUF7yn3yqtdWBEAACgnQlCA/DvzOm6b924XVAIAACqBEBTE2o7bHE4XAABhQVcP4huCTOfXAQAAKoIQFMB6XseNhtMFAEBY0NWD+IQgw3AYACAEnnvuua4uYZtAVw/iMScIABA+6wMQQYgQFMxvOIw5QQCA7Vj74BP1IEQICmKZEwQACI+gwBPlIMSK0UF8rwQRggAA26fjjz++q0vY5tDVg/jOCWI4DACAsCAEBfC9RZ4rQQAAhAZdPYjPnCBjuBIEAEBYEIKC+A2HMTEaAIDQoKsH4bEZAACEGneHBWFOEABgOzd16tTNfk9dXV0FKtk20dWDEIIAAAg1unoQ3+EwThcAAGFBVw/i+xR55gQBABAWhKAAfusE8RR5AADCg64ehDlBAACEGl09CI/NAAAg1AhBQXiKPAAAoUZXD8JwGAAAoUZXD+I7HMbpAgAgLOjqQXxvke/8MgAAQGUQggJYvzlBXAkCACA06OpBfFaMNkyMBgAgNOjqQZgTBABAqNHVg/jeHcakIAAAwoIQFIRb5AEACDW6ehAmRgMAEGp09SB+c4J4ijwAAKFBCArCcBgAAKFGVw9gfUKQIQQBABAadPUg3CIPAECo0dWD+D5FnjlBAACEBSEoiO+zwwhBAACEhVvuA+ZWvlfuQ3YJm23ssC2/ZqnsyuouqAYAgM2QGNjVFWwXuBIUxGdKECtGAwAQHoSgIDw2AwCAUCMEBbC+E6M5XQAAhAVdPYjPLfKsEwQAQHhUvKv/4ZYROvXplZX+mPLzXSeo88sAAACVUbG2vvzpS5ToN0KH3VCpT6gwhsMAAAi1CnT1lZp+7ghdouuUXfGEflL+D+gcrBgNAEColX2dIKmvTr9/gU6XJH1c/sN3FlaMBgAg1Li0EcT3ShAhCACAsCAEBbAMhwEAEGp09SA+iyUyGgYAQHgQggJxJQgAgDCjqwexfg8P41IQAABhUYG7w0IihHOCvI8+VsNJF6rqrslyD95PuZkvKD3lTnV/81kV5v9N9uPlge919h0uZ+faTqwWAIDKIgQFidgDVHO/+y/lZ8+RJNl8QcrlZZLJlmuFyboLCUEAgFAhBAUwnu0wK8g6TmgHxFLXTpSunShJyj8/R03X3qqaZ++WGdC3iysDAKAyKhyC9lfdigWV/YhK8ZsTVOYrQTablfe3xVIhJ2ePXWW61ZS+3pSRt+jvsg1Nig0bItOzh5QvyH7+hdSrh5TJyVu8TM6eu8okEsX3rGuQt+hjyTFydh8sU5Usa83K5eT9fZls/TqZIYPk9O5Z8rK3arWME5Pp2V22fp28DxbL2WWgTL/e5a0DAICtxJWgANb3FvnyhaDCn/6q9JU3yKtfJ1NTJbt6jWpefqQYKjxP2UeeUWbaI8XPjcWkWEzdXpshb+mnajjpQqV+fIkyP39QdvVa1Uz/pczuuyh79xPKPPSkjOvKFvIyrqvk989RfPyxZak5//LrSk+eJru2QSbhyjZlFD/haCWvukAmVQxb6e9NkqkdIGen/so++qyMcWSzWSW+c7KSF5/NOgMAgG0GIShIhR+gmr7+l3KG7Kzq26+TSSblfbBYprpKkpR7+iVlfvGQUnUXKn7iGMkxyr/1bsn7sw8+pdSPL5Wz6yCZvr2UffRZZR5+UlVTLpd75D9LnlX2vhlKT7lLZsjOcg/cZ6vqLSz4UE1X3qjEqeOUuPRsmWRC+dfnKn3FDXL69FLiuxNa933tTTknjlG312bIOK6y901X5p4nFDtoP7lfOWCr6gAAoFy279udKqnSj83wbHHIrfljnD12LV5NsVaZOx9V/BtHKT7+a5IbkxxH7j/tV/J29/BRcg8fJWfwTjLVVcre/xvFTzpG7phDpVhMirtKXHCGnF13Um76rK0uN/vQU3IG7ajk5ecV6zRG7lcPVPzEMcpOn1U6fNi7l5KXnVMconMdJc4/TWZAX+VfeGWr6wAAoFwIQUEqHIKS352gwnuL1Hjc+crNnC3li1ee7MovZL+o3+gVk9jeQ1t+b1eskl3XIPeAvdrV68jZc3d5Sz7d6nq9RUsU22+45Jb+kXGG7y7b0Chv1erW2obvVgxiLRtiig0ZJLt8xVbXAQBAuRCCglR4OMw9+hBVP3u3YqNHKf2zX6nh9IuLYSad2bQD1FS1/n59YCsUOu7neTJVia0v2PP8J4s3n6f1E7MllQag9buta5R6dNv6OgAAKBNCUJBOWCzR6d1TqWsmqvrhm+R9uES5/3hNTu0AmVRS+T+8s8nHMQP6yOzQTfk/zit9IV9QYf77cvbcbetr3XM35efOl3L5ku2FdxbI1PaX6d56Z5v3/kcl6yzZL+rlvb9YzrAhW10HAADlQggK4heCyjglKHv347KfrpDNZmU/+liS5NT2l1xH8fPGK/fsfyr78NPyVq2W9/kXxSGzIMYoccGZys2ao+yjz8iuXiP76QqlJ90hrapX8pxTt7re5DnjZVesVNO1t8ouWy5bv065mbOVm/WyUhd/q2Rfb8knytxyf7GOjz9V+ppbpHhMiVPLc5caAADlwN1hAazfcFgZ5wRlZ81R5p4nJEkmmVTy3PFy/2WUJCl59njJk7J3Pa7Mzx+UJMX2G7HBW90Tpx4rFTxl735cmVvuL5Y7bIiq7p8qs+PWL3jo7DFYVdOuV+and2rdcecX6+7ZQ6nrLpE79rCSfd3RB8s2pbXuyAmS58nZuVZV90wurnMEAMA2wljr+6TQLTJ37lztO7hm4ztuB9YedIKUL51j0/2Pv5XiZcqN1sr+43PZbFZObT8pHu+4T6Eg75PPpKqUnD49N22NHc+T/cdKqaZapkJzcOwX9VImJzOgT4eaGr91uUztAFXdeKVsQ6PUmGahRADoZE2JgZKkqVOnbvZ76+rqJEkLFy7UyJEjy1rXtoYrQUF8HyJfxtFDY2R27LvhEbZYbPOf1+U4MrX9t6ayjTK9dti0/WqqpZrqitYCAMCWYk5QEN8HqHZ+GQAAoDK4EuTHWv/bwXnkw0bF9hkutXueGAAA2yJCkJ+gAEQI2qjkv5/f1SUAALBJGODx4zMSVu41ggAAQNeis/vxXS2688sAAACVQwjy4btGUDnvDAMAAF2Ozu7HZ7Vow3AYAAChQmf34/vcsM4vAwAAVA6t3Y/vcBiTggAACBNCkB/fh6dyqgAACBM6ux+/dYLK+PBUAADQ9QhBfnznBBGCAAAIE0KQH26RBwAg9OjsPqzPcBi3yAMAEC50dj++E6MZDgMAIEwIQT6M13E4zDInCACAUCEE+fGdGM2pAgAgTOjsfnyuBHF3GAAA4UII8uVzJYjHyAMAECqEID++V4I4VQAAhAmd3Yfl7jAAAEKPEOTHJwQZ5gQBABAqhCA/PDsMAIDQIwT58QtBPDYDAIBQobP74RZ5AABCjxDkhweoAgAQenR2Pz4ZiCtBAACECyHIh2U4DACA0CME+fEZDjMMhwEAECp0dj88QBUAgNCjs/vxDUGdXwYAAKgcWrsfv7vDuBIEAECo0Nn9+IUgniIPAECoEIL8+GYgThUAAGFCZ/fj++ywzi8DAABUDq3dh986QYY5QQAAhAqd3Q+3yAMAEHp0dj8MhwEAEHq0dj88QBUAgNCjs/vxe3YYIQgAgFChs/vhKfIAAIQeIciH4SnyAACEHiHIh2VOEAAAoUdn9+N7izxXggAACBNCkB/fW+QJQQAAhAkhyI/fnCAeoAoAQKgQgvz4XgniVAEAECZ0dj9+IchwJQgAgDAhBPlhYjQAAKEX6RCUf2OesjOel21oLH3Bd52gjqfKe2+RcrPmVKg6AABQSZEOQbF99lT2jkfUMOZspafcJe+Dv0uSrM+VINN8Jcg2ppX77UtqPOv7ajjjUpnu1Z1aMwAAKA+3qwvoSqY6pfiJY5R95LfKzZyt3MzZin15LzkD+3fY1y5fqfSUO5Wf/d+yDU2SJGfwTnIPPaizywYAAGUQ6StBkpQ4fVzJpOfC2/N9h7jyb72r3MwXWgKQJCXO+gZ3jQEAsJ2KfAc3AwfIPXzU5r+vZ3e5Xz+iAhUBAIDOEPkQJEnxM7++2e9JjD9WJpWsQDUAAKAzEIIkuQfuI2ePwZv+hrgr9/TjKlcQAACoOEKQJBmjxJnHb/Lu8WNHy+nds4IFAQCASiMENXO/drjMDt02ad/EhBMqXA0AAKg0QlAzk0oqftIxG93P/eeRcnbfpRMqAgAAlUQIaiMxfpwUi21wn/iEEzupGgAAUEmEoDZMbT+5ow8OfN0ZOkTuqH07sSIAAFAphKB2NjRBOjHhBJ4mDwBASBCC2ontP0LO8N06bDf9eis+9rAuqAgAAFQCIai9gNvlE6d/XYpH+lFrAACECiHIh3vMoTK9dmj52VQlFT9lbBdWBAAAyo0Q5MMkEkqc3Bp64t8YI9Nj09YQAgAA2wdCUID4qcdKriM5jhLf3PTVpAEAwPaBEBTA9Ost96hD5I4+WGanHbu6HKDT2ExGstb/tRWrlPvdy1t87Pyrbyn/5p+3+P1tZaf/Tt6HS4o/eJ5sU8Z3v8KCD1WY915ZPhNAuDDTdwMSZxwf2AyAsMrc8oBs/Vqlrr9UJpksfTGXU/r62xUbsbucPXbt8F7vg8Wy2VyH7bERe0jGKDd7jpx+feQeVLrelrd4mbIPP7XBuhITJ8jp26vl5+wjz8jptYOc3XdR9p4nVPjrB6r6xQ8lp/T/doW35ys7fZZqnrpDJpHY2NcHECGEoA2I7btnV5cAdLrkRWep6aIfqem8q1V1+4/UMOGKDvs0nlcnde/e8rN70D5KXXex0lPvlrd8RYf9uz17r+Qayao4zNyOScRldhogScrPfkWyntxxo0v3yWTUcOQEVT92m8yOfUtec8cfq+wpFyn7yDOKn3yM7LLPWl6L7Ttczn/+rwpz/yKnd2uIMj26ydT227STAiCUCEEASpiePVR170+Vm/l7mR7dVH3nTyRrlX9+jmL/MkqmW42UTiv/5rtyDz2o+J5U8YpR9f03+B4z99zLsmsb5C1eKtXXK/vYcy2vxQ4YodiXhip53mnylnyi3H0zVXX/FMX23EPZXz+t+CljZXp0K75/1WrJeh2O7/TtpdTVFyk9eZqcnWuVuf3hDvtkfvarkp/jRx6ixHe/ucXnCcD2jxAEoIVd2yDv78sU23uYEt8+SZJk+vZWZso0Fd77SO640XJ2rpVdtly5J1+Qt+ADJX/wbzI11Rs8rrfgQ3krPpddVS8vm5f+NL+4/U9/lc4Zr9iXhkqep8wNdyt+xjjF9homWavCO/PlLf9Mqasv2mjt7phDVT1ybzl9esk94iuS53UcGvvL+8re9Xhx2Mzd8HMCAYQfIQibx9o2v4yk5t/LynpecbjDtt3Pa/OzSvdV63ZjbbFptX2vUfM22/w22+Y47faVlbzWz7Drt9nS7S37Wq9Yf/M2W/L5Kvleave9jLWy7b9Xy2eVfq/120rqb/le7c9n6/eyAd+r5XOslbzW95d83zbHNdbK9OlVXPtqE5Z5KLz1rtI/uEmJy76txGnHKf/Gn5WedLvcg/dX9a9vVubme+UMG6LEaeNU/ehtSk++Qw3jL1bV1H+XM3RX2aYm3+MmJp4l061Gjd+bpNg+w5Q89zRJxWE1k0xIeU/pSbersOBDxb91svIvvy67arVMr57KPfl7xY8/Ss7gnXyP7S39VN7STyRJsaFDit9j3nvK3Hyvqm6ukxnQOnSWve83Us/uBCAAkro4BNm1Dcq/9KrsP1aWNh/5NKWgptr8D7/1fJpAQFMtbajtGmRQU1WxobRvPiVNqc1xWusvDQpBTblDgGi7b7vvZb12tfo0VdN2//a1bqSpBjVUJolvv8xDT6pm+i9lutdscD939MFK3VKn9FU3yhk8SCoUlJr4TbljD1P6+jvkvb9Iye9OUHbG8zJxV1U/vVy5p1+UHEe56bN8h6EkKX7KWKWumSjVr5PTZi6R0lkpEZdiRoX3F0m5vDI/u1tO395S317FSdSHjFRmyp2qumuy77ELf5yn3FMvylu8VKlrJsodN1qxvYcqtv8INZ55mVK3XqPYfsOVf32u8q+/rW5PT9vi8wggXLosBNk169RwxqWyn3y28Z2x2YgraMt+8pnyL72q+MkbX/ncPeRA1Txzj0y/3sX3NjQpPekOeUuWqepXP5WpSsn9ygFquuR6eYuWKHnZOVIsptg+w5Q45xQV5r+vpn+9RjW/f6hD6PJWrJLp07O1rkxGJpWQjFHNo7dKseIVmvR1t8nZa5gSp42T9/kXsks/kRz/hxfHTx6r+Mlj1fidq1o3xmJKXn6ezKBaNV1wrRIXf0u5B2Yq+b1vywyq3dzTByCkuiwE5V98lQAEdKYtTMbpyyYX1/ZxY1o3+kwp78nU9pepSio35w/F2+knfb9l/9yM2YqfMEampkre+x/JGTak+YW87Gefy/Tt3VpSOis1D4fZdQ2t21esklZ+Ibt6jUwsJrPb4C2qPXHaOJnqKqWvu01mUK0Sp43bspMAIJS6bjgs4H91AMrPDOwvd8whm7SvXdugdV87RzUz75AzZJBSP75EklT4cKnSU6ZJBU+pS86WO/Yw2UxG2V8/I5vOyKSSsvXrlH/5f1Uz8w55i5epccIVqnnxQZmePZSft0DGGDkjdmv9sExGSiblLf1EDSddWFJH/g/vKHPfDEmSM2yIqu+butnf2/vbR8rc9Zhi+42Qt3ipmq66UalJl8tUJTf+ZgCh12UhyB1zqMwDM7katL0yps0vKxlHkpFp2aZi0DVGUpttxjQH4OI2Y5rDsGNkS46pdu9dv7+Kd/yUvN68reRz1Ly/0+6Y7fbV+vqNjOOzr3Ha1dBaq2n/vdr/Uptz0Lb+Dt9r/Xnp+L1MS61q91mOOnzX9fuq3fb+fYp/3zYyH2g97+35MqmEnF2ah4369FT2V9OVmzFbqZuvliSlf3CDavb/kjL3zVD+9bcVP+qrMkMGKff0i4p99UCZgQNkVFxrK/vUi0qeO16FV99SbORepQsWZrIyyYScXXdS9zefbdnc9L1Jcg4YruTZ41u2BU269mPTGeVmPK/sXY8rfuLRSl5+nryln6px4nVqOvcqVf38hzL9+2zy8QCEU5eFINO9RjVP/EL5l16TXblK1mn3j7qcNg11I021pcE0b5Pp0Hz8mmpLQyppPm22bWLzadnWvvmUNFXb/HpwUzbtt7fft933aqk/oKnadt/LdKh/I0215HvZjg0eoZR/613F9h0hu2adsr+Zrdz0WTKOo9jeQ+UevJ+k4n9iGk6+ULEv762a6b+Q6dFNhbfnK3Pnr5W68gLlX3tLdtVqqXuNck/OVvzEo5V76oWOt7qns1IyXvwz5bb5c+VIxsRKFlY0qYSSV5wv+d3lZq1sOi1rpfwb85S59hbZZFKpyZfJPeqrxUMOGaSah25S48QfqfH8q1Xz1J3cJQZEXJfeHWZ6dFP8lI1P1MSWIapgSxTm/kWxIw5WbvYrys/5P6UmXyb7xVrlZ70sWSvvg8VKXnZucU2hP/5Z+VfeUHzsYcU7HI2jzINPyRnQV6ZfbzkD+8tbtFSZq35WvCJ1zKEtn2NXrJLNZmWqm9cYsla2fp3sZytl69eq8Kf5yty2Vt6yT+V9vFzVD9+kxFnHt+xr0tmW32duulf2o2XKPjBTVVOuUOJfz1D8hKOleOk/caZ/H1U/cKO8RUsIQABYJwhAK7u2QYW/LVLi++fIHbm3EmccJzmOso89J+/DJWo4ZaLs8hWq+f1DqppyhXIzX1Dm1geUf+F/VDXtx+r+xtMdrhSaQbXK3Hyfqqb9RIrFlP7hrbIFT96CD2T695EzqFbZ6bOUve1B2Wy2eBVyQB858bhs/Vo5I/ZQ/OhDZGKustN/J62sl7e6Xt6q1TJ9eyv72HPKzZ6j6iduU/bx59T4nSvl7DW0GHRSCRk3LpuIFy9opnOy2axsJqPCq3NZMRqIOEIQgBY2k1X82MMV23tYydCnScTl7L6L4icdo9hh/9TymIz4qcfKPe6I4nydgGFSu7ZBySvOkzuqOJQW22e4vCXL5BzxFcWPO1JyHcUPHyVn0I5yBtXKDOwX+KBT25CW9+cFkmOU+LczFfvyXjK9dlBsn2Fyhuys1DUT5Z1xvApz/yJv9RqZQkEqeFI63bzelyTXkXGr5AzbsjvOAISHsbZ8K+DNnTtX+w7etMmXACJi/T8xzCUDOk1TYqAkaerUzb+rsq6uTpK0cOFCjRw5sqx1bWu4EgSgsgg/ALZRzsZ3AQAACB9CEAAAiCRCEAAAiCRCEAAAiCRCEAAAiCRCEAAAiCRCEAAAiCRCEAAAiCRCEAAAiCRCEAAAiCRCEAAAiCRCEAAAiCRCEAAAiCRCEAAAiCRCEAAAiCRCEAAAiCRCEAAAiCRCEAAAiCRCEAAAiCRCEAAAiCRCEAAAiCRCEAAAiCS3qwsAAACVUVdX19UlbNO4EgQAACKJEAQAACKJEAQAACKJEAQAACKJEAQAACKJEAQAACKJEAQAACKJEAQAACKJEAQAACKJEAQAACKJEAQAACKJEAQAACKJEAQAACKJEAQAACKJEAQAACKJEAQAACKJEAQAACKJEAQAACKJEAQAACKJEAQAACKJEAQAACKJEAQAACKJEAQAACKJEAQAACKJEAQAACKJEAQAACKJEAQAACKJEAQAACKJEAQAACKJEAQAACKJEAQAACKJEAQAACKJEAQAACKJEAQAACKJEAQAACKJEAQAACKJEAQAACKJEAQAACKJEAQAACKJEAQAACKJEAQAACKJEAQAACKJEAQAACKJEAQAACKJEAQAACKJEAQAACKJEAQAACKJEAQAACKJEAQAACKJEAQAACKJEAQAACKJEAQAACKJEAQAACKJEAQAACKJEAQAACKJEAQAACKJEAQAACKJEAQAACKJEAQAACKJEAQAACKJEAQAACKJEAQAACKJEAQAACKJEAQAACKJEAQAACKJEAQAACKJEAQAACKJEAQAACKJEAQAACKJEAQAACKJEAQAACKJEAQAACKJEAQAACKJEAQAACKJEAQAACKJEAQAACKJEAQAACKJEAQAACKJEAQAACKJEAQAACKJEAQAACKJEAQAACKJEAQAACKJEAQAACKJEAQAACKJEAQAACKJEAQAACKJEAQAACKJEAQAACKJEAQAACKJEAQAACLp/wHET4ZoOu0nLAAAAABJRU5ErkJggg==;movable=0;resizable=0;rotatable=0;deletable=0;editable=0;connectable=0;" parent="1" vertex="1">
                    <mxGeometry x="-347.9955615234375" y="636.9966259765625" width="577" height="276" as="geometry"/>
                </mxCell>
                <mxCell id="13" value="" style="shape=image;verticalLabelPosition=bottom;labelBackgroundColor=default;verticalAlign=top;aspect=fixed;imageAspect=0;image=data:image/png,iVBORw0KGgoAAAANSUhEUgAAAqcAAAH1CAYAAADLS1dlAAAgAElEQVR4nOzdd3wUdf7H8ffuppECIQFC7wmgSBdEEeEABeyApwcKKlhOBEHvcYqHiNiwnf6wgf0ElRMsHAooRUERUYqC0gIEAoQeSEL67szvj7hrQiqwm51kX8/Hg4dh5jvf+Wwim/d+5zvfsZmmaQoAAACwALu/CwAAAADcCKcAAACwDMIpAAAALINwCgAAAMsgnAIAAMAyCKcAAACwDMIpAAAALINwCgAAAMsgnAIAAMAyCKcAAACwDMIpAAAALINwCgAAAMsgnAIAAMAyCKcAAACwDMIpAAAALINwCgAAAMsI8lXHWVlZOnjwoDIyMmQYhq9OAwAAgGrEZpqm6e1Os7KytGPHDjVq1EixsbGy2xmgBQAAQPl8Ek537dqlmjVrqm7dut7uGgAAANWYT4Y0MzIyFBsb64uuAQAAUI35JJwahsGlfAAAAJwxEiQAAAAsg3AKAAAAyyCcAgAAwDJ8ts4pAASyadOm6fvvv5ckDR48WBMmTDij4//v//5PX375pSRp+PDhGjFihK6++moZhqF27drp//7v/7xeMwBYgU+WktqwYYO6dOni7W4BoMrYsGGDunbtKklq0KCBUlJSKnysYRiKi4vTsWPH5HA4dPToUYWHhys8PFyGYejCCy/UTz/95KvSUYJdu3Zp3759kqRu3bopMjLSzxUB1ReX9QHAB7p06aJmzZpJkg4ePKhVq1ZV+NhVq1bp2LFjkqSEhATVrl3bJzWi4l5//XX17dtXffv21c6dO/1dDlCtEU4BwEf69Onj+frjjz+u8HGffPKJ5+sbb7xRkuRwOHTzzTfrlltu0aBBg7xXJABYDHNOAcBH/vGPf+j999+XaZpatGhRhY4xTVP/+9//JElhYWGeuapBQUH6z3/+47NaAcAqGDkFAB9p37692rVrJ0lKSkqq0DzR77//XsnJyZIK5jbWqlXLpzUCgNUwcgoAPjRw4EBt2bJFkvTuu++qe/fuZbafPXu25+vhw4d7vjYMQx999JEkKTY2VgMHDiy1j927d2vZsmVasmSJ9uzZo7i4OLVr105Dhw5V9+7dFRwcXKT9woULlZ6eLkm69tprS7zZp/D5bTabbrrpphKfBGiapv773//K5XIpMjJS1157rSRp69at2rBhgyRp0KBBiomJ0dq1a/XFF19o3bp1OnLkiBo0aKAePXroyiuvVOfOnWWz2cr8XklSamqqVqxYoYULF2rPnj3Kzc1V48aN1bdvXw0YMEAJCQmlHjt37ly5XC51795d8fHxMgxDv/76q2bPnq1t27bp+uuvV3h4uCRp27ZtnuMWLVqk33//XVLBB4g2bdqUWyeAM2D6wPr1633RLQBUOYmJiabdbjclmfHx8eW2b9GihSnJjIiIMHNycjzbc3JyPP1ceOGFJR6bm5trTp8+3ZRU6p/LL7/cPHLkSJHjCh/z5Zdflth3UlJSkX727t1b6ut1t7n66qs9259//nnP9jVr1pgjRowos84xY8aYWVlZpX6fnE6n+e6775o2m63UPmw2mzlx4sRS+wkPDzclmTNnzjTz8vLMBx54oMjxjzzySJk1SjJnzJhRao0Azg6X9QHAh1q3bu1ZWi8xMVFbt24tte3atWuVlJQkSRowYIBCQ0MrfB6n06nbb79dDz30kCQpKipKCQkJuvbaa9WuXTvP9ICvv/5affr0UXZ2tufYMWPGeL5+/vnnS+y/8MihJD333HMltlu5cqWkgtHVhx9+uMQ2Dz30kD744AMFBQWpZcuWuuKKK3TVVVcpPj5eQUEFF/Teeust9e3bVzk5OcWONwxDU6ZM0W233Sbzj9UQGzZsqC5duqh3795q1qyZgoODZZqmXnrpJfXu3VtOp7PEWtwmTZqkF154wVN7eHi4wsLCVL9+fcXFxXlGUKWCkeu4uDjFxcUpIiKizH4BnAVfJF5GTgHgT4VHJseMGVNqu5tvvtnTbu7cuUX2lTdyOmPGDM+xHTp0KLbf6XSa/fv397QZMmSIZ19eXp6nb0lmWlpaseMnTpxoSjIdDocpyQwKCjJdLlexdsOHDzclmfXr1y+yvfDIqSQzODjYnDdvXrHj9+zZY4aFhXnaTZ8+vVibRYsWefYHBQWZL7/8crE233//vRkZGelpd8sttxRr4x45veuuuzw1DRs2zExOTi7WtvCo6saNG4vtB+A9hFMA8LEDBw54gk3r1q1Lbee+pF+zZk3TMIwi+8oKp2lpaZ7Q2LJlyzJr6d27tynJtNvtRS7v33fffWWGr6ZNm5qSzKlTp3ranThxoli72rVrm5LMK664osj208PpsmXLSq3R5XKZoaGhnrYpKSlF9sXGxnr2rV69utR+du3a5WkXGhpa7HvqDqfuYLpp06ZS+yKcApWHy/oA4GMNGzbUX/7yF0kFTxrau3dvsTa//vqr9uzZI0m66aabKnQzkNvs2bPlcrkkSe+//36ZbV966SVJBZfGn3jiCc/26dOne25wWrp0aZFj9u3bp+TkZAUFBWncuHGe7YcOHSrSbu3atTpx4oQk6a677iq1hk6dOnm+HyWx2+264oorPH//+uuvPV8vX75cx48flyQ1a9ZMF198can9tGzZUo8++qgkKTc3V/fff3+pbe+77z5dcMEFpe4HUHkIpwBQCf72t79JKribfdq0acX2P/XUU575kzfccMMZ9b18+XJJBfNMywprktSxY0fP/NPvvvvOsz00NNQzf/Ktt94qcszGjRslSY0aNVJMTIxat24tSXr11VeLtFu8eLEkKTo6Wtdcc02pNUyePLnc8P3BBx942nz11Vee7YWX45o8eXKZfUjS0KFDPV/PmzevxDbBwcF68MEHy+0LQOUgnAJAJbjmmms8YcsdJgtbs2aNpIJR1sJPlqqIHTt2SJKys7PVqlUrtWzZstQ/rVu39twMderUKU8fNpvN8+SpHTt2aP/+/Z59q1evliTFx8dLKni4gFSwNJZ7xFb682aoiy++WA6Ho9R6GzZsWO5rioyM9NyE9Msvv3i2u5flkqR+/fqV20/hc2VmZpbYJiEhQXXq1Cm3LwCVg3AKAJWgXr16ntHE/fv36+jRo559O3bs0IEDByRJo0eP9tyxXlHuS+lOp1NJSUnl/snLy5NUPKw9++yzngC9efNmz3b3yOVNN90kqWBk12azKTMzU4cPH5Yk5eTkaO3atZKkYcOGlVlvdHR0hV6XO5wW/l4dO3ZMkhQSEqIWLVqU20dMTIxnRLi0O/Yr0g+AysMi/ABQSW699VYtWLBALpdLU6dO9VwWnzx5sgzDkCRdd911Z9xvdHS0UlJSVLt2bU2dOrXCx52+VFWzZs1Up04dHT16VAsXLtSgQYN09OhRbdq0SUFBQZ7pBpGRkXI4HHI6ndq9e7caNmyoRYsWKTs7W2FhYeWG09JGME/nDtGFl3FyB838/Hylp6erZs2aZfaRnZ2trKwsSSp1NLdJkyYVqgdA5SCcAkAlueyyyxQcHKz8/Hx9/PHHnnDqvhweHx+vTp06nXG/zZo105YtW2QYhsaPH39ONXbt2lVLlizRvHnz9PLLL+v777+XaZpq0aKFJwi6Ry0TExM1d+5c9erVSwsXLvS8xqioqDLP4R79LItpmp5Q2axZM8/25s2be/avXr3aMxWhNCkpKZ65vKWNSJ/pSDUA3+KyPgBUktq1a3sujZ88eVKZmZlKSUnxhLXx48eX+EjQ8rhvgkpPTy9xJYDTffLJJ/roo4+K3ZUvyXN3+7Fjx7R582bPfNP27dsXaffAAw9Ikj766CO5XC7PjUpXXnlluef/73//W26bV155Rfn5+ZKkvn37erZfdNFFnq/fe++9cvtx38wlqdxHxwKwBsIpAFSiO++8U1LB/Mdp06bpgQce8FzSL7x80plwjx6apqlRo0aV2XbDhg0aNmyYhg8f7hmxLeyiiy5SXFycJOn777/X999/L0m66qqrirS77bbb5HA4lJqaqg0bNmj79u1yOBwaMmRIufW+99572rlzZ5ltHnvsMc/Xhb8vl156qUJCQiRJCxYs8CwrVZLMzEzP8lF2u11PP/10ubUB8D/CKQBUok6dOnnC1YsvvqjPP/9cktShQwfP3fBnqmvXrp4717/77ju9+OKLnsBb2KlTpzRhwgRJBZfm3Xfdn65Dhw6SpPnz52v9+vVyOBzF5sKGhIR4Lt9PnTpVLpdLPXv2VKNGjSpU85VXXqnk5ORi210ul2688UZP6Gzbtm2R0dIGDRp4XkNubq66dOlSYj8nT57U3Xff7Vl14Pzzz1fHjh0rVFtJgoODPV+npqaedT8Aykc4BYBKFBkZ6VmgPj8/3/Ps+DO5kakks2bNUmRkpAzD0P3336+2bdvqm2++UVJSknbu3KnZs2eradOm+u6772Sz2XTfffeVetf82LFjJRXMhXU6nUpISFBMTEyxdo0bN5YkLVq0SFL5d+m71apVSzt27ND555+vf//739q5c6eSkpL0ww8/qHPnzvr4448lFdyw9emnnxab6jBlyhQ1bdpUkpScnKxmzZpp0qRJ2rhxo7Zv364ZM2aobdu2mjNnjiSpZs2a+uabbypUW2natm3r+XrIkCG65ZZbNH78+BJHnwGcI188dorHlwJA6bZu3VrkUZ6SzIMHD5Z5TFmPL3XbtWuXGRERUazvwn8cDkeJz5k/nfsxpJLMm2++ucQ2r7/+epG+t27dWmp/hR9fumbNGs+jWkv7ExYWVubjRDMzM83mzZuX2YckMzY21kxOTi6xD/fjS8eNG1fu98M0TbNevXrF+p8xY0aFjgVQcYycAkAla9GiRZHRwF69eql+/frn3G/Lli2Vnp6uf//730UuQ7t17txZe/fuLfcRp5LUrVs3z9f9+/cvsc2YMWM8r+OCCy4oMrpYluDgYO3cuVOvv/56kWWipIK5oRMnTlR6enqZjxMNDw/X7t27tW7dOs8oamG1a9fWrFmzdOTIEa8tFZWUlKQ77rhDzZo1K/MhAwDOjc00/1hjw4s2bNigLl26eLtbAEAFGYahrKwsOZ1OORwOhYaGKjg4uNzHhvrKCy+84Jnjum7dOnXt2lVSwRzTrKwsuVwuORwOhYWFlRisy5OVlaX8/HyZpqng4GDVqFHjrFY+AOB/LO4GANWQ3W5XZGSkv8sol8PhKHdd1Io4fQQWQNXFx0oAAABYBuEUAAAAlkE4BQAAgGUw5xQA4HPh4eGqW7euJJ5lD6BsPrtbPzs729vdAgAAoJrz2cfXiqyjBwBWYLPZ5IPP6QCAs+DTaysJCQnq06ePL08BAOfk8OHDSkpKKvL8dgDWc+DAAdWvX58HIAQAbogCENA2b96sXbt2eZ5xD8B6TNPU2rVrtXnzZn+XgkpAOAUQsLKysnT48GGZpqktW7b4uxwApUhKSlJWVpZ2797t71JQCQinAALWqlWrPHNNt23bpry8PD9XBKAk7g+P2dnZ+v333/1cDXyNcAogIOXn5ys1NdXzd8Mw9Ntvv/mxIgAl2b17t9LS0iQVXN5PTEz0c0XwNcIpgID0zTffyDCMItsSExPlcrn8VBGAkuzcubPIahqZmZnas2ePHyuCr/klnD7wwAOaP39+se0nT57Utm3bzumXg2ma2rFjh44dO1Zs3y+/bNT48ePPum8A1YPT6dTx48eLbc/Pz9cvv/zih4oAlOTgwYM6evRokW2maWrTpk1+qgiVodLD6aJFX2rVqlW69NJLPdvmz5+vwYMHq3///rr55pt18cUX67bbblVKSkqF+01LS9PYsWN18cUXa/jw4Ro4cKD69++vd955xzM6Eh+foF9//VWvv/66118XgKrju+++K/VDMCMygHVs3ry5xDWIMzIydPDgQT9UhMpQqeHU5XLpiSee1IgRIxQXFyepIJhOnz5dLpdL48bdqyeeeELXXnutNm/+Tddff32FnjSVm5urIUOGaO3aterfv78ee+wxTZw4UREREXrttdc0a9YsSVJERIQmT56sOXPmcOkOCFCGYejQoUOl7s/JyWG5GsAC0tPTSrwKKv25tBSqp0oNpwsWLFBeXp5GjBghqeCXxJtvvqnQ0FDNnDlTo0bdqoEDB2rSpEm688475XK5KjTKuXTp10pLS9OAAQP02GOP6corr9SIESP0zjvvKDo6WnPmzFFGRoYkqUePHsrNzdXLL8/w6WsFYE1r1/5Y5odT0zS1c+fOSqwIQEnWrPmx2LzwwjIzMz03SqF6qbRwmp+fr2effVa1atVSTEyMJGnDhg06fvy4+vbtqxYtWnja2mw23XLLLbLZbPrvf/+r/Pz8Uvs1TVNvvPGm7Ha7HnnkEdntf76k2NhYXXXVVcrNzdXy5cskSTVr1lT37hfqgw8+ZNkYIMDk5eVpz5695bbLysrSzp3cEQz4S2ZmZonzwgszTVPLli3j0cPVUKWF07S0NDmdTg0dOtTz6LENGzZIki644IJi7UNDQ2Wz2eRyuTyjniXJyspSSkqKgoKCFBoaWmx/hw4Fff/yy6+ebaNHj5FpmsxXAQJMYuKOCk3pMU2TZaUAP/rhh9Vljpq6ZWdnKysrqxIqQmWqtHDqnhty+eWXe7bt3VswguGef1qY3W5X3bp1JanMxwq656Ta7fYio6Zu9es3kKQi6xm2atVKkvTBnDln9BoAVF25ubn69deK3+F76lSm9u3b58OKAJTE6XTq6NGS55qWZMWK5YyeVjOVFk4XLFggm82mRo0aeba5Q2d4eHiJx8TGxkpSmSMdTqfT87XNZiu2v0aNGpKk/Pw/L+G7R1g/X7CgQp/MAFR9ycnJZ/zv/eeff/ZRNQBKs3z58jP6t5qenqFTp075sCJUtkoLp3v37pXNZisSIMv7pOPe741PRIbxZx/uaQWGYZQ5nxVA9eB0Os8qaGZlZfFLD6hELper3LmmpzNNUz/99JOPKoI/VEo4NQxDx48fl81mK3Lp3R0S8/JySzyu8CX70tjtZYdd94ip+1yn98dNUUD1t2/fvrO+SvLFF19wyRCoJGvWrDmrf6uHDh1Senq6DyqCP1RKOC0cSgu/ybvv2j9x4mSxY0zT1IEDByRJISHBpfYdElJwid4wjBJ/gaSmnpBUsMYpgMBjGMY5jao4nU5lZmZ6sSIAJcnNzVVycvJZHWuaJk93q0YqLZzWr19fpmkWCZCtWrWUVPITWfLz8z3zSWvUKHlOqvRn6DQMo8S5qe71Chs0aODZVvhTWXBw6cEXQNW3d+/ec56+w3I1gO9t3779nO4D2bdvX5mr+6DqqLQ5p/Hx8TJNs8j/eP37D5DdbteyZcuK3NgkFYRK0zTVvHlzRUZGltpvcHCwLr98gJxOp7755pti+5cvX/7Hufp7trlDrMPhUEhIyDm9LgDWZRiGNm7ceM79sNg34Fs5OTn6/fffz6kP0zS1bds2L1UEf6q0cDps2DCZpqldu3Z5tsXExOjCCy/UgQMH9NJLL3lGJlJTUzVu3DhJ0kMPPeS5ier48eMaPXq0Ro8eXWSN0jFj7pAkTZkyRQcO7Pdsf//9/2jz5s1q06ZNkbVU3fNMLx8woMz5rACqtr1791boEcjlMU1Ta9as8UJFAEqyc+dOrzxWPDExkdHTaiCosk503nnnSZIWL1pUJCg+/PDDuvfeezV37lytWL5csXXqaPfu3crLy9PgwYPVpUsXT9u8vDz9+mvBYvq5uX/eRNWiRQuNGjVS778/W0OGDFXrVq2UceqUUlJSVLduXf3rX/8qskrA7t27JUk33nSTT18zAP/asmWL1y7Hp6amKi0tTbVq1fJKfwAK5OXlee2hF4ZhKCkpSR06dPBKf/CPShs2jIqKUlxcnBb8739F5n81atRIH374ocaOHatOnTupZs2aGjx4sJ55ZrqmTZtWZGQzIiJCf/3rXxUaGlrkcrzNZtO4ceM1a9YsXX/99aodE6N27dpp9OjR+uijjzzB2O3tt9+WzWZT69atff/CAfjF3r17dfJk8Zstz5Zpml6ZIgCgqL179xab2ncutmzZUmQAC1VPpY2c2u12Pfvss7r11lt19OhRNWzY0LOvRo0auu2228rto2bNmrrlllu0ePHiEp8q1aVLlyIjrSVJT0/Xjz/+qL59+yosLOzMXwiAKmHr1q1ev4kpJSVFJ0+eVHR0tFf7BQJVfn6+51Hm3uJ0OrV161Z16tTJq/2i8lTqhMt27dqpdu3aevPNN8/ql0ZOTo7uvfdejRgxosi6pWfi559/UlBQkJ588smzOh6A9R05cuSMF/KuCMMwtGPHDq/3CwQqb6ymUZLExESvzGGFf1TayKlUMHr6yiuv6Oabb9btt9+uJk2anNHx+fn5evjhh9W1a9ezOn9mZqb+9a/J+utf/8pd+kA1Vq9ePY0YMaJCbRct+lIOR5CuuOIKH1cF4HTJyckVmsdtmqbS09MVGhpa4auee/bsUatWrc61RPhBpYZTSUpISFDv3r31xcKF+vs995zRsVFRUWcdTCVp48aN6tqli+6///6z7gNA9cLypYD//OUvf6lQu6ysLH366aeKj4/ncn0AqPRwKknPP/+8P06rXr16qVevXn45NwBrMk3zrKcJAQC8j0U+AQCApbkf4MMHycBAOAUAAFVC4TXLUX0RTgEENNM0eVIcAFgI78gAAhrhFACshXdkAAAAWAbhFAAAAJZBOAUQ8LisDwDWwTsygIBmGAZ3AAMW515Kig+SgYGfMgAAsDTzj0e58UEyMBBOAQAAYBmEUwABjaWkAMBaeEcGENAIpwBgLbwjAwAAwDIIpwAAALAMwimAgGaaphwOh7/LAFAG0yxYSoq79QMD4RRAwOP3HWBt7nVO+SAZGAinAAAAsAzCKYCAx6VCALAOwimAgGYYhux2LhUCgFUQTgEAAGAZhFMAAABYBuEUQMDjCVGAtRmGKUmy25kfHgh4RwYQ0AzD4IYowOLcS0kxPzwwEE4BAABgGYRTAAAAWAbhFEBAM02TOacAYCG8IwMIaIRTALAW3pEBAABgGYRTAABgaaZZsJQUK2sEBsIpgIDGZX3A+tzhlH+rgYGfMoCAZpomozEAYCGEUwAAAFgG4RQAAACWQTgFENBM01RQUJC/ywAA/IFwCgAAAMsgnAIAAMAyCKcAAh536wPW5nK5JEkOh8PPlaAyEE4BBKz8/HxJhFPA6liEP7AQTgEAAGAZhFMAAABYBuEUQMAyDEMSlwoBwEoIpwACFuEUAKyHcAoAAADLIJwCAABLc1/lsNuJLYGAnzKAgOVeO5HL+oC1uZeSIpwGBn7KAAIWozEAYD28IwMAAMAyCKcAAACwDMIpgIDFPDYAsB7ekQEELPcNUQAA6yCcAgAAS3N/kHQ4iC2BgJ8yAACoElj2LTAQTgEELPdoDHNOAcA6eEcGELBM0/B3CQCA0xBOAQAAYBmEUwAB64+VpAAAFkI4BRCwnE6npKo75/Tw4cPKz8/3dxkA4FVV8x0ZAAKcaZoaO3asUlOP+7sUwOcMo2B+uM1GbAkE/JQBoApaunSpunbtqri4+v4uBfA5nuYWWPgpAwhYf47GVL21E9955x3deOONXusvLy9PTzzxhNf6A4CzRTgFELCq6jqnmzZtUpMmjdWiRQuv9WmapjIzM73WHwCcrar1jgwA0DPPPKMxY+6wxIhvfn6+1q9fry1btnjCfnnS0k5q9erV+vnnn5WVleXjCgFUNUH+LgAAqqLly5frmWeeUVRUlBISEvT000979q1YsUJvv/229u/fr+7dL9Rzzz3vtfMePHhQwcHBio+P90p/+/bt04MPPujpe/jw4UX2d+/eXRMmTCh2nMvl0qOPPqrk5GRdcMEFysnJ0a+//qp+/frprrvu8oxGp6am6t5779WhQ4f04Ycf6rVXX9Wu3bvVsWNH5efn6/nnnlOnzp314IMPVrkRbAC+YTNN76/0t2HDBs2aNUsJCQnq06ePt7sHAK9ISkrS6tWrNWjQIMXGxp7x8YsWLdLGjRv0r39NLrbv8OFDmjz5Ec2aNcuroWv06NG6//6JOv/89l7rU5Jyc3M1derUIiG7NC6XSzfeeKNuvPFGDRkyRA6HQ5KUk5Oj1157VenpGZo6dWqxujMyMjRo0CDdfPPNCg4OliRlZ2fr1VdfVWpqqp566imvviZUH4mJiVq7dq2uvvpq1apVy9/lwMf4mAogYLkvQ5/t5fF+/fpp8+bfdOrUqWL7nnziSf3973d7NZhmZ2fryJEjSkho47U+z8aSJYvVs2dPDRs2zBNMJSksLEwTJkzU8ePHtXHjxmLH1a9fX6NGjfIEU0mqUaOGxo8fr+TkZB09erRS6kfV4x5Hs8JUFvge4RQAzlJoaKhGjx6tl158scj2tLQ0HU9NVceOnbx6vilTpuixx6YWCXf+8N57/9H48eNLDAp2u1033HCDFi9eXGxf4cv9hYWEhGjYsKFasmSJT+pF1edeWYOpH4GBnzIAnIPevXtr3fr1ysnJ8WybPHmyHnrooSKjiucqMzNTa9as0QUXdPBan2fD5XIpJSWlzJAQExOjffv2FdseHh5e6jGRkVEyTcMrNQKo2ginAAKWN5aSCg0N1cSJE/X88wU3PeXk5CgpKUnnnXeeV2p0e/fddzVlyhS/j5o6HA61adNGubm5pbZJSUlRmzbFpx4sWbJEJd3mYBiGVixfrt69L/NqrQCqJsIpgIDlvlR4rnr27KlVq1bJ5XLp4Ycf1vPPP+/VUdOMjAx9/PHHGjBggNf6PJ3NZlN+fn6F2t53330aO3ZsiUEzLy9Pb7zxhoYNG1Zs3+zZs7Vly5YixxmGoZUrV+rQ4cNq3rz52b8AANUG4RQAzlFISIgef/xxTZkyRWvXrvXaMk9uy5cv08iRI316M0hwcLDWrFmj9PR0SQU3oBiGoVOnTumJx6cVCa4dO3aU3W7XpEmTlJ+fL9M0ZZqmsrOzNXr0aA0YMECNG70rgzMAACAASURBVDcudo65c+dqwoQJmjRpkjZsWK8ffvhBY8feo1mzZumNN97w2WsDULWwzikAeEHnzp01btw4zZ79vldHTbOysvTyy69o2bJlXuuzJDabTe+887auu+46z4iy0+lUs2bNNGnSpGLTCd566y0tW7ZMf/nLX+RwOGSapux2u2bMmKH27Ute5iokJESLFy/Wtm3b9O2336pOnVg98sgU1a9fnxtdAHgQTgEELKfTKck7dwBnZWWpRo0aXl/m6ccff9Rll11WKUvotGnTVl999ZUyMzNls9lUo0YNhYSElNjWZrNpwIAB6tu3zx/t7YqIiCg3mAcFBal9+/alBlgAIJwCCHjeyH1vv/2WXnjhea+HyGbNmuniiy/2ap9lCQ4OVnR0dIXbBwUFq1atircHzob75sWgIGJLIOA6CgCcBdM0lZ6ervT0dO3du0dff71Ubdq09fp5WrVqpbCwMK/3W5nS09Plcrl06tQppaenV/jGKwCBiY8gAALWn3frn/lo508//aT333/f8/fWrVtr0qRJ+utfb2BJpEJOnDihyZMnKyIiQi/+8bCC+PjWmjBhop8rA2BVhFMAAetc1jnt0aOHevTo4e2Sqp3atWvr1Vdf9XcZAKoQLusDAADAMginAAAAsAzCKYCA5X5SUWUs0wTg7JX0NDJUX4RTAAHLPeeUcApYm/vmRZaSCgyEUwAAAFgG4RQAAACWQTgFELBcroLHl3JZHwCsg3AKIGAZBjdEAYDVEE4BAABgGYRTAAAAWAbhFEDAcjoL5pyezeNLAVQe91JSDofDz5WgMvCODAAALI0HZgQWwikAAAAsg3AKAAAAyyCcAghY7seXMo8NAKyDcAogYLlvsgAAWAfhFAAAAJZBOAUAAJZmGAZ36gcQwimAgMU6p0DVYJom4TSA8I4MAAAAyyCcAgAAwDIIpwACFpcKAcB6CKcAAhrzTQHAWnhXBgAAgGUQTgEAgKUxBSewEE4BBCzTNHl0KVAFGIbBFJwAwk8aQMAyTZNfeABgMbwrAwAAwDIIpwAAALAMwimAgBYUFOTvEgAAhRBOAQQs0zT9XQIA4DSEUwAAYHEsJRVICKcAAhq/7wDrMwxW1ggk/KQBBKyCdU6ZcwoAVkI4BQAAgGUQTgEAAGAZhFMAAABYBuEUQMAqmHPq8HcZAIBCCKcAAMDSWJM4sBBOAQCApRmGwVJSAYSfNICAZZqsnQgAVsO7MoAAxpxTALAawikAAAAsg3AKAAAAyyCcAghYpiku6wOAxRBOAQQs0zRls9n8XQYAoBDCKQAAsDSWkgos/KQBBDRGToGqgEX4AwnhFEDA4vGlAGA9hFMAAABYBuEUAAAAlkE4BQAAgGUQTgEELOacAoD1EE4BAIClGYbJUlIBhJ80AACwNB6YEVgIpwAClmkyGgMAVsO7MoCAxZxTALCeIH8XAADe9Msvv8jlclWordPp1JEjR7R+/foKtW/Xrp3Cw8PPpTwAQDkIpwCqlbS0NO3bt6/C7VNTU5Wamlpuu7CwMHXq1OlcSgMAVACX9QFUK506dfTJPNJu3boyBQAAKgHhFEC1UqtWtBo2bODVPoOCgtS4cROv9gmg4gzDkN3O3fqBgnAKoNrp2LGjV5edueiiHgoKYhYU4C8FS0kRWQIFP2kA1U7t2jGKi4vzSl+MmgJA5WIoAEC1dN555+nIkSMyDOOc+mnXrh2jpkAV9vHH/9XhQ4fVoGFDDRs2zN/loAIYOQVQLTVs2FB16tQ5pz6Cg4PVsWNHL1UEwB/69OmrLl27asmSJZVyvpkzZ+rEiRNndMynn37qo2qqJsIpgGqrTZs25zT3tHHjxl6sBoA/1KtXTy1btqy0861YsUInT56scHun06mlS5f6sKKqh3AKoNpq2rSpataseVbHBgcHq2fPnl6uCABQHiZSAai2bDabOnXqpJUrV57xsU2aNPHJeqkAzlzB3freWYFjzpw5WrZsmbKzs1WvXj2NHDlSF154Yant33jjDa1bt07p6emKjY3Vtddeq8svv7xYfTNmzNDRo0d15MgRzZgxQxEREZ79drtdt9xyi+Lj4z3b8vLy9OSTT8rpdGr37t2aPHlykT4bNGigsWPHlljT8ePH9eKLLyo5OVmmaapJkyaaMGGC6tWr52mzefNmzfv4Y53fvr1CQ0P16aefKioqSlOnTpXL5dK0adN04sQJDRs2VEOHWmsuLuEUQLXWsGFD1ahRQ9nZ2RU+JigoSN27d/dhVQDOhGEY5xxOXS6X7rzzTrVu3VqTJk1STEyM9u/fr1deeUXr1q3T3//+92Ltb7/9dl100UX6xz/+oZiYGB06dEhz5szRt99+q6eeesrT1maz6bLLLlNmZqZ++eUXXXrppUVWDLHZbIqLq1ek/+DgYA0cOFBOp1NJSUkaNGhQkf1RUVElvo6lS5dq1qxZuvvuu9WuXTvZbDbt2LFD99xzj0aOHKlrrrlGUsG0pEt69dKzzz6rCy+8UNOmTdPOnTt1zz33KCQkRBMnTlSjRo100003afDgK1WjRo1z+v56E+EUQLXmcDjUrVtXfffd9xU+pmHDhtyhD1Qz27Zt02233aY77rjDE3Tr1q2rmTNn6p577tHatWvVo0cPSQVh+IEHHtAtt9yi/v37e/qoU6eOnn76ab3wwgt65513dPvtt3v2uR9vHB4ers6dO6tFixZl1mOz2dSzZ085nU59+OGHuuSSS8p9DRkZGXrttdf0xhtvqG7dup7tDRs2VKdOnTRixAj16dNHNWvWVO3atdWtWzfVqlVLU6ZMUXh4uJo1a6Z///vfmjx5sudmz+HD/6bff/9d3bp1q+B30ve4ZgWg2mvUqLHCwsIq1LYgzFrnTRqAdzgcDo0ZM6bYCGxwcLDGjh2rDz/80LMtPT1dW7ZsUb9+/Yr1Y7PZ9Pe//11ffPGFz2s+3ZtvvqH77ruvSDB1i46O1rRp0/TSiy8W2d62bVuFh4dLKqg9JiamyCokderUVU5Ojm8LP0OEUwDVXlBQkDp37lShto0aNfK8kQOoPiIjI0udR96mTRsdPHjQ8/cTJ06oz2WXlTqVICIiQnXq1Kn0ULd27U9lrjzQtGlT/bBmTSVW5BuEUwABoWnTZgoODi6zjd1uV4cOF1RSRQAqU15eXqn7cnNzFRoa6vl7aGhouWuV5ubmlvue4m1hYWFy5ueXut8wjCKvo6oinAIICMHBwerWrWuZbZo0aazo6NqVVBGAypSTk6Pc3NwS9/3yyy9F5ohGRUXphzVr5HK5Smx/+PBhZWVlyeFw+KTW0lx++QCtW7++1P0///yzrrrqqkqsyDcIpwACRtOmzUq90clut6tt23aVXBGAymK323XPPfco/7SRx7S0NL300ku6//77PduioqJ0xx136NVXXikWUHNycvTE449r/PhxJZ6nadOmJS7Cn5+fr4yMjGLbg4KClJp6vNh5TNPUqVOnZJqmZ9uIETdr7ty5+u2334psl6SdiYl69dVXdccdd5TyHag6CKcAAkZwcLDatGlT4r64uLgSbzIA4H+GYZz1KOWMGTP03HPPqW3bturUqZP69eunr7/+SgcPHtS7776rK6+8UtOmTVN0dHSR40aNGqWMU6c0ePBgLV26VEeOHNEn8+dr4MCB6tevny69tHeJ53vkkUd033336euvvtLJkye1du1aTZ8+Xb1799asWbNKPCY+PkHjxo1TcvJeHThwQJ9//rluvvlmXX311cVC6+zZs/Wvf/1LkydP1tatW7V9+3ZNmzZN944bp3nzPva027Fjh5599hlt2rRJM2fO9GzPz8/Xo48+WiRAz549WytWLD/j762v2MzTo7cXbNiwQbNmzVJCQoL69Onj7e4B4KwZhqF58+YVGT2x2+3q27evGjRo4MfKAJRm8eLFCgoK0oABA8742FOnTskwDAUFBSk8PFyZmZmaP3++Dh06pL59+6hjx05lztNMS0vT6tXfa/Pm39SzZ0917dq1yAL7JcnJydFXX32l337brHbtzlOPHj1Up06dUs9jGIZ27dqlr7/+Wnl5ubrkkkvUrt15Cg8PLzGUu1wu7d27VytWLJfT6VK/fv3UsmXLIm3z8/OVk5Mj0zRlt9sVGRkpScrMzJRhGIqIiJDdbldeXp5ycnIUEhJS4VVNfI1wCiDgrFq1SsnJyZ6/165dW4MHD/baE2gAeNe5hFNUPVzWBxBwLrnkEs/cU5vNpo4dOxJMAcAiCKcAAo7D4VDDhg0lSTVr1lSjRo38XBEAwI1wCiAgXXzxxXI4HOrSpQujpgBgIYRTAAEpKChIzZs3V1xcnL9LAVAOH9weAwsrecE/AKgEPMMesL6rrrpKU6dO9WsNBUtJMZ4WKAinAPwqIT5eF1zQ3t9lACjBJ59+5u8SEIAIpwD8avDggZr+1OP+LgNACQin8AfGyAEAAGAZhFMAAABYBuEUAAAAlkE4BQAAgGUQTgEAgKW5XC7Z7Q5/l4FKQjgFAACAZRBOAQAAYBmEUwAAAFgG4RQAAACWQTgFAACAZRBOAQAAYBmEUwAAYGmGYchuJ7IECn7SAADA8mw2m79LQCUhnAIAAMAyCKcAAACwDMIpAAAALINwCgAAAMsgnAIAAMAyqmQ4dblc+vXXX7V06VJ/lwIAAHzMNA3u1g8gQf4u4Ezk5ORo+/Zt2rEjUbm5uapdu7a/SwKqrbS0NDkcDkVGRvq7FAABzjBMwmkAqRLhNDs7W9u3b9f27duUn+/0dzlAQEhNTdUPP/yg5s2bq127doqJifF3SQCAAGDpcJqRkaHt27crMTFRLpfL3+UAAcc0TSUlJSkpKUlNmzZVu3btVLduXX+XBQCoxiwXTk3TVFpamhITE5WYmCjDMPxdEgBJycnJ2rdvn2JjY9St24WqU6eOv0sCAFRDlgmnpmkqPT1dGzZsUEpKikzT9HdJAE5jmqaOHTuuJUuWKDQ0RH/5Sz/FxMQwFwwA4DV+D6emaSojI0PfffedTp48SSgFqojc3DwtXrxYISEh6t+/v6Kjo2W3V8kFQAAAFuK3cGqapk6cOKFvv/1WWVlZ/ioDwDnKy8vTokWL5HA4dNlll6lBgwaMpALwKsMwZLfzvhIo/BJOjx8/rpUrVxJKgWrE5XJpxYoVCg4OVqdOndSmTRt/lwSgmjBNUzYbV2YCRaWG0+TkvdqwYaMyMzO5fA9UU/n5+fr555+1adMmJSQkqGPHjv4uCQBQhfg8nJqmqa1bt2rnzp3KyMgglAIBIjc3V5s3b9b27dvVvHkzXXhhdy73AwDK5dNweuTIEX322Wc+u3x/8uRJzZs3r8gvPPfXp/8StNlsKrqp9GNK6q/sr4v3V9ov4ZL2lVVzWdtLq939tfvmlNP3nf73P+fxlH9saf0UHGPzXHYpqW2RP5Jsdvsfl2psxfos6Ktw/+79KvT16ee3l3DOgvYl3ahjt9uL/Tzc20r6vuPs5OXlaceORO3enaQmTZqoe/fuCg4O9ndZAACL8mk4rVu3rtq2bavNmzfr2LFjXl+zNDQ0VC1atCgyGmuahkyzYMTWvd00jT/+q0LbzDK/dv+9cM2F9xVuf/p/y9t2+n73Oc6kj8L/hW+V9aGlvA8OFTm2vA9ART9YldxnaecruT93P8X7LNwuOztb3uR0OpWUlKTk5GQ1b95c7du392r/AIDqwafh1GazqUGDBmrQoIGOHz+mLVu2av/+/V572lONGjXUtWtXr/RVlZUVlEv6r2QWC+qn/7do4Dc9xxT+e9FjyjifacqoQNgu7dxlhfKSa/7z9ZXW1u30Dx8V67/4h5ji9Z7597iiH3iKnNM0ZZbRpvD3xDDOrI78/Hz5gsvl0p49exQUFCSHw+GTcwAAqq5KuyEqNraOLr30UqWmHte2bdu1d+9eHknqJVyGhi8kJSVp9erVXu3T4XAoPj5eHTp0UEhICO8BAIBiKn0pqZiYWF188cXq0KGDfvnlF+3fv19Op7OyywBQicLCQtWsWXN16dKF0VIAZ8zlcvGQjwDit0X4IyMj1atXL+Xn5+unn37S/v37fXYZEYB/REREqHnz5urcubO/SwEAVBF+f3xpcHCwLrnkEjmdTq1fv07JyfuUm5vr77IAnIPw8HC1b99eCQkJ/i4FAFDF+D2cugUFBalHj4vUvXsPbdy4Ubt371ZOTo6/ywJwBsLCwnTRRRepcePG/i4FAFBFWSacutlsNnXp0kVdunTR7t279PPP67jcD1hcUFCQ+vfvrzp16vi7FABAFWe5cFpYy5at1Lx5c6WkpOiHH9YoLy/P3yUBKCQkJESDBw9WREQEq0UAALzC0uFUkux2hxo3bqKhQxvq8OHDWrPmB2Vnc7kf8KeYmBj16tVLUVFRhFIAgFdZPpy6ORwONWzYUNdfP0RHjx7V2rVreUISUMkaNmyoLl26KDo62t+lAAgghmGwlFQAqTLh1M1utysuLk5XXXWVTp486e9ygGrPZrOpZcuWOu+881SrVi1/lwMgQHGVJnBUuXDqZrfbFRMT4+8ygGrL4XCoXbt2io+PV82aNf1dDgAgQFTZcArAt5o2baqmTZv6uwwAQIBhAgcAAAAsg3AKAAAAyyCcosIMw9DmzZv9XQYAAKjGCKeosE2bNunll2d4pS+Xy6WTJ096/lTGo2oNw9CpUxnKyMhQTk6ODMPw+TkBAOfG5XJJ4m79QMINUaiw2bPf19ix93qlr6Vff63pzzwj0zTldDo1cuRI3XXXXV7puyT79+/XnXfeqVOnTslms3mC6WeffVbskZu5ubkKDQ31WS0AgIpzr2nOOqeBg3CKCtm+fbtSU0+oY8eOXulv4KBBumLgQEnSggULdPjwYa/0W5K0tDTddtut+uyzzxURESGp9Dc7wzA0fPhwffLJJz6rBwAAlI5wigqZO3euRowY7tU+3ZdofH2lZsuWLerevYciIyOLnbsk7ktIAACg8jFGjnKlpKQoMTFR/fr193cpkqQ9e/Zo6dKlOnLkSIXa5+XlcZkeAIAqgpHTKsI0TU2YMEE//fSTWrdurTvuuEO9e/eWJM2YMUMrV67UkSNHdOcdd+iWkSO9eu45c+Zo6NChfp+MPm/ePH3wwQe66KKL1KRJE7388svasGGDJk+erJ49exZr/9Zbb2nVqlVKT0/XqVOnNLLQ9yUoKEivv/66J7S6XC6NGzdOp06d0pEjR4q0laSQkBC98srLCgur4dsXCQBAgCOcVhE2m00vvfSSPv30Uy1btqxIGLvxxhv1448/6qWXXlLXrl29et6MjAytW7dOEyZM8Gq/Z2ru3LnauHGj3nvvPUVHR3u2Hzx4UGPHjtWMGTPUuHHjIseMGTNGY8aM0cqVK7Vy5UpNmTKl1P4dDodee+01GYahIUOG6P333/fZawEAAKXjsn4VYrPZNHToUA0ceIUmTJig7Oxs7du3TxMnTtSkSZO8Hkwl6d1339V1112nkJAQr/ddUaZpau7cuXrkkUeKBFNJatCggd58802NHj2auaIAUA2539u5Wz9wMHJaBV177XWy2ex64IEHdOLECU2d+qjatGnr9fM4nU6tWrVS7777ntf7PhPbtm1Vo0aN9MMPP5S43zRNZWZmKj8/Xw6Ho5KrAwD4knt1FX9PLUPlIZxWUeeff77+85//KDYmRnFx9X1yjg8/+EADBw5SVFSUT/qvqBMnTio9PV0bN24stc0111zDGxcAANUA4bQK2r17lyZOnKg33nhDv//2mx544AE999xziomJ8do5TNPU5wsWaObMmV7r82x17dpVNptN//znPwmgAABUc0zgqGISExN1zz33aM6cOapfv7769e+v0aNHa/z48Tp+/LjXzrN48WJdeumlqlevntf6PFuhoaGqWbOmVq1aWWqb7Oxsz6Wfc0UABgDAfwinVYTL5dLvv/+ukSNHavbsOapR488ljTp27KgxY8Zo1KhRFV77szyzZs3UDTfc4JW+TmcYhk6ePKkTJ07oxIkTyszMUk5OjufvJ06cKHZz0wsvvKDnn39BCxcuVGZmplwul/Ly8pSenq6FCxeqf//+ys7OLnJMRkbGH/1nKi8vr0j/6enpJdZmt9vVpEkTrVi+XPn5+TIMQ9nZ2Tp+/Lhee/VVbdu2zSffEwAAUIDL+lXE3r17dffddysoKEhDhgzRQw89pCuvvFKS9PTTT2vlyoJRxVGjRunLL788p7sat27dqvPOO6/Y0kzesn//fo0aNUpOp7PI9vnz50sqCIgzZ85Uu3btPPtCQ0O1cOFCTZ8+XdOnT/eE16CgIPXv31+rV68udp7x48dp585dnr+7v0eSVKdOHX3yySclfp+eeuop3XffffrX5MkyTVN2u12RkZGa9NBDatvW+zeeAQCAPxFOq4iWLVvqu+++K3HfE0884dVz/eMf/9CsWbO82mdhTZs21TfffHNWxz700EP65z//6QmnDoej1CB+tqsMREZG6q233pLL5ZJpmmWeAwDgW9ytH3gIpyjmmWeeUaNGjfxdRqnsdrvPw6LNZlNQEP88AMDfDMOQxDqngYTfviimffv2/i4BAAAEKD6GAAAAwDIIpwAAALAMwikAAAAsg3AKAAAAy+CGKACoZElJe7Rl69azPv6Kyy9XUJBDkrRp82/at2+fJJuuHDzQSxUC1vHnUlJ+LgSVhnAKAJVswf++0EMPTz7r448dPqDIyAhJ0usz39C7770vm82m7FMnvFViQDNNU0ePHZMk2Wx21a0T6+eKApt7KSmHg8gSKPhJA4Af2Ww2Fhe3mKysbDVtHi9Jio2N1YHkXeUcAcCbCKcA4EcvvvCc7r5rjL/LAADL4IYoAAAAWAbhFAAAAJbBZX0ACBBZWdma98ln+u2331WjRrg6d7pA11x9pRwOR6nHuFwuSQVzY93PNnc6nXpv9kfasmWLakZFadDAAerR/cJix+7es0effvo/7dm7Vx0uuECX9Oyu888/r8L1bt2xU4u+XKS9yclq3qy5el18kbp371ZurZKKvKZNm3/Tkq+WKSlpjxo3bqQbhl6nhIT4YscbhiHTNOUyXEW2l9YvAN8gnAJANXfo0GHdcuto/fTTz8rNzS2yLyIiQpf1vlSfzp9b4rH1GjRVZmambr9tlP79/DMaeesYffX10iL9TH/mWTVp0kSfzPtIHS5or+07EvXXG0doR2KiZxkgt4T4eL3/3tvq1KlDqfV+/MkCTZ78iPbt21fs+EaNGmnyww/qtltHFjtu2pNP65lnnpckHdy/R1u2bNGto+/6Y6mtPz3+xJPq0OECffm/z1S3bh3P9uE3j9LnCxYWaXv8+HFF1Pzzbv0Txw6qRo0apdYO4NxxWR8AqrG1a39Sxy7d9d1333sCZWxsrIKCCsYmMjMztWjxEnXo3L1YcC0sKytbffsP0v8WfqHc3FzVq1dPUVFRnv379u3T0Bv+pp9+Xq9LLu2r7Tt2yDRN1apVS+Hh4Z52OxITdc31w3To0OFi5zAMQxPv/6dGjhyl5ORkmaYpm82mevXqedocOHBA946fqAcnlb0U1zffrtTgq6/3BNPIyEjVqlXLs3/Tps3q1LWH0tLSy+wH/uceuXaP3KP64ycNANVUZmaWrrp2iNLS0hQcHKznn3tGe3bt0IHkXUo9mqIfvv9WvXr1kiTt2LFDQ4b9rcgl7MI+X/A/bdy4UQMGDNDW335VctIOHT20T79s+Fnx8a0lFQTUgYOvVm5urh5+6J9K3pOowyl7lXo0Rb/9ul6tWxe0O3LkiD77fEGxc8z58L96fdYbkqRWrVpp+dIlSj1yQMlJO5SyL0nvvvOmateuLZfLpVdfm6kvF39V6msff9/9kqRnnn5SO3f8rmOH9+vQgT3a/Os6tW/fXlLBqOi8+Z94jnnqyce1ZvVKfbP8z35r1aqlNatXev6EhoZW+PsPbzHLb4Jqhcv6AOBHs958S4uXLKlw+w/n/EcRERHltjNNU1deM0QZGackSV8u/Ey9L+3l2R8SEqIunTtp8Ref6YrB1+qHH37Q8hUrtGXrNl3Q/vxi/eXk5GjQwIH67JOil//btonXjJf+rUFXXiNJysrK0qSH/qkpjzxcpF3r1q00/78fqGv3i+VyubTxl1+L7D9y5Kju/vtYSVLt2rW1/ucfFFYoCMbE1NbfbrxBXbt0VveLeiknJ0f3jB2vvbu3l/j6j6emasFn83X5gH6ebTabTfGtW2vF0sVq3qqNsrKyNG/+Zxoz+jZJUssWzSUVhHq3oKAgde7UscRzAPANwikA+NHWrdu0deu2CrfPdzor1C43N08///yzJOmmG/9aJJgWFhwcrE/mfagGjQqC2WPTntT8jz8s1i4yMkJvv/l6iX307dNbERERyszMVHR0tCY//GCJ7dq2baPo6GgdP35cu5P2Ftn3yWefyzAM2e12rfp2aZFgWlhCfGs9/dSTmnj/Azp8+LASd+5SfOtWxdpddeXgIsG0sJo1o1QnNlbJWVnauXNniW0A+A/hFAD8qGnTpqpX6Kac8gRV8G7xFSu+8Vyi/3s5i/zXqlXLEy6/+HKRMjMzi43OtklIUExM7VL7qFmzpjIzMxXfulWZd7SHhYUVfHHajU7vvPsfSVKNGjXUulXxsFlY3z6Xer5+8uln9d7bs4q1GTToijL7cF+eTzl40DO3FYA1EE4BwI/unzDeJ0+I+ujjP+dSvvzq63rv/Tllto+NjVVmZqYkKS09o1g4jaoZVdJhHu5wVyu69ABb0K74tszMTG3e/JukgmWq7rn3vjL7yMvP93y9Zs2PJbZp0bx5mX24maZJOAUshnAKANXQnj17PF/P/+SzMzo2Kyur/EZe5A7FkpSbm6t333u/wscePXq0xHAZFRXptfrgX+5Bdj5ABA7CKQBUQ4VHPqOjo+VwVHxxlrwylpTyBYfjz19FNputzOkDpwsLDWPks5pzuQrmWfMAuVSLdgAAFopJREFUhMBBOAWAauj888/Xt99+K0n6dvlXatu2jZ8rKl10rZqer2tGRWn/3l2ETSCAsc4pAFRDt40c7vk6Ld3aC807goLUp08fSRVfjQBA9UU4BYBqKD4+3vMUqLvvGSfDMEptm5+fr9h6jVQrJk7tO3Yr9sjQynD7H48jzc7O1rxPii/QX9i69RtVKyZOtWLiNG/+mc2nBWB9hFMAqIZCQ0N00UU9JBWspTrzjXdKbbvwi4Llo3Jzc/XY1Ml+uaTet+9lkgrunh9zx506ePBQie2cTqcenjxFubm5cjgcGjrkWq/XUvjlZ2RkeL1/AGVjzikA+NEXixYrJeXgGR3z4IMPKKLQ8+pL8/knH6tFqzbKOHVK9z/wD61ctVKPPvKwzmvXTpJ0+PARPffCS3r1tYLF9aOjozWgf8kL1/ta3Tqxev+9tzXy1tHKy8vTeRd01qOP/Eujbx+lqKgoGYahtT+t05RHH9N336+WJP3tbzf55HnroaGhstvtMgxDeXl5emr680qIbyW7I1jXXT1Idm7MAXyKcAoAfrRs2XItW7b8jI4ZP+6eCoXTyMgILfryf7rqmuuVlpamBQsWasGChYqIiJDD4VB6obmoDodDP//4vWpGlb2eqS8NHXKdEhN36vEnn1Z2drYeeniyHp48RbVq1VJmZqby8vI8bfv366dXZ/zbJ3U4HA7d8/e79MqrBaF92uNPePadOHZQNWrU8Ml5ARTgsj4AVGMXduuijet+1MhbRijqj+CZmZnpCaahoaG6684x2p24RU2aNPZnqXI4HHp40j+14LP56t69u2f08sSJE55g2qJFc7064yUt+Oxjn9by2KOTdduokWrYsOGfT7WCX7hcBfOlfTFKDmuymT6Y+b5hwwbNmjVLCQkJnjswAeB03bp104T7xmn6U4/7u5SAkJeXp/XrN2rfgRQ57Ha1bZugVi1bWDZ8HT58RJs2/6bDR44qLq6e2ibE+z1AB5qwiGhdddVVmjp1qt9qOHjwoJYvX67LLrtMTZo08VsdqDxc1geAABESEqKePXuop78LqaC4uHoaEPcXf5cBoJIxRg4AAADLIJwCAADAMginAAAAsAzCKQAAACyDcAoAACzL/ehdlpIKHPykAQCAZblXvPTHY3XhH4RTAAAAWAbhFAAAAJZBOAUAAIBlEE4BAABgGYRTAAAAWAbhFAAAWBZ36wcewikAALAsl8sliXVOAwk/aQAAAFgG4RQAAACWQTgF8P/t3XtsW/Xdx/HPsd1cnNhJmkuhoU3qNJlzgRbaJgzSC+tUbRpPL0jtI21jgm1/bGTTBv90wDMJbUC1bgw20FiHtiFtaBrSgE7aKkE1qWKClLahrC1pehkZuZX0kqVJSuIkPs8fwaaOncZJbZ+T+P36Kznnd37n6+O4/Zyfz/kdAABsg3AKAAAA2yCcAgAAwDYIpwAAwLZMMyiJqaTSCeEUAADY1vj4RDh1Op0WV4JUIZwCAADANginAAAAsA3CKQAAAGyDcAoAAADbIJwCAADANginAAAAsA3CKQAAsK2xsTFJTCWVTginAAAAsA3CKQAAAGyDcAoAAADbIJwCAADANginAAAAsA3CKQAAAGyDcAoAAGwrGAxKkhwOIku64J0GAAC2ZZqmJMkwDIsrQaoQTgEAAGAbhFMAAADYBuEUAAAAtkE4BQAAgG0QTgEAAGAbhFMAAGBboamkuFs/fRBOAQCAbYWmkmKe0/ThsroAAACQXrq7u/XBBx/E1bavr0+SdOjQIblc08eWrKwsrVq16rrqg7UIpwAAIKWKior0z3/+U4FAIO5tOjo64mq3evXq2ZYFm2CMHAAApFRGRoYqKioS3q/L5VJ5eXnC+0VqEU4BAEDKVVdXy+l0JrTPm2++WVlZWQntE6lHOAUAACnndrvl938mYf05nc6kjMYi9QinAADAEj5fRcJGT6uqqhg1nScIpwAAwBJ5eXkqKyu77n4cDof8fn8CKoIdEE4BAIBlamtrr3uC/eXLlysnJydBFcFqhFMAAGCZvLw8lZSUzHp7h8Ohurq6BFYEqxFOAQCApdasWTPr0dNFixbJ7XYnuCJYiXAKAAAslZeXp6Kiollt29jYmOBqYDXCKQAAsJRhGLr99ttnPHqan5+nzMzMJFUFqxBOAQCA5bxer3Jz47+pyTAMbdz4+SRWBKsQTgEAgOUMw9Bdd30u7vYFBQXKzs5OYkWwCuEUAADYgsfjiStwGobBtabzGOEUAADYgmEYWrdu7bTXnhYUFMjr9aaoKqQa4RQAANhGcXHJNSfUNwxD9fVrUlgRUo1wCgAAbOW2226bcvS0oKBARUXFKa4IqUQ4BQAAtrJ06dKYo6eGYaimpsaCipBKhFMAAGA7NTU1UaOnBQUFKi8vt6gipArhFAAA2E5VVVXEnfuGYWjZsmUWVoRUIZwCAABbWr58efjn3Nxc+f1+C6tBqhBOAQCALdXV1YVHT/1+/4wfb4q5iXAKAABsyeFwaNmyZcrOzlZlZaXV5SBFXFYXAAAAMJW6ujp5vV45HIynpQvDNE0z0Z22tLRoz549qqqq0oYNGxLdPYB5YvXq1VaXAGBar0naokcf/VDbtp2XJL344g167rlSSdKmTX168sl/S5KOH8/RffdNXBdaUDCmN954L9zLpk0rdOmS65PtT6qubkiS9MgjPr3+eoEkqampW/ff3yNJevXVIj3xRJkkqb5+QL/61SlJUmdnprZurZMkORzSm2++q8zMoCRp+/ZaffBBliTpmWfOqLGxX5K0e/dSvfzyxNyoX/lKrx58sCOhRwiJxcgpAMvs2LHD6hIAXMPLL9+n8vIa1df3yuf7OLzc77+iHTt6JUnV1VfCywsLR8PL3e5gRF+bN1/QlSsTo58LF46Gl3/2s/3Kzx/9pK+h8HKfbzjcV1nZSHh5bu54eLlhSE7np2NsX/jCJV28OBFtbrwxEF5+220DkibarVw5OKNjgNRj5BQAAMS0evUq3X33RT32WLvVpSCNcAEHAAAAbIOv9QEAQEw7d3aovHzY6jKQZginAAAgpu3be60uAWmIr/UBAABgG4RTAAAQ0x/+cIPeeivP6jKQZginAAAgpl/8ojQ8BymQKoRTAAAA2AbhFAAAxPS5z/1XNTVXpm8IJBB36wMAgJh27z5rdQlIQ4ycAgAAwDYIpwAAIKaTJ93q6cmwugykGcIpAACI6atfrdaePYutLgNphnAKAAAA2yCcAgCAmLzeMWVnB60uA2mGu/UBAEBM//jHe1aXgDTEyCkAAABsg3AKAAAA2yCcAgCAmL74xVv01FNLrC4DaYZwCgAAYjp/foEGBpxWl4E0M2fD6fj4uM6e5bFqAAAA88mcu1t/fHxcra2tamtrU2ZmpioqKqwuCQCAeem3v23TwoWjVpeBNDNnwunw8LBOnTql1tZWjY5OfFCysrIsrgoAAGu0tLQoMzNTPp9P2dnZSdnHihWDSekXuBbbh9PBwUG1t7fr+PHjGhsbs7ocAABsYWRkRO+//76OHTummppqVVZWKjvbbXVZwHWzbTgdGhpSW1ub2traND4+bnU5AADY0tjYmP71r2M6ceJ9VVRUqKamRrm5uQnp+4c/XKZbbx3UPfecT0h/QDxsF04HBgZ09OhRdXR0KBjkkWkAAMRjfHxcp06d0pkzZ+Tz+VRbWyuPx3Ndfe7bt1BOp0k4RUrZIpyapqnBwUE1Nzert7dXpmlaXRIAAHNSMBjUmTNndPbsWZWUlOiOO+6Q2+2WYRhWlwbExdJwapqmhoeHtX//fl2+fJlQCgBAgpimqY8++kivvvqqPB6PNm7cOOOv+7/97W5VVn6cpAqB2CwLp319fTpw4ICGhoYIpQAAJNHAwID27t0rj8ejdevWKT8/P67tvvGNniRXBkRLeTjt7OxUS0uLBgYGCKUAAKSIaZq6fPmy/va3v8nj8ej22xtUUrLI6rKAKCkLp//5z3907Ngx9ff3E0oBALBIKKS+8cZ+eb1e1dbWyufzxWy7d2+Rli4d0a23DqS4SqSzpIbTYDAYfppTMr6+Hxoa0sGDB2WaphyOyCexGoYRvvh74ueIteHlsdpfvWzyz/FuE2t5aNHEuqn3dfVrmWp/sWqbvH/TNKNqnOqYRNcbWcOntTtkmsGo9dPVO5N2k9/LyWL1e/XrvVqor2u9twCQjkzTVH9/v95++22dOHFCy5YtU01NTcS/wT/+cZnuvvsi4RQpldRwGppAf3AwOU+YCAQCOn36dFL6RnqZKjjPtE0828daH8+ymdYYT1+xTtqm23c8NRnRnU/7GievjmwfuZ+rT0TiPZ7T1Ty578nHZroTmniO2UzbTPcap3st12o/uf/oXcRuP9VxmOqkcmYnqZ/uWzJj1hBPn1HrTFNGjAGMWCfwV/c3dX2hGj9dbpoTf8MTJ/DmlPVN/j3WwMp0tYS2S9Qc4KGQ+t577+n06dOqrKxUdXW1nE5nQvoHZiqp4dTr9Wr9+vXq7u7WmTOn1dXVndC5S/Pz87Vp0yZJihiVNU0z/I/D5NHaye3iXffJ0k/WTW5zrX6m7z9qX6YZ0WNofby1x67/6trNqLquPlax9hfvvqZeF31MptpPrPdu5u/V7N7reI/rdN8CmGYw5nsfa7vZ1BK5LvLvcibbzuRzE4oL8fY1efup/o5jvdcz/fzOvN3k9pHrZ/r5mu3xBuzENE0NDQ3p6NGjam1t1c0336w1a6rk8w1bXRrSTNKvOTUMQ6WlpSotLdWFC+d14sSJhIVUwzCUkZGRgCoBwFqxgmu8JzPTtZv4PXjVz/GfBM725C00mjj1CWr0SdVU/y9E9mtEncDEc0ym6ztUYzAY+8QoGAzO+oQpvm0m72/6vjo6OnTp0qWYr+t6uN1uVVRUyOfz6fnnTyW8f2A6Kb1bv6ioWOvXb9DAwIDeffdddXV18WhSAFD8l40AIYODgwkLp4ZhyO12q7KyMuq6UyDVLJnnNDTP2uDgoFpaWtTd3a2xsTErSgEAIG0ZhiGPx6Pq6motX7486sSoqytTbve4Cgr4PxqpY+kTonJzc7Vu3TqNjo6qublZ3d3dGh0dtbIkAADmPcMwlJfn1YoVK7VkyZIp223ZUqe7776oxx5rT2F1SHeWhtOQBQsWaO3atQoGgzp8+LDa29sVCASsLgsAgHnFMAzl5OTozjvvUHFxidXlADHZIpyGOBwO1dfXa82aNWpra9PRo0f5uh8AgATweHK1cePnlZubG/c2E9NjJbEoIAZbhdMQwzDk9/tVWVmp9vYP9M47h7hxCgCAGTIMQ4WFhWpsbFROTs6Mb7Z788135XQy7RlSy5bhNMTpdKqiYrnKysp17tw5vf322xoZGbG6LAAAbM3hcKikpEQNDQ3Kzc2d9QwQWVmJm5sciJetw2mIy+XSTTfdpG3btun8+fM6ePBg0p46BQDAXOVwOOTz+VRXVzejr+8BO5kT4TTE5XLpxhtv1ObNm9XT06OzZ89aXRIAAJZzOp2qra1Refkyeb3ehPW7Y0etNmz4rx54oCthfQLTmVPhNMThcISfOgUAQLrKyMjQZz5TpaqqKmVnuxPe/7//naWamgUJ7xe4ljkZTgEASHcVFRVatWoVj/HGvEM4BQBgDiopSf48pc88c0YlJTwcB6lFOAUAADE1NvZbXQLSkMPqAgAAAIAQwilgY1euXOEpaQAss3v3Uv3974VWl4E0QzgFbGzbtm3661//mrD+Lly4oOeefVbPPP20enp6EtYvgPnp5ZeL9c47HqvLQJohnAJppLCwUP+zebM6u7p04cKFGW0bCAS0e/fuJFUGwI6++c0erV/PdadILW6IAmzsT3/6k9zuxM1daBiGysrK5PF4Zvw4w4GBAR06dChhtQCwv299q9vqEpCGCKeAjS1cuNDqEgAASCnCKZBE+/bt04EDByRNXD/a0NCgCxcu6KmnnlJnZ6ca6uvV9J3vRIxiNjc3a+/evTJNU5L0pS99SWvXrr3mfnp7e/WTn/xEXZ2dkmFo5cqV2rlzp1588UW1tbXJ6/Vq586dcjqdEdsdOHBAL730ki5duqTCwkI9+OCD8vv9EW36+/v1s5/9TENDQ+rt7dUPfvCDiPVZWVl6+OGHlZmZOevjBABACOEUSKJbbrlFCxcu1L59+9TZ2am+vj698MILampqUmVlpf7yl7/orbfe0p133hnepqKiQlu3bpU0EVQ//PDDa+6jublZP//5z9XU1CS/369AIKCDzc3aunWrFi9erHvuuUdFRUVyOCIvMf/Nb34jp9Ophx9+WIWFhTp37px27typXbt2RQRUt9utLVu2qK+vT6dOndK2bdsi+nG5XFqwgMcbAgASg3AKJFFpaalKS0t1/PhxvfLKK/J6PXrhhRfCX9d///vfj9qmuLhYxcXFkiZGRC9fvjxl/4FAQM88/bR++tOfqqysLLx8yZIlWrJ0iZqavqPHH39chYXRU8G4s7P15K5d4dDq9Xr1+9//Xg899JB+97vfhdstWLBAq1ev1sWLF5Wdna2GhobZHQwAAOLA3fpAipSWluqXv3w2odeRHjl8WGvq6yOCaciaNfVyuaY+//zqvfdGjabm5+ero6MjYfUBADBThFMgRRoaGhL+9XfryZOqqKiIuc7hcMjn8yV0fwAAJBvhFJjDysvL1d0de6oX0zTV3t6e4ooAALg+hFNgDmtoaNDrr7+u/v7oSbI7Ojo0OjpqQVUAAMwe4RSYw3JycnT//ffrgQce0Llz5xQIBDQ8PKzW1lbde++9unXlyoTty+Px6MqVKxofH49aNzAwoNHRQML2BQBIX9ytDyTRc88+q8uXL+vkyZMyJR05ciS8zu/362tf+1pE+66uLv36189rfDwoSeru7lYgENCJEyfCbf7v0UflzskJ/75lyxZVV1fry1/+sj7++GNJ0k033aT9+/froYceiuh/bGxMu3bt0pEjR/TRRx/prrvu0vbt2yVJhw8f1iuvvKLBwUE98sgj+t73vqdFixaFt83IyNB9992n/92xQ088+YQ8Hq9aWo7otdde0/vvt+qPf/yDfL7Y178CABAvwwzN9J1ALS0t2rNnj6qqqrRhw4ZEdw/MGcPDw5rqI+ZwOKImrg8GgxoZGblmn1lZWTEfPWqaZnhUM3SXflNTk370ox+Fp5IyTVMjIyPhmpxOpzIyMiRNBNerLwPIzMyMupvfNE1dunRJe/fu1cWLF9XY2KgVK25RZmZW1AT/AADMBiOnQBJlZWXNqL3D4VB2dvas9mUYRsTUUaZp6ujRo+HwGWozVU0ul+uaU0+Fti8sLNTXv/71WdUIAMB0uOYUmKf+/Oc/a/Hixcq56hIAAADsjpFTYB7o6enR448/LtM0ZZqment75fMt00svvRT11TwAAHZGOAXmgeLiYn33u99VMBiUYRgqKCjQDTfcYHVZAADMGOEUmAdcLpf8fr/VZQAAcN34vg8AAAC2QTgFAACAbRBOAQAAYBuEUwAAANgG4RQAAAC2QTgFAACAbRBOAQAAYBuEUwAAANgG4RQAAAC2QTgFAACAbRBOAQAAYBuEUwAAANgG4RQAAAC2QTgFAACAbRBOAQAAYBuEUwAAANgG4RQAAAC2QTgFAACAbRBOAQAAYBuEUwAAANgG4RQAAAC2QTgFAACAbRBOAQAAYBuEUwAAANgG4RQAAAC2QTgFAACAbfw/dL0/RSvIQp8AAAAASUVORK5CYII=;movable=0;resizable=0;rotatable=0;deletable=0;editable=0;connectable=0;" vertex="1" parent="1">
                    <mxGeometry x="-362.00224853515624" y="1299.9998779296875" width="679" height="501" as="geometry"/>
                </mxCell>
                <mxCell id="14" value="" style="shape=image;verticalLabelPosition=bottom;labelBackgroundColor=default;verticalAlign=top;aspect=fixed;imageAspect=0;image=data:image/png,iVBORw0KGgoAAAANSUhEUgAAAHoAAACTCAYAAABBEg2uAAAUFUlEQVR4nO2db0xUZ77HP73ZF2bbRC1/BoZaSkETNbCBRZtiY6h30RUVUdqqTba31QKmNt6+qIu6myi5rYKaXGmqFdgSt02KVSmIFS6yV0mzpangTAorJgICpcPM8CcLSZvrqz33xXPOzBmYgZlhmD+e80lImHPmPPPAd57nPOf5Pr/f84QkSRI6fmLmxPMt/P7hYTLkI6ay5Xyc0k7NKzEhrdl0ntCFnh+msuUUVKkOFF1m4HB6yOrjCV1ojfBvoa6ATnDQhdYIutAaQRdaIwRE6LGrhSQ9v9z5U2ZWnTVzQnXuRKd82HaFvc8X8qVNft1ZRpLyurNslvL8r+Peq2N+XKnUX1XXQGNqJSGh1vHzkSnwH+Ei9NTU1Kw/ngbow31tFF7uZeBhLwMPL1NY9ZosqJkTz78GyrnL+6g+f4UxgJ/6SSlKpv8ngDG+HIRCklkeB2OD/bx8ql1c036Cl6tamN/fPsatpjZSnvP12XaML/cq9a9mV9y8KuEeazuF26DRsgeLZQ/mc4so/+ZewD/mV+oXjx49oqysjH/9618z3rhixQoOHDjgpogxeh9kk/ym8jqdwlPZlAyOMTZ4nr5T7dRkyqcyN1HY1sIwMPy3fpJTkmkZHGNs8FN4aRNk97EM8cVJ+Z0QZezvN7mdvZFypXjbFfZmHeU2ANmUtTsFGLtayNo/tslv3Efdw8Ogfs5tW041+PCs+xP9bfv4fY3qkK2ZD/48TMFfilgJjH1dyqEG+MMHx/j3OFB/uY9mui/VBesvNG19kg8BsPNt8yNyN0d7caE7zHz+diNGVV2U1y4t2mAwUFBQMOPyJ554wu1xAGxttLSJlqgw3NcGTHCrCTa95K4VjdHLRja8lAx9n3KLfeyij74VKcQwRu8DqH5NdNtr+95hoOZVYkCIfBTKH4oe4s4paPm76I7Hrhaytmkjdx4qPYuYrco4LPcK2Sec57yd0OhsoTo7mWXqY3GbKc630mkCTFUc+n4tp/+i/GMBWx993pUuyMihceUQ6Qm1JCTcomnzBqrzDb6UoCIeY7yNkRGlLjaG4teSFufmHv3SSy/xm9/8xuXYzp07iYvz0G/91M9tl3+GECrluf+jf9oXAFsffdnJLLO10UIKMXEppFTB8ldi4Kd+SHkGpRXVPezlzqlsXk55xnG56eJRbrcdZa18717btJHyV2IAM9V/TKZO+UK4q+OKFPfn3GG7wt7nl5P0t03OL5mKmK15GO9U8cF5KPmvza7n416l5qGXrRnA2s6F05B7LpESoGlw3NtauiGOtBfiGBoRg4n7DY0k7hD1czsYKygo4Ne//jUAqamprF+/3mPRY4P9vJyb7fxjOz/lcNs+fv+MLKrqvaaLRyE3mxiHqOkclVve2GC/fL2zFcU8l8ztpjbkNkvvg2zK2pUW26tq6TM/a0YdVV+YOYl7lZqH7ZQ9OO9+AGbq4PNOK+SvYaX3pbrhHh9l/sJ+yx6q87M4aEmj5PQId+dRYowxnr6frGBrpo4i/iBPwrsVevHixezcuZNFixZ57rJlhvtUgxzbFfa+9imFlw+TEZdCSttNbqlG1QVV+3j3lRhMf/t0xsBIKWdssB+U1pe5icK2foYd72qTB29ucHnfzDoGDFuzaMl/OUYxjXzuMkoUI3SvR/fWKbrVr00jlG99UvWF9bE8AOMyUiwdfN4AxfudtyiPj1dr1qxh586dLF26dJZSXe+nSVk32dSudFvpHL2czOEs+dz5ZO48PEyGMnh7Zno54thwXxuFv1Mq+AzJ2Z/yP50AMew6cYK+19w8dsW9Svmpfgocj2RlLqP0jN/t4/Yfs8S5vfKofy5sbbSwkQ2qW8/Y16W8+ec7vPiBGIjFGOP53/NV3PemPHfEZ7H/0Dh5yqPVNmiszCLW3/IA4uJItFox5k+7pUg67uk4KT130hTaOlgvS28lvS1dsnp/yej149J/XZ95gS60R0zSh0kp0nM+/qMDxd2Tvn12zyf7pf/Yt9+tyJIkSbpNqRH0uW6NoAutEXShNYIutEbQhdYIIRDazKWoz+jy48quM6Vc6nRzYqSJC3ubsM+3an5zj49UfnLCWVeb8e5ZD16z2ocubmd0AWuot+iAsJqDsp9ssWzg4/tdDkFHG+rJI00+lwbb6qm3Atipr1R86A18zBB/ali4r+qv5n7LwmCvq6C8aBJYQkb3f5JjBLDRurcS0zXxnsVVxewviIPOzyjfNCAOniyVvekkNk9sxK56/8WoDtfrPJRnr6ugfmApnBxg6sgaMno6MF1LYvPEG6QBiqfcd8qfhfjjDH+9iGXHQfjL8PHx1eKUdYpuHtH9vZ0d+QZ2VObI1xhYt3kRTT5+kk8EbCrHa0xS7dPHpU+uyjM4HX+Vyt66IdkkSfrhtOq4ZJVuvnVcqu1wXvnDadfXDiw3pE/kMtR4Ks929axU9vRfpR8sN6RPnj4u1XZYpZtvnZVuWpx1/DApRXrryqj3f9bIt9Lbxi8ko/EL6e16pSb/kCqMN6VOSZKkuzclo/Gm9FX9V6rzCjbpq6IvpIq73n+cr4So604iq0B2CzJTSbw2jh0b9p4lJL+ouAhxpG1ZwuSQvwu1Zi9vcdVG0Xq3r+HlGd5xOkcf9vrWmuOzqJa74dzmWxSqu2FTKwmVT2K25LDOzaV3z97i3ZVpHMxwczJAhP4ePWJlcns0/q6pCD/kbnhwHIhm2dZx8iqfxCy7UsODj1zeffdsLXn3EzG/t3pBaxVyoe3f9TK1Kh4DcRhWTdL/ndKCzdwummRJouvKFo8t/Nr4tFG3d+W5xw8f2IFY91WyfjWK6Lmbk4X1aG3nwulF5L4gvtajDfVC5Plak14QosHYAM1RpTQDbF/DmzXCf057P4+eqErKi8S7FlcVs1/Vraa9vob2VOW8avBkzCXrSKmjTGXQ5ak8+1CA/xxrO4WZQ47BVMn1PY5uODY/i9ziWyQccJ7bES+u+dOBR8AQ6QlKhaJptOTw2wBXD/QgO80Q8q5bJzjoQmsEXWiNoAutEXShNYIutEaIMKHNXIryYFXqzEpE+dG+Yq+r4EKdp7nywNZjtKHevR89W+yz7kd7Ip3dE8fY7W0AW9C4x6VmA2bZcy457fSjyciRveg9WDoT6d7WKsdWadqPFqtImk+K352+snj/xaJJABJbXMVWnxOI6VExo2ziUlQHQwBH8ih5P93lM4aUqVj5nMBXP3o1Byudv6871MW37t7mEgutET+67LQId7FdPevy+2x+tCS58aQtN6RPnv6r9IOba4TvrPjMJqn2aVfPudZx3cw6+uxHO/iHVGH8SvpqxHnEXv+VZDR+IRmnHXey8H50iFp0Epvl1mNIXAoDADa6bkwydc1pQgAkvjO/T1pctUvuLeKJ2u7tVcKP9h079cVddJ/bwMF459HY/B1Y8pHNj3ro3CGMDRnFj7YsoB8dsq7bPa7duFcY41lCh9MNO5JHSUju4Xbqi2XBPGUsiE8md+sQw1ZAFtrhR1c+5n60kzjStoDpCx8zEHV2M3Qkj5KJY+LnfV/ycP4T+4i747770Y5WOdsCAms/TV9Hs05uuRrwo91jKNhFxt5KyqMa5SNOz1k9gBILBOXWn5lK4qZGyk82OgtyGVh5Ip2Xq77hYmqpiKX26hoPmFrJOw3QRcJp+YFtqxCQhnrSDyirSlR+s+5H+4a9roJ6djlG54w0cSF1nCzHik4deAyEFsJ2MOU44Md9XgNEvtA6XhFGgzGdhUQXWiPoQmsEXWiNoAutEUIwYaKOcFRHMHqHW3drpIkLf4YdNbkBCO25x0cJXc5swofmmO2KEEIgdBw5NcfIwcylqO65365mpIn2njW8OREIQd1z96wwJcR8tZ364nbqratdTIhIJOy67q4zpZRHiZ8Zq0NGxuU4LQUbrXtLKU/tYOpaBxfdXufbvPWy5xbR1NwvVntY+2n6+imejXCRIczmuu11FbQnFVMy4Qxiv5R4jN1G9ezXgDyvLbr9nJpj5ASw647N34HlWbHEh62JmC05C244BIMwEnoWP9qYy/6JXJH5oC3VR/PBR2/Z1CqSr1r2sKyhnvSE1gUzGoJJGAkNoZ+ntlNfOU7J9T1C2PwdNA7WcqHBPo+s+OFBGN2j/fSjFWbERyv4co828OxK6P5RKcnOj/ch9dnIFhlC0qLNXIpqRHFgh6JKad6+hjdrcmf1o2fFQ3y0P/z2vTRSE5zxzLnnNlC9gEt8goXuXmmEMOq6dRYSXWiNoAutEXShNYIutEbQhdYIYSi0MCo8h7vq+EMYCu0jc+Tqnj1G2jdcYqATlHTMMupYZ5d83bPn8g4aCxe/FyQ8ZPZVcI3QDCB3b0rGom8luyTJmX3lLL6SJHX+tzPDr/p3ETXpKaJyYQnRCpMvYctSTEUiB7e7vNwzpzFdp04d73lR/N51phTTSXBMm7os7FccMVfTROw3nUydvBGqL4z++DOsNBILjH5vh3NZssMl5seb7vczmm9w+tv5BmJlf3t/5exlLwQhcq8mMQ2sp2TiDYSAN+kqeIO0zDcomVDCbFzpOtPIZFUxJcoX4nw0OwriYAS41kH/FuFjd50ppb3ORlqBsDZnhOzMk7tna+U4q2gaLWKJ0fDgI1LXG1CWIXEukdxm8f5w8bdDdI9eQsbriqeczu75xkltXyNEBwxJS7y+LOaVaseG4t7y2/fkNBXXIS+hVbUF8D0+SnjAss49HHxBdYHK3zZvtpPuck3wiJjBmCFpCVNFlWKZ0aZ/kvHBwq0b84oMIyX8zI9WsfyofNsDlikB7tZf5DQVir8tFi7E5u+g8dA4FxYwV4knwmzhgSdsdN2AjO5jfi1KmBqwAjO77vnco8VezwbM8RD7goHcrbAuHhRxczenESv7200/2iFDLDb88T5yNx9cwkpo16QzYgAlEtOIRQmOWGbAMbCao0xDwXoSo5T46fmtYHHen3HEP8cCxGfx4eZ60hNqxblDzqwH4eJvR4gfLZYGr1Ldy7vOlNKe5P8CA60RIUJPy3gA88tQoEEiRmid+RExo26d+aELrRF0oTWCLrRG0IXWCCGaMJn5XBxUTK0kbBt3PaaaAFFPjKg3K4tkwmpmLGhk5GCxqF6bWkn4ZrGwHB37Pa9GGBX11E9L0hqJBF3o2XNle9g/Gug6U4E9yY2HLWMqW07BgxPcqXkV33Z8tlNf+bO8x/Ps+z1HMkEXOu39Y6S9777r7jpTKXzlmmnx0ZkAk5huLOfNiTcwYOZS1Je0vhiAyEtTF++uXIElHsQm30+xrhKHvfjxuQVOmB4kwmgwNvf+0YnvKNZkOquOTDKhysybcbiXAb9a87i8M6yKOfZ7jkTCSGhfsGHvCUAxpi7eJZHdjsHW3Ps9RyohFHp6rmwf9nseMdF/LYlVqgTsprLlJO29gvcZtuXWXKzOlT37fs+RTIhG3e5zZc+1f/TQplI5LZTwlef1aCa3ZvO0RyeP+z1HOBHjXnWdKaUnOxy3QooMIvQereMrEdOideaH3qI1gi60RtCF1gi60BohDIXW46MXgjAU2hum7f3sIUY6kLHR4G98tPC33e4fHUTCUGiRzzscF+bH5u9w7gV9/SnePS5v7m1tp3Cbshf0HhrpolCOr3L622JvabZN+4IEiZD40dNnuBzHmC0+2tWrhiRWTTt2MarDzbUz949WWPj4aMLG3w660IakJfSAanuEDOw9S4h6HTDOFh+t9qqV7P1xc+brnirqJbn7GLuNZi5FfUPr6+nz8rB9i48OH387JF335JAN+3fjgJKRdymGWf/5ZnpOJpHlR3c+2/7RQYmPhrDwt4MutCFxKVMDVuwDkPUO9HRamSA6tLHO/uBVfHT4+NvBb9HGaBb3dNOTlEqaMZrJ898wOedF8URtH6CnU7zqOuOaywSYJV+3Z8auFpL0fBl+DYTl+Oh1jvhow7T46GRiw8jfDr4fbYxnybUOJrdsBGM8yXRgkjdEmS0+OuedJMplPzqxJY/Ek6oddgKYr3s2/ImPDhd/W3evNEIYPkfrLAS60BpBF1oj6EJrBF1ojaALrRF0oTXCYxE26zKRQfRjsZdkoIn8Fm1qJe9+ImbZCzaf+zkkuTbDneAL3fkZ5VEVtMpxV/a6CsrVq0V83O+Z+CfJ/drOt1YQ8c2PHou9JANN8IXOfIOSlqXyZqNmbhct9W7/SU/EZ1FtWcFwZi0JCe1w/PFIRRFoQjbXrWQ+EKbFfEqSzf7rezgY305h5hCpj0nekUASwnv0EhKPeJ9E3ROjDQ8oP5QmhI3Povp6NOWV7fOv3mNGSIS211XQzHp2v78eNjnv1wLf7tGxzz4F96fEIj2UtVyLA13liCf4j1edn3GxaCmbJ8Qivd0t3ZSnVoC/ebQzcmhcWUt6grwUYWsi5srVs1+jQXQ/WiNE/nO0jlfoQmsEXWiNoAutEXShNYIutEbQhdYIEe9HjzbUk35gWpjLoTQs74lJk8cx97Y/PHYTJqMN9fyJLKrzDeJLMLhCFl0Jgov83Nv+EPSu215XQfkZs/PASBMX5uNHu3CPSweeYn++2Afy22b4eJdrbHLT99pclBD8aMqC9SSe7HYIa/+uF6o2BmTLhdGGB3SfS5OXEYnY5GfjEWGrmb+Qe25RAD4lMgnBYCydVUeUyEgbXTeWTot7Tufow15qXvEt87ZozcyMVAyD2ORwICSj7rTX1zDZZoYRExNbAteayw+tUN1/wyc2ORwIzeOVMYPknm5avxsn6sXp4a3+3KNFa3bcj4HHOfe2P4ToOTqOtC3/xHQjmrT57omBu9YsiM3PIrf5lkj9lDlE6nVtjrghxGvG9PzbwSNk2yFNz66vs7A8dhMmOu7R57o1wv8DNBso5Er2fDsAAAAASUVORK5CYII=;movable=0;resizable=0;rotatable=0;deletable=0;editable=0;connectable=0;" vertex="1" parent="1">
                    <mxGeometry x="-335.99573414522047" y="1083.001324678309" width="122" height="147" as="geometry"/>
                </mxCell>
                <mxCell id="15" value="" style="shape=image;verticalLabelPosition=bottom;labelBackgroundColor=default;verticalAlign=top;aspect=fixed;imageAspect=0;image=data:image/png,iVBORw0KGgoAAAANSUhEUgAAAWsAAAA1CAYAAACHtcpLAAAPlUlEQVR4nO2dvZaqvteAH9/1v4tfC1O4vIJwBWhjZWsHJTZ2lnbTQImdrZWN5ArgClwWkvLcR94CZsYPUFBnjs7Js5bFDIR87ewkOztJ58+fP5oG/Pfff01eMxgMBsM38H9/OwEGg8FguI5R1gaDwfACGGVtMBgML4BR1gaDwfACGGVtMBgML4BR1gaDwfACPFRZR06HTqdDp+MjH/lhw6+nqeyoyHl9+VIRTucjvx06HYdItQn+C8rgX0FFOLX1K/E7HfyGFflQZR2kGp2HiEd+9LchfTpO1ORF/KMGffpz8Nu08CfnpWVHKSLfOVLAjuMjFUi/g3NaT1ZAqjVav3CeT2ks14cdc8WvLLe/Tov81KOIxhMyb0ZgVT13mYaCRd+nSZaNGeRpcYm1Jg8FiLBo2Ae/PBmxndjniuCXYwUpWse4fzshH6gIZzxm152xzL/qZznrMh87zBePj/LpyqAlQarRiVcp13rZZW63m2k8LfKdSSYIp/U1ZQUzPBaMG2TYKOsXxXID0sQjm7w36pUN34HEt1eMlilx4GIdjJ4sNyBNZ/T+XuJeEytgGcLk/dWNPIpovoDaUfUHLkOPRu34ZmWtZIRzOJ1xHKJr8xcl8R3naNrjnE57Du15fkTkO0d2PSX9z+eOHz1MUR1+93QaW21LVUjfOTNNOH6EqkhUYWfs0OkvIJtUTAEfbINsUtZFwg7K+zgFR9PVo2cHJhonKuM6nspeGii0lp1WNt5709ZcDlQ0Z3GxMRYN8SHcZOduI6O3ldu3yfV2f2d+DoMV4Y7Kr5S5yDm2GT8sP2rDKgNveH3+4w49YMHV/unPnz+6ye+QxEMjQp3nX//L80R7Ai08Tws8nehj8sTT4iRM+UB7QmjvJEDioQEtvETnWus8FBrQIHSY5EU40CI8/WB7KvOThFogtBDVcRRhPJ0cF4JOQk8LIXRSl6zE04iwcdryUFS+nyeeFnBWbp/PWpT1ZzxVD3SZ16pniacRQgshtHeQ4aKuhK6qmltk5yShWtR8+1vSdkEOwhrZaEXT/NwQ5iYZvaHcvsI1l+tL7yfeA9tcWVZemOvDx3me6FAUOqZS7Nvm5yxaobkmy1+RaY+aNnZAa2VdpzzKp2UBnCQyD680wkR7J4JwpiAqBLRWibShrJRKGcxDLao6hEthDp63flaZhI9OquJXdmTnaW5X1p/x3KKsqVb+VQ3uJtk5e62Fsm6RtlvkIBQ1Db0N36Wsb5XRtuV27Xtt4s9znXiiOt035Se/UkcXnt+prD87/obvh4Kr8bU2g2xWGd4sqHlqEczO531qsyLzhhcWRFyGXsZq8/PWV7leIEYDKmeyVsCoYqn+YhgAd4qXrR63SFK1EJPnJMyxO86RaePHy1qMiGsiy3b50d+3yM5Ppe0WOXhm7pLRFuV2F6dmBnvMurtEp8FZum/Kj9qwyjzqLREWQapr83oP++1HDM14a7C40VJZS3bZlVfs7pkrUr7LEF376tcfKggN2W+h91ZfpFWFuN9CNrEvuNXZLMj41uxYFm6ckofQH3+5GD1vWd8mOz/FLXIAsN0/5/LuU8joNY4GITmJB9tdXrkOdVN+8h2Z6L6s18wpLZW1S/daa8p3nLZJuysaKYcmSubRvPUuN7iPHvI0jAjz89Huye87euxTrLceZLvPRY/nLevbZOenuEUOBiNBttp8Y6pu55lktBnF4GPZnTOu2CVyc34O2sZP8tG5N+3Kq+TrlNZmkMFIsJjXOYuX7ionWIMRYrG+UGiS9UIwGjSdNDRBfXkzOFFt3O7QI1ttqgtVRawqtIc7DWHy/hQ7yNR+Cwejh79T1s24RXZ+ilvkwAqWhEzwL3iyqMih4zzOa6kpzySjbbCCJaNt/2xX3035cad4LFhfCPRd9WN3BWQ7mk1cylln7+3iW62VtRWkJL1JkcFDW6mS+I7NCnE+lbUClgnMHR954mNThJtDkl7xR2xJ6ToDQDaprzA3JulNsE/zI30ce0XlvNwKWIZb5o5PJNVJRavS/avGtcruIrLjBq6ULF0UW247lj7jyYkd+Maytt56sFifuFEW6XqUDr1Jdn6KW+QAiyBNYD7GieSxHChJ5HSwJ5Asz22w3849MnoLD5Nri2AZsu2fuMjdlB+LOA/Z9p2zDlXJCL+sn7Cqfu7Mj/XWgysdxSdyzYIGbn63uO5pXbo0iQPPBPHhUlesnFPlRVG6jnHg0SCEd+xycxCeD1e9/OT/5fLth3tftUtR/umagwivutB8uMKdpuviCnhFfhBCe2Fy7jZ3FC7UnjjO43mY0p3n0k94RZk3TNtZWZ8lq74Mjsv5PG2fK+p19XeUtBayc/a9qt9hHPem7QY50Lp0H6uo0/NCbpmfG8N8ZaihjN5Xbh/vXZdr/dUuP3/nHkCfrrsNdMjVNpfnOvTEcR5ETf3ckJ+awEU+G7gLFXn1rnqOdMwdjJeRfod5Nyd96LDf8GoYOTC0Rvp0+lvC/JLVQOJ3+mzD67JltptfoYnh3/D7MXJgaI07JRTZxa3zKpqzwGPZYBBgRta1KGQ0pr/qkafxz9scDU+CkQPDHUifTh+SPMY9E55iVE3SzCvnf9+RvpdE+sV5AAcILySvcNA3/GKMHBgeiRuja4fDxcmaTTEja4PBYHgBjM3aYDAYXoC7lLW6eC7htcCS6IFHnP4ayqMwHSf6izdmFHVze/zlcZvPcuuHwfALuM9mvRnj7EYs4xN7nlIoy/r8n1IK8px8v2a927JdZGSAEIKV/8YyduvtgdLHmcNoNuTy/p5L7Fn3J2y98DytT4Z8nxRl03urWJD4OXaLCZPtjmRZtTByCUXk9Fkg8GZTbNTJWcMbxuPiwH7jBWcwNOcuZW0FS0aOje1wtACjNmPsCXjeiO7wrVSyNvZgShxYELeLJ8tg5rp3HciyBnrD51bUSJ/+ojgDIX17x4/sorweiiLyN7xNgwtK2KYrQIym7RS1kvjjPgs8wmTIGzn50X7bPev5hCwT9DYSNTi+XcVgMNRzpzeIxWAkmExWbFRwMlLqMYyDX3Pi1bejIpz+ArykdI6Pme4dnGjZciOGIvLH7OoulNpuWWQZbHmoh4OSPuP+ll6Yo2vSK/05jBLy9MJMymAwVHK3654VLMkHlhkh3YXEtydkIiQ/cLi0gpSZ7+D4s8umoiMsgjitj8nvsMg8kjaKWkkkbs0oWyH9Mf1FBsJj9JYj5fnxNfv1nF13xvANcim/DrhZz+kvwAuX3zCLMBh+Dw/ws75VUSsi/x2mcWvbpZIRuT3ArYlYRj4M2tpa/xYS3+mzEF++vErxWaZuvATfxna85vZjJYk2NsFZwUrWCxDhEFvKCyeY7dkB7DbIaMd8siBD4CVL4oMEKBnxvobhNCXvOtirLgP3vFORfofJtuiIzpO/hgUMjaI2GC7yAGWtkBLcMy2yZS8vHDm1XzNZLBB0GbRc9LPYYdsrhNermOyXC5i7YY1yeCJKG++2lxykVbEZ20z4UM4WbqxJfIe+3UF4yfVRtuUSDCJ8/434cGuUXLNAEB7Yiqu/Y7OfT9h2B7hBgBtULzJYbvC586re6eOjg7hwy4fBYLhKa2WtIp/x6uCghKzw7PDOtkz2eLuwKCjXfRD3eGf0mMVxxfcl/qJPb/h3FHVRPjC7Mgr+tPEmOWnVi73hUXg3TsmHPuN+H3tR7KqbTetnF1gB8dDH8SmVe3letJd8zmQeXz47NlIee+3s58Xxj1SbR4pDNxrcaWQw/OO0VtZWEJMeHJ8s/Q59kiNFne8yECNspVBVZhIVUeiNJ/DOUBHOePXwz87HPvtlhYlHSaL3wn671O3OmrDcmFRPSxvxhP5iAsLDGw2ZBhWdkxuzxGfs7FkuYZUJwuVh9ybxnTXD1u555+S7DBgdm0FUhNPPEF5CHNR02zaEb7ZZiDYYrvB9Z4P03rAsq5jq+2sYTpm6VjHCG0/IvIT0GVqoFZCmdZe4PhClkJt39m9TBnHK7TEW1x/pqULmOa57uRAtN2a5d7DtrJjJHClll+lojm07V45xvI4baw7PLTicOQzXYyLlnn1fKcn7uM8iE+yS9ImumDIYno9v2G6u2G8Pbj2wXOI4Zso7446D49hMMo/kH2uZCgs3iAlc6zGzCcu6qqg/Xx2Mam9gsYIZHhmT8YN2kyqJ7ziM10OWeaGA99uMif11u4b6eGe8pjvLybVR1AbDNR4/si6vf5+dND7LjVmGDvYEYMHcH2LftQC4Ze77rCv+vwXYK57JHeTvuTYWMxnCEG8yYRwNTvy2XYYeLO48r7kYJc9hNGOapoVXi4zwx5NiAXW2xrYddl6PbheYpc8xszIYXoSHK2v5PoEwP7NBqqhQ1GGuCSxF5NjYnXN3sCaoclGqfoFxzh17038V0reZ9BJ04KJYYU9s/LfjxWB7GBJOb1w/UJJoA4OBS/yhfUu7/GTbI1lqYguUXCPI2HaXxAFEjo90q+rPYDBU8VgziPSZkxyP3JQkchzGuxG5/rCLWgRpTuJlLPo2TstbO63BklzXNXSXWKetO4DfiIoc+tuvjTaFyQMW82OTh+We7j5tgeUSBKUrYHmhqDNe8zZdotMY11LIyMHub+l5orxB3CJYdstLfe/MpMHwj/BAZS2J9kOWn0M2hYz8ouEul6RnLnoWbpyTeJDtml3Y/hX0QXbfX4ySPuPV6GRLucs0FJCt2DxMSSpkFOH7Pv4GBnFKmhb+4ZS3ls93M3KdMu0C2a7YvWgFLEdb+vb5zdMGg+GcO8wgCum/syYk7K7xow/3MYWMNqx3MJweu/mdY515ERjuR0m/WOCrOIPDeusBD7xQUFFsnDlOANH7nNW2x6w0g5SvHqclSMlxsPt2cUpfOKt2QTQYDLco6+IsiPkCeof25nIKvGLEaDhg2vK8kOJs7LowW9ZRxL59Ykt2/CtbL1Tks3mbksY1he9OyZOTBU+lkIAN5awlp3Sbvs7Bh5SMeJ+v2PZGzKYp6fG5uWxWpf/9YfAgRQ/K0/omfRYrj3A2JTBmLIPhmD9//ugmv0/yUAshdJjravJcJ57QAjQtfsILdV71zcTT4OmkJrpmJNoDLWoT/UzkOhRoRKh/NLV5osOTevOuFnqu8yTUnudpzwt1clCBeZ7o0PO0EKL4Nfhmnuc/m2eD4YX49jsYP2+TyXPqLdM2do3/sZIRGwb/0EhLETljdrP2XjKPiV7ij+fQIH6lVLHx6SLFDc4LYUbMBsM9mAtzDQaD4QUwF+YaDAbDC2CUtcFgMLwARlkbDAbDC2CUtcFgMLwARlkbDAbDC2CUtcFgMLwARlkbDAbDC/D/YYrEaYIYEokAAAAASUVORK5CYII=;movable=0;resizable=0;rotatable=0;deletable=0;editable=0;connectable=0;" vertex="1" parent="1">
                    <mxGeometry x="-337.9990435431984" y="1013.9979434742648" width="363" height="53" as="geometry"/>
                </mxCell>
                <mxCell id="16" value="" style="shape=image;verticalLabelPosition=bottom;labelBackgroundColor=default;verticalAlign=top;aspect=fixed;imageAspect=0;image=data:image/png,iVBORw0KGgoAAAANSUhEUgAAAcQAAAA1CAYAAADf5psXAAAW+ElEQVR4nO2dPWvjTNeArzy8/+FZ2CYEKbDGZYogdS4Ccm6WVC4CIZ1UJCCz4M5ssbgTBAuyhdWZwBauTNhIsIU7my1SGgciEVxscT+/Qm8hO+sPSZa/ktx7zwVmN/ZoZqSZ0Zkz55yZnV+/foVM8P79ewQCgUAg+Lfxn9eugEAgEAgEbwEhEAUCgUAgQAjEDRAQeAa299r1ECxFYGN7wUsXimfbZCrWM1ANm83UUPRRwcsS2Co7qoqx4THm2cbCPKOyjWzjbIb/W7Fe/26CAO/ujnarjNOLvlKUPtDF1F61ZoKsSCb71g47tTp+10QCICBYchDdncuU0XGbDTRpcfrHVplyC9zqfnq6dp+e08c6OaaRJeNZRB8VvBoeVrkH6OTkFfpuCprZQLZVdmp56s0G5lz2AXetHvTg0Q/QpOXKFwJxEYGHffcIgwGD5y/7OA7UXZ9w7mXlYdtwbGrMt5WHYT1SaZjzvwleHK3hou8UkY19wkYkJXzfB1lGnk18Z3E+yFGtHE/9dtz0OQaWatD8PpqWLpXkxxplpUQlizAUfVTwlvDaOIDuxgmsmaSGStEB3W1mnvhJZpN6S6Ys98HvTpfhWZR7CvXZ7zMiBOIiJA1zdkrtGThOHxJmP4NykdagTvVkRgt4rOE4Pfq5Y7qrtJZgw2ic6ArkxiJOQosdlAF2y6GHDpgsOemMJVigivrLZCb6qOCFCDwDqwaUcuRiUwxolR1QdHKPNvZjWm4DBuTRdaBtYcuLBWiEhFnVKRcdBj4Tk9EAu+agu+FKwhCAX79+hZOfTeLXlRD00F3x+rpCCKyVx6giocIoL32tnCJcPQQlrPuxP4Y6hErcj64+fy+brtsSrNs+CZm+2v1si809Jz/q07ob+r6f+nHrSohSD2O7WBY22Eej+yclv38nWxk/r1jOJojq+jL9xPenC/HreqjHFTx6J+nu4kq9aQ3R7IaYgY0qD+ITeAY7tRxh10zPSDLphiaBrZKU1XoEePYdHJuZ7EgvW7cXZt37ydqmL0Vgc17uobtdNml6k7Komb0BUxPgtVi9j0pml9D0MHZqG6mJ4A/FM5DLvfU0tCkCPOOcNvnUVH3Hoaco6Pk8YGEY82nyuh5poVQwUwbAVgViNJC2WcL2CWwDa5Aj97w+MGDQcgBoWTbRusGAwQDAQ/4H3e+f0D7rEtgq5zQTlgcD7PMyPaBXNMj5WZd0MpS7wSXTP7mPvmVeavz8M8aph1F0QKlzgoeX4tH82C5S7usJTjGTSGiNRRPRALvv0MtXaTTWn7K+aQ3xLSCZDRqTXwQ2ahlAoVQxYxpU+La/ZSLhAeRynOxDu9Wjh4V3PO8l6hkyZeq49RbFVo5jiciBxZdTZ5kbQ4m30swi+qjgdfEw1CIOOm7XXLyS0o7+2d/IEPIZ9GCBEpmZ2DhEz9hhZ2f8UbFnJ7OBjbozkUa1k3+Luz6GwLNR1ck81cQ4scBWozRFB3rlibLGHyN1yAeejTFVVvaYFc+KNAboMbjzNhQntmrdAjxDnbl3NYpfS7pm5fYxpq5TR/X63Vfin3nW+1m3TbMimQ0ajQYN00TTjskBSqkyJwwDW6XYj0IypjxOJQ1TvsMYxVgt1/4Sx02fsKEhSVLqRzO7hBMvl8AzMLI0FK/RR5PH6ugCDHW6n6qL+sFs3/SM6eszPots96JO3Ythe3iGGl/GKuNnpu5zn8n350rleBiTeQXe3JhLq+OqY/u5bLVIH2XBQ5glN+/JvQZKbkO5JTnV+HVloVPEwjR+PVQyGFhdnciBYCKd77uhrhAquh4qSQZlVw9R6umZz9YX5pwV3KyG4LFxVh85LLhRHUEJ9bo7ynNJp5o16hY9Nz10px9c6Nb1UFGUcKENeZ32caNrFSX+Xld+1ku26XpETi6z9ffrSqhM1NuPdXAZOcgoeliPfdBRO+i6Htbr9fSPviCdroSKMvo897OkW9pWH3VDHSXUdSVUZu55PFbj3gW+q0fPcrYo3w11RQljXx9+Pb7/+m6oJF2zCmPHo6mC/NCv65Fj2KKCMo6fxD49up9s752s5SijZzTRPgvfIcuN7al6jctKebcllpkhbYbckvvyZFXdqE0VPX38JC6ZSvt5KLcJGqNYJc9gpxi5tI6Xau9aPZTSepJ5PBOfdaKQJI1G18dWo8DnjaFMBmJHaGYXd7BD7S7ATFzUjuxJ1H0a+xaOA8gajW5IxVaRy0X6+KzlC7JM3TzjWYOZqrEkoZkNtH2DnXN7feeUhHIkzaTrgyr3oLSB+3kjeIZKLVel2Y2J0ZtCwoweAOWiQ6vuz9ghR+0wnXts/F9gq5TLedwwabnJJFsrbruP9nAcHTecvq/xWM2pMqo98RwCm/MiVMOYmEZJo9EFY0fFno0Zk0y6zX3Uc5XH5ui3wEaVW5RWjC9LJs++Nt1uktmgOnCobUrriGNb99ODvNtl0pwmLfkOyTK2A8/gvJ2j2uxGqyseQJ/HNOPhiMd+lhsJsA2LQe6E2cig6cxGMY/cYagDctUT4pOfUHVPAPCDINGpLdmGKOdQaHEXgCmB146M9E7bo6FpgMegB/nqeq151+qhV7sJv47jTdYqYpr8fuKLrjdI9unzDJly3iU0pTkTjGR28VE5z1SBPo8B8Z5+S9TNazsoJT/5pa1V0Ivn2EGcDSk7qeVIJiWlTCvp4hWf9esQDUBOmnQz2wcnhGLrjsBcEMzutSmXHcqtmIlMWs1SBvBU9i/QR3V3Vsg/l8BxSaHcugMzkrjBXYueXk2xKWmc6MX4yZGk0W2Cca5i5PP0+1D1u/HjZjRZX8TkZD4qvoHv2liqSrE32s4HBUXJU22GdDfVPbUG4WS5WxPugFIiybdkqXdI4tgej5MK3cbslXn2NS2bDXGhUJQwG41FifDaRVDqVEwTMLDQ1tqJKVkgjh5I9Aw92g7ouo7jtPEaGprXjoyoazn2REI1FTmHwuvGIwS2Sg0XP8WLSTK7RGJ9qZDqlXnsQ8+R2Smnp9PXlDuPfcifJGewvyFj9uviE3hw3Gis8KgkzKbPMdLCa6NJZeR4MJ82fnb92K5Rdnooukuzkay1voU+Ks10Bn/Qy2TbSZwcSRqVUg257KDU/eRwEa1BGC5+ecYhaSYNzZxxSvIwJrXTTbJNYbgkq4ztIFh1nGwBzxjtcjMaT+YJqAaeljRpW0yql+l+HlqPARAJP79RAUem7TWQH/uglNaMzdLIKaSLO3/AIpm5VTyD80E19WUUj7/0vpjLsJ8HpTS7TLedclqJKu1o+SObM+QbRkZax2tUWiwMIZpUoiQ5E+TZj9kyTq40Oa6MiknM+m300WCmM8g5JdNKQJLQDGwVuVXCD5vcqeeoieExG0bSaFTb7MgGx+EGX/5vSBjCamM7faWiT9u2Sd2cBhhkWjJdxCjMQ3cnNOLRBEq1l1qBmSRVIGonOsXaHTZRwRISJzoU2x65fg/y1RWKnOa4pFCu2TS0OMNGtBUPm7QhLkHg2dwRtzTw+miVOjXZwpuzU224nFEfiF0ODGxaPZJtiG+aAM+2aOV18gMLL8i2OffKpdk1HKWO39zHUg1O4jYDzyRYZ/J94T7qFA1Owrg+F8yZP6TjEkp5tKIUm5tH21Eo+fN19wyVGlX8kS3X7HbZN1RUo0p3A/FmkWdmEWaXUbdFkjAcbTzS3KTgzcjmx3aeE3Nx2IU3KOOsJRQDbLUYjaeZxhvbS2V1kHnD/UnSj3+Scyi9Mq0e6CdRwdqJDk6R8sR36yCZXdx8mR11OlQgCDwMVaaFkuzQO6rf5HEgQeBhG2rmcILUumnmGvFm8rw7PaDopc3E30gmzXqfmmpgz7n/ByNX6vWfAVoDN19Gnm0fz0CVWyztbb2ILbcpjOquntPer9BtRGEY8l0UrhIfPZBHL6WfTpGKZyCXod40Rw4oFR6ttPKy87J9VEHX+xRHfW7M81jNu9PCRTJpulBTDbwZVTS6pgburLYUYKuRMOzOaLxao0szV0NVN3UsFjjFmPCZINI+lHplM0Iqg2b4MoaWGV56bG+Cib6WpAVqDR8371CUVzh+Kn0vUz/U51znR9/FufFO7mOZ+Il3//XdeqgoE+mUkTv0RJ6xrrV+feRW/jt/ve5Ou3nP1WuiDmm/JZG6T6Qfuq6f3aV43bqN3NennrES8wxi81umffSpaxVFDyNv65l22cSzztKmKzIOB4nvS25Y10e/K0qoj8IhFn0URQkVPSH8IsVl3ncn7zMKkRjvZZpYfz9j39pgH53dy3S63hNjNTGD+T467j8zlR69W35/niMfXD1TP81OFEZSd8dhSpP3k9aWy4+furLompT9jTOVk/LcMoy5zGM79XFuO+xi3E5x/Sbhiol+qy8KVxqx8+vXr3BSQL5//z6LHP134xnsFPsrHzHyJ+EZO9Ry27dlbpJMXptBgOf78PhIezBj5e73Z5zkSjTjZquBjXo+oLpo6SYI8O4saq0+vV66xVypuzTjjm2aRfRRwZosM7YDW0Uu5+dCcka/YtsWrVY0anq9Huju85FrC3LGsy1qLShV0/chjb/cwzgvPp8JiqKgl6pUEsaQEIir4NkYHFPRlrf5/GnY6g6tF3Du+cex5hZv471OfX9yMU1OOJ4qBtFHBWuyzNgObIPzwckCx65os+4aJZqLztsMPGyrDbmT+HM7lyTwbKw2C8/5FAJRsCIBnn1OsZXH774RN2yBQLAB/r1jO92pRiAYM7cfo0xtUPrXDRiB4I9DjO1nhIYoEAgEAgFCQxQIBAKBAEgIzP/f/9Iu8ai8q/FwVuXa0tiNSdGp7HD6oPPluoEel2ARHYN3pw4HZ25qGVcPdT5dmxRWKeOt0TF4d9Xn7FOTi4IUe8+bYjgMeHq6I/Ba3N70uD+o8/O7mV5mx6bCMRd7axb+ZHF5lftz2k0gEPwxrHhAcA9kecFLO8fRii+8jucACh+0eGE45v7D/uov1aFN5es+FxfL7mjv8/WyBp+aWIUNr7Df9yCA3cKK1w8DhgD4PD0BPBJ4A3z6PDzA/X2Pg4Mo2vbDhzxQ4uO3Kp8yZT7g5rSF/K06Z1cIvBq3lPikZQheD/rc3/cJMFn1NgUCgWAbrCgQl2Ro89dhGb74fNcXboGMdwOcVbG2/MZ8uClyST3bi3xM0ObhvgeBz3AbmlyGUw0mKsOw4/M08+3enszeSJMLHsrckEEDzEQeqaDNCDIP77TH/VmVvUL6BCYiOi5bEtqhQCB4YywQiAFOxcInh/YsNB55APDv6HTiBUnwADDgR8cbaRP7fPrmAj6doZSq1Q2dGjfofLNeYoNBQD6msIymt/fI1Wf4IGV5+W8bid00oTy84/YeDr4cJ6YZOgY/jlZc2mbcXgoHtPlaaU//+OBEbXndEMujAoHgzbNAIEro1vyxKh7wkCZIPOAhx1EmjWH6wq+fexx8aU5pIUNH5fAznH1pYqVqmB6OA0f6WxBWm2M4DNjdTbjvoUflshZNUma573EPHNye89dtSgG3Bqxi7x3aXN7C2VkezWpMa44dg3c3cPClIoShQCD4R/AyS6YZGWsbX45iXv4HJS7ihOEwoPN0F9nKHvrc3Pe4JcvS7PYYDtfZejhgOPz919NXmdMbkh2MdjWs73HatEflXTHjMvVq9XQuW3y87qJj81fFozDW6oc2f506HGytbIFAINg8KwvE+1uLSsIW7Q+x6soiIu0Q4POhCj+7sRrLcOjx9OMR7wHgkc6TzF7BpFAAhjYPh/AxTqC+GAE8+Tzx2463DnsXPj8vov8vo2h1KsVouTKrQBp6VC6Lme2NQ8eC63EbmVzLKn9V4LsFlcMynLlCGAoEgn8UKwvEg4+VxOXLTsXhdEmhOHRq3Jy5fKPI6UOJo92A4dCPhN9tD+7hR2efoz2Ngq6BX+aG/eXsf3HE2kLbeN6k3XSCIPU4Yxba9ZJ49oyR2M1w8bBj89UjoY41Tm/g7MsJdDw6GaugfXLRgKdOwG7Kcx127Dm7467e5VNlh3fvEJqhQCD4R/I2lkyHNpe3JX5+13iqTHz/JLOna1zQ4obSYpvk04B74OMSRX/QRtrlFDLB1R17cUuUe+D5ObQltL9ORcXTNhumsVswE7xwPSqnPThzsfTtOCbtFsyZI5sDOs45pw8KZwdwc3tORdpCWIpAIBBskTWWTFMcNe6Bg6w5/bZF7TKhKCE9x+MN4y/cIhLShxZfOzFCZ1fDWtIDtmA1Cf6SeXe1fY/LaKlU4YsGnY6Xmjbwinx+WK9Ow47B5VWfDx+r/PweTSAuOjZfr2TenSocnJX4pB2zt+XNBgQCgWBd1lgybSYui0U71WTLZ9oWtQny2WLcngbco/AxQdMrXJS4urQZFjYRvyehX9e5PSxzegjf/m5sJSi9U1G5elCAHj4yR5m02Bx7S99gQMexuLqFD58qXH8HnDt+OCAdyRQKJlbBHAnGMqc3ZWAkHJfdB0EgEAheiBdcMg3odPz54O01YuCAkZdp5N0TeA7MLOalkyI8d00+fdiJ1xJXYdfk+kuLw88OV06FwkZtbAGdyjlXVLm+fuTysEcWW+RsQP9i+niOQcAJR3qD75OPWjc5Gnp8vZQ5vVc4+9bFGglGi4DhcFSfjrF0qQKBQPASpAjEaff/efwFv8PTc/iBz4/LIp/vgYPpJbosDiSp7EaB/p3KOZ/HcW8ZLut4DhzUSVOiChd1rg5VnASP16Wrqlc5u20jb9QLNsCpnOPLI419+AjAzZXKw9WCS5da2gbIo+nJ2u3urob13UdzzvEI4HmTt2yOQgKBQPCaJAvEITw9+eztza5xyVz89Hl6Soi5YBQqMHPN0bXP0fjPze93RsHq8tMaZz2hkcQSEDzAwcfkHVyA31rdoYH0cxO2v6SYwRUZ2lS+DtAu5gX22afuQs12maXteKKlU88HyCFr+0jI7B11sYQAFAgE/zCSBeKuRCFhd5Sho3L6uTen7UU/2lQuB/CpsvVTGw5mZPXvsnx+/AA9aVmyY/H5Xufb98Wa2q7e5Jsvc3rY58u3Jvob8Zwcdmx+cIxlma9YC4nCs8YY0HHu8G6L3NwDKBl2FhIIBIK3w5I2xMhWdXrT4+CszqeLmCN8dk2s71G6w9OUdGtSsMLkpdHhI7c+6LHnPQc4V9EuKtlMgxIFy+fLg8znU5nbM5frC+3VlwDnQx+meQgWxx8Ga2mHs0gUdJOCbmINPZyvNT5/tlKXWAUCgeAtkVkgDkcegzfofPvZXSDgRkuYms3laeRleHBW59rahMdmBp4G3N8M6Fxoc/XsVM65/bhs4LiE/j3kyFE5/Fzk8IY1Bf2EfXZ3O1r0B0mLia+cwYP4TVCT6BMsCOUYI2lVvsmP8xsDBH0gv0yhAoFA8CIsFojj2f5Dnm/XPlbSJtMx7BZMvv/cj7YEuylzKR+vtIPJrpSH+zKXlQEfMqR/uHEAuPp68nt/TaKl3is5OVxkYT30Ln8f2VQuy9zc/A4nOPtS5WKpDcUldgno/LC4unW4vx9/ryBvYLs3gIcrg8oC2bX8Fnt5pD051RFpijn7c5QH9AmGiE2/BQLBmyLVy7TjWHiccGF1lwpmmGLkeSj/JeNnOutP4eDj/rRwKTT4++9K7Nl/cVxcVOY0r45jEEhNvq9rA9w1sb6bXHQMvgYnSwrCyXxG9je98fs0j2/NDcVjKnz41MjgVONwRfazIA/Ocuytq9E+5Tj7Vln58GiBQCDYFju/fv0KJ794//49//vfa1VHIBAIBILX4T+vXQGBQCAQCN4CQiAKBAKBQIAQiAKBQCAQAAlONf/970tXQyAQCASC10VoiAKBQCAQIASiQCAQCASAEIgCgUAgEADw/zCwNSLzyN+iAAAAAElFTkSuQmCC;movable=0;resizable=0;rotatable=0;deletable=0;editable=0;connectable=0;" vertex="1" parent="1">
                    <mxGeometry x="-337.9996317784926" y="1251.0048540900734" width="452" height="53" as="geometry"/>
                </mxCell>
            </root>
        </mxGraphModel>
    </diagram>
</mxfile>